<svg width="145" height="90" viewBox="0 0 206 103" fill="none" xmlns="http://www.w3.org/2000/svg">
<path d="M0 102.711L61.6264 41.0843C84.3166 18.3941 121.105 18.3941 143.795 41.0843L205.421 102.711L102.711 205.421L0 102.711Z" fill="#030303"/>
<path d="M88.0543 70.0188C88.0543 75.6906 92.6714 80.3076 98.3432 80.3076C104.015 80.3076 108.632 75.6906 108.632 70.0188C108.632 64.3469 104.015 59.7299 98.3432 59.7299C92.6714 59.7299 88.0543 64.3469 88.0543 70.0188ZM90.2332 70.0188C90.2332 65.5515 93.8668 61.9087 98.3432 61.9087C102.82 61.9087 106.453 65.5515 106.453 70.0188C106.453 74.486 102.82 78.1288 98.3432 78.1288C93.8668 78.1288 90.2332 74.486 90.2332 70.0188Z" fill="white" stroke="white" stroke-width="0.726274"/>
<path d="M107.741 80.9566C107.958 81.1735 108.236 81.276 108.511 81.276C108.786 81.276 109.064 81.1735 109.281 80.9566C109.704 80.534 109.704 79.8392 109.281 79.4166L107.344 77.4798C106.922 77.0572 106.227 77.0572 105.804 77.4798C105.382 77.9025 105.382 78.5972 105.804 79.0199L107.741 80.9566Z" fill="white" stroke="white" stroke-width="0.726274"/>
</svg>
