<svg width="16" height="16" viewBox="0 0 16 16" fill="none" xmlns="http://www.w3.org/2000/svg">
<path d="M5.33325 14.8799C5.14659 14.8799 4.95324 14.8332 4.77991 14.7399C4.39991 14.5399 4.16659 14.1399 4.16659 13.7132V12.7666C2.15325 12.5599 0.833252 11.0799 0.833252 8.95988V4.95992C0.833252 2.66659 2.37325 1.12659 4.66659 1.12659H11.3333C13.6266 1.12659 15.1666 2.66659 15.1666 4.95992V8.95988C15.1666 11.2532 13.6266 12.7932 11.3333 12.7932H8.81991L5.9799 14.6866C5.78657 14.8133 5.55992 14.8799 5.33325 14.8799ZM4.66659 2.11991C2.94659 2.11991 1.83325 3.23325 1.83325 4.95325V8.95329C1.83325 10.6733 2.94659 11.7866 4.66659 11.7866C4.93992 11.7866 5.16659 12.0133 5.16659 12.2866V13.7066C5.16659 13.7933 5.21992 13.8333 5.25326 13.8533C5.28659 13.8733 5.35326 13.8933 5.4266 13.8466L8.39327 11.8733C8.47327 11.82 8.57326 11.7866 8.67326 11.7866H11.3399C13.0599 11.7866 14.1733 10.6733 14.1733 8.95329V4.95325C14.1733 3.23325 13.0599 2.11991 11.3399 2.11991H4.66659Z" fill="#782228"/>
<path d="M7.99996 8.07336C7.72663 8.07336 7.49996 7.8467 7.49996 7.57336V7.43339C7.49996 6.66006 8.06661 6.28005 8.27995 6.13338C8.52661 5.96672 8.60661 5.85339 8.60661 5.68005C8.60661 5.34672 8.33329 5.07336 7.99996 5.07336C7.66663 5.07336 7.39331 5.34672 7.39331 5.68005C7.39331 5.95339 7.16664 6.18005 6.89331 6.18005C6.61998 6.18005 6.39331 5.95339 6.39331 5.68005C6.39331 4.79339 7.11329 4.07336 7.99996 4.07336C8.88663 4.07336 9.60661 4.79339 9.60661 5.68005C9.60661 6.44005 9.04663 6.82004 8.83997 6.96004C8.57997 7.13338 8.49996 7.24672 8.49996 7.43339V7.57336C8.49996 7.85336 8.27329 8.07336 7.99996 8.07336Z" fill="#782228"/>
<path d="M8 9.73328C7.72 9.73328 7.5 9.50661 7.5 9.23328C7.5 8.95994 7.72667 8.73328 8 8.73328C8.27333 8.73328 8.5 8.95994 8.5 9.23328C8.5 9.50661 8.28 9.73328 8 9.73328Z" fill="#292D32"/>
</svg>
