<svg width="20" height="20" viewBox="0 0 20 20" fill="none" xmlns="http://www.w3.org/2000/svg">
<path d="M14.3502 8.12484H7.46693C7.00026 8.12484 6.5336 7.96651 6.16693 7.66651L4.34193 6.20818C3.84193 5.80818 3.55859 5.2165 3.55859 4.58317C3.55859 3.94984 3.84193 3.34983 4.34193 2.95816L6.16693 1.49983C6.5336 1.20816 7.00026 1.0415 7.46693 1.0415H14.3502C15.5002 1.0415 16.4336 1.97484 16.4336 3.12484V6.0415C16.4336 7.1915 15.5002 8.12484 14.3502 8.12484ZM7.46693 2.2915C7.27526 2.2915 7.09193 2.35817 6.95027 2.47484L5.12526 3.93317C4.92526 4.09151 4.80859 4.33317 4.80859 4.58317C4.80859 4.83317 4.92526 5.07484 5.12526 5.23317L6.95027 6.6915C7.10027 6.80817 7.2836 6.87484 7.46693 6.87484H14.3502C14.8086 6.87484 15.1836 6.49984 15.1836 6.0415V3.12484C15.1836 2.6665 14.8086 2.2915 14.3502 2.2915H7.46693Z" fill="#757575"/>
<path d="M12.5507 16.4583H5.66732C4.51732 16.4583 3.58398 15.525 3.58398 14.375V11.4583C3.58398 10.3083 4.51732 9.375 5.66732 9.375H12.5507C13.0257 9.375 13.484 9.53332 13.8507 9.83332L15.6757 11.2917C16.1757 11.6917 16.459 12.2833 16.459 12.9167C16.459 13.55 16.1757 14.15 15.6757 14.5417L13.8507 16C13.484 16.3 13.0257 16.4583 12.5507 16.4583ZM5.66732 10.625C5.20898 10.625 4.83398 11 4.83398 11.4583V14.375C4.83398 14.8333 5.20898 15.2083 5.66732 15.2083H12.5507C12.7423 15.2083 12.9257 15.1417 13.0673 15.025L14.8923 13.5667C15.0923 13.4083 15.209 13.1667 15.209 12.9167C15.209 12.6667 15.0923 12.425 14.8923 12.2667L13.0673 10.8083C12.9173 10.6917 12.734 10.625 12.5507 10.625H5.66732Z" fill="#757575"/>
<path d="M10 10.625C9.65833 10.625 9.375 10.3417 9.375 10V7.5C9.375 7.15833 9.65833 6.875 10 6.875C10.3417 6.875 10.625 7.15833 10.625 7.5V10C10.625 10.3417 10.3417 10.625 10 10.625Z" fill="#757575"/>
<path d="M10 18.9585C9.65833 18.9585 9.375 18.6752 9.375 18.3335V15.8335C9.375 15.4918 9.65833 15.2085 10 15.2085C10.3417 15.2085 10.625 15.4918 10.625 15.8335V18.3335C10.625 18.6752 10.3417 18.9585 10 18.9585Z" fill="#757575"/>
<path d="M12.5 18.9585H7.5C7.15833 18.9585 6.875 18.6752 6.875 18.3335C6.875 17.9918 7.15833 17.7085 7.5 17.7085H12.5C12.8417 17.7085 13.125 17.9918 13.125 18.3335C13.125 18.6752 12.8417 18.9585 12.5 18.9585Z" fill="#757575"/>
</svg>
