<svg width="61" height="51" viewBox="0 0 61 51" fill="none" xmlns="http://www.w3.org/2000/svg">
<path d="M26.0417 13.6951C27.1258 14.5912 28.5096 15.0149 29.8465 15.0149C31.1833 15.0149 32.5671 14.5912 33.6513 13.6951L43.3148 5.70746C44.4618 4.7594 44.4618 3.07211 43.3148 2.12405C42.337 1.31579 40.8331 1.31579 39.8552 2.12405L30.1917 10.1116C30.0283 10.2467 29.6647 10.2467 29.5013 10.1116L19.8377 2.12405C18.8599 1.31579 17.3559 1.31579 16.3781 2.12405C15.2311 3.07211 15.2311 4.7594 16.3781 5.70746L26.0417 13.6951Z" fill="#BAEBE8" stroke="#BAEBE8" stroke-width="2.96429"/>
<g filter="url(#filter0_d_855_2586)">
<path d="M30.4108 35.4329C28.6816 35.4329 26.9525 34.8816 25.6432 33.7994L9.53728 20.4866C8.82091 19.8945 8.82091 18.9144 9.53728 18.3223C10.2536 17.7301 11.4394 17.7301 12.1557 18.3223L28.2617 31.635C29.4474 32.6151 31.3742 32.6151 32.5599 31.635L48.6659 18.3223C49.3822 17.7301 50.5679 17.7301 51.2843 18.3223C52.0007 18.9144 52.0007 19.8945 51.2843 20.4866L35.1784 33.7994C33.8691 34.8816 32.14 35.4329 30.4108 35.4329Z" fill="#BAEBE8"/>
<path d="M30.4108 36.915C28.3822 36.915 26.3068 36.2708 24.699 34.9418L8.593 21.629M30.4108 36.915L8.593 21.629M30.4108 36.915C32.4394 36.915 34.5148 36.2708 36.1226 34.9418L52.2286 21.629C53.6621 20.4441 53.6621 18.3648 52.2286 17.1799C50.9642 16.1348 48.986 16.1348 47.7216 17.1799L31.6156 30.4926C30.9779 31.0197 29.8437 31.0197 29.206 30.4926L13.1 17.1799C11.8356 16.1348 9.8574 16.1348 8.593 17.1799C7.15948 18.3648 7.15948 20.4441 8.593 21.629M30.4108 36.915L8.593 21.629" stroke="#BAEBE8" stroke-width="2.96429"/>
</g>
<defs>
<filter id="filter0_d_855_2586" x="0.107562" y="14.9139" width="60.6071" height="35.3404" filterUnits="userSpaceOnUse" color-interpolation-filters="sRGB">
<feFlood flood-opacity="0" result="BackgroundImageFix"/>
<feColorMatrix in="SourceAlpha" type="matrix" values="0 0 0 0 0 0 0 0 0 0 0 0 0 0 0 0 0 0 127 0" result="hardAlpha"/>
<feOffset dy="5.92857"/>
<feGaussianBlur stdDeviation="2.96429"/>
<feComposite in2="hardAlpha" operator="out"/>
<feColorMatrix type="matrix" values="0 0 0 0 0 0 0 0 0 0 0 0 0 0 0 0 0 0 0.25 0"/>
<feBlend mode="normal" in2="BackgroundImageFix" result="effect1_dropShadow_855_2586"/>
<feBlend mode="normal" in="SourceGraphic" in2="effect1_dropShadow_855_2586" result="shape"/>
</filter>
</defs>
</svg>
