<svg width="16" height="17" viewBox="0 0 16 17" fill="none" xmlns="http://www.w3.org/2000/svg">
<path d="M11.632 15.5647C10.8787 15.5647 10.0854 15.3847 9.26536 15.038C8.46536 14.698 7.6587 14.2313 6.87203 13.6647C6.09203 13.0913 5.3387 12.4513 4.62536 11.7513C3.9187 11.038 3.2787 10.2847 2.71203 9.51132C2.1387 8.71132 1.6787 7.91132 1.35203 7.13799C1.00536 6.31132 0.832031 5.51132 0.832031 4.75799C0.832031 4.23799 0.925365 3.74466 1.10536 3.28466C1.29203 2.81132 1.59203 2.37132 1.9987 1.99132C2.51203 1.48466 3.0987 1.23132 3.72536 1.23132C3.98536 1.23132 4.25203 1.29132 4.4787 1.39799C4.7387 1.51799 4.9587 1.69799 5.1187 1.93799L6.66536 4.11799C6.80536 4.31132 6.91203 4.49799 6.98536 4.68466C7.07203 4.88466 7.1187 5.08466 7.1187 5.27799C7.1187 5.53132 7.04536 5.77799 6.90536 6.01132C6.80536 6.19132 6.65203 6.38466 6.4587 6.57799L6.00536 7.05132C6.01203 7.07132 6.0187 7.08466 6.02536 7.09799C6.10536 7.23799 6.26536 7.47799 6.57203 7.83799C6.8987 8.21132 7.20537 8.55132 7.51203 8.86466C7.90536 9.25132 8.23203 9.55799 8.5387 9.81132C8.9187 10.1313 9.16537 10.2913 9.31203 10.3647L9.2987 10.398L9.78537 9.91799C9.99203 9.71132 10.192 9.55799 10.3854 9.45799C10.752 9.23132 11.2187 9.19132 11.6854 9.38466C11.8587 9.45799 12.0454 9.55799 12.2454 9.69799L14.4587 11.2713C14.7054 11.438 14.8854 11.6513 14.992 11.9047C15.092 12.158 15.1387 12.3913 15.1387 12.6247C15.1387 12.9447 15.0654 13.2647 14.9254 13.5647C14.7854 13.8647 14.612 14.1247 14.392 14.3647C14.012 14.7847 13.5987 15.0847 13.1187 15.278C12.6587 15.4647 12.1587 15.5647 11.632 15.5647ZM3.72536 2.23132C3.3587 2.23132 3.0187 2.39132 2.69203 2.71132C2.38536 2.99799 2.17203 3.31132 2.0387 3.65132C1.8987 3.99799 1.83203 4.36466 1.83203 4.75799C1.83203 5.37799 1.9787 6.05132 2.27203 6.74466C2.57203 7.45132 2.99203 8.18466 3.52536 8.91799C4.0587 9.65132 4.66536 10.3647 5.33203 11.038C5.9987 11.698 6.7187 12.3113 7.4587 12.8513C8.1787 13.378 8.9187 13.8047 9.65203 14.1113C10.792 14.598 11.8587 14.7113 12.7387 14.3447C13.0787 14.2047 13.3787 13.9913 13.652 13.6847C13.8054 13.518 13.9254 13.338 14.0254 13.1247C14.1054 12.958 14.1454 12.7847 14.1454 12.6113C14.1454 12.5047 14.1254 12.398 14.072 12.278C14.052 12.238 14.012 12.1647 13.8854 12.078L11.672 10.5047C11.5387 10.4113 11.4187 10.3447 11.3054 10.298C11.1587 10.238 11.0987 10.178 10.872 10.318C10.7387 10.3847 10.6187 10.4847 10.4854 10.618L9.9787 11.118C9.7187 11.3713 9.3187 11.4313 9.01203 11.318L8.83203 11.238C8.5587 11.0913 8.2387 10.8647 7.88536 10.5647C7.56536 10.2913 7.2187 9.97132 6.7987 9.55799C6.47203 9.22466 6.14536 8.87132 5.80536 8.47799C5.49203 8.11132 5.26536 7.79799 5.12536 7.53799L5.04536 7.33799C5.00536 7.18466 4.99203 7.09799 4.99203 7.00466C4.99203 6.76466 5.0787 6.55132 5.24536 6.38466L5.74536 5.86466C5.8787 5.73132 5.9787 5.60466 6.04536 5.49132C6.0987 5.40466 6.1187 5.33132 6.1187 5.26466C6.1187 5.21132 6.0987 5.13132 6.06536 5.05132C6.0187 4.94466 5.94536 4.82466 5.85203 4.69799L4.30536 2.51132C4.2387 2.41799 4.1587 2.35132 4.0587 2.30466C3.95203 2.25799 3.8387 2.23132 3.72536 2.23132ZM9.2987 10.4047L9.19203 10.858L9.37203 10.3913C9.3387 10.3847 9.31203 10.3913 9.2987 10.4047Z" fill="#92E3A9"/>
<path d="M12.3333 6.89791C12.06 6.89791 11.8333 6.67124 11.8333 6.39791C11.8333 6.15791 11.5933 5.65791 11.1933 5.23124C10.8 4.81124 10.3667 4.56458 10 4.56458C9.72667 4.56458 9.5 4.33791 9.5 4.06458C9.5 3.79124 9.72667 3.56458 10 3.56458C10.6467 3.56458 11.3267 3.91124 11.92 4.54457C12.4733 5.13791 12.8333 5.86458 12.8333 6.39791C12.8333 6.67124 12.6067 6.89791 12.3333 6.89791Z" fill="#92E3A9"/>
<path d="M14.6667 6.89799C14.3933 6.89799 14.1667 6.67132 14.1667 6.39799C14.1667 4.09799 12.3 2.23132 10 2.23132C9.72667 2.23132 9.5 2.00466 9.5 1.73132C9.5 1.45799 9.72667 1.23132 10 1.23132C12.8467 1.23132 15.1667 3.55132 15.1667 6.39799C15.1667 6.67132 14.94 6.89799 14.6667 6.89799Z" fill="#92E3A9"/>
</svg>
