<svg width="26" height="26" viewBox="0 0 26 26" fill="none" xmlns="http://www.w3.org/2000/svg">
<path d="M1 1L3.69838 1.4633L4.94768 16.2285C5.04758 17.4344 6.06336 18.3597 7.28282 18.3558H21.4351C22.5987 18.3584 23.586 17.509 23.7507 16.3662L24.9819 7.92637C25.1194 6.98304 24.4591 6.10791 23.5094 5.97149C23.4264 5.95991 4.13168 5.95348 4.13168 5.95348" stroke="#030303" stroke-linecap="round" stroke-linejoin="round"/>
<path d="M15.7566 11.4915H19.354" stroke="#030303" stroke-linecap="round" stroke-linejoin="round"/>
<path fill-rule="evenodd" clip-rule="evenodd" d="M6.71379 23.5984C7.10427 23.5984 7.41951 23.9124 7.41951 24.2985C7.41951 24.6859 7.10427 24.9999 6.71379 24.9999C6.3233 24.9999 6.00806 24.6859 6.00806 24.2985C6.00806 23.9124 6.3233 23.5984 6.71379 23.5984Z" fill="white" stroke="#030303" stroke-linecap="round" stroke-linejoin="round"/>
<path fill-rule="evenodd" clip-rule="evenodd" d="M21.3476 23.5984C21.7381 23.5984 22.0546 23.9124 22.0546 24.2985C22.0546 24.6859 21.7381 24.9999 21.3476 24.9999C20.9571 24.9999 20.6418 24.6859 20.6418 24.2985C20.6418 23.9124 20.9571 23.5984 21.3476 23.5984Z" fill="white" stroke="#030303" stroke-linecap="round" stroke-linejoin="round"/>
</svg>
