<svg width="21" height="24" viewBox="0 0 16 16" fill="none" xmlns="http://www.w3.org/2000/svg">
<path d="M11.6333 15.1667C10.8799 15.1667 10.0866 14.9867 9.26659 14.64C8.46659 14.3 7.65992 13.8334 6.87325 13.2667C6.09325 12.6934 5.33992 12.0534 4.62659 11.3534C3.91992 10.64 3.27992 9.88671 2.71325 9.11337C2.13992 8.31337 1.67992 7.51337 1.35325 6.74004C1.00659 5.91337 0.833252 5.11337 0.833252 4.36004C0.833252 3.84004 0.926585 3.34671 1.10659 2.88671C1.29325 2.41337 1.59325 1.97337 1.99992 1.59337C2.51325 1.08671 3.09992 0.833374 3.72659 0.833374C3.98659 0.833374 4.25325 0.893374 4.47992 1.00004C4.73992 1.12004 4.95992 1.30004 5.11992 1.54004L6.66659 3.72004C6.80659 3.91337 6.91325 4.10004 6.98659 4.28671C7.07325 4.48671 7.11992 4.68671 7.11992 4.88004C7.11992 5.13337 7.04659 5.38004 6.90659 5.61337C6.80659 5.79337 6.65325 5.98671 6.45992 6.18004L6.00659 6.65337C6.01325 6.67337 6.01992 6.68671 6.02659 6.70004C6.10659 6.84004 6.26659 7.08004 6.57325 7.44004C6.89992 7.81337 7.20659 8.15337 7.51325 8.46671C7.90659 8.85337 8.23325 9.16004 8.53992 9.41337C8.91992 9.73337 9.16659 9.89338 9.31325 9.96671L9.29992 10L9.78659 9.52004C9.99325 9.31337 10.1933 9.16004 10.3866 9.06004C10.7533 8.83337 11.2199 8.79337 11.6866 8.98671C11.8599 9.06004 12.0466 9.16004 12.2466 9.30004L14.4599 10.8734C14.7066 11.04 14.8866 11.2534 14.9933 11.5067C15.0933 11.76 15.1399 11.9934 15.1399 12.2267C15.1399 12.5467 15.0666 12.8667 14.9266 13.1667C14.7866 13.4667 14.6133 13.7267 14.3933 13.9667C14.0133 14.3867 13.5999 14.6867 13.1199 14.88C12.6599 15.0667 12.1599 15.1667 11.6333 15.1667ZM3.72659 1.83337C3.35992 1.83337 3.01992 1.99337 2.69325 2.31337C2.38659 2.60004 2.17325 2.91337 2.03992 3.25337C1.89992 3.60004 1.83325 3.96671 1.83325 4.36004C1.83325 4.98004 1.97992 5.65338 2.27325 6.34671C2.57325 7.05338 2.99325 7.78671 3.52659 8.52004C4.05992 9.25338 4.66659 9.96671 5.33325 10.64C5.99992 11.3 6.71992 11.9134 7.45992 12.4534C8.17992 12.98 8.91992 13.4067 9.65325 13.7134C10.7933 14.2 11.8599 14.3134 12.7399 13.9467C13.0799 13.8067 13.3799 13.5934 13.6533 13.2867C13.8066 13.12 13.9266 12.94 14.0266 12.7267C14.1066 12.56 14.1466 12.3867 14.1466 12.2134C14.1466 12.1067 14.1266 12 14.0733 11.88C14.0533 11.84 14.0133 11.7667 13.8866 11.68L11.6733 10.1067C11.5399 10.0134 11.4199 9.94671 11.3066 9.90004C11.1599 9.84004 11.0999 9.78004 10.8733 9.92004C10.7399 9.98671 10.6199 10.0867 10.4866 10.22L9.97992 10.72C9.71992 10.9734 9.31992 11.0334 9.01325 10.92L8.83325 10.84C8.55992 10.6934 8.23992 10.4667 7.88659 10.1667C7.56659 9.89338 7.21992 9.57337 6.79992 9.16004C6.47325 8.82671 6.14659 8.47337 5.80659 8.08004C5.49325 7.71337 5.26659 7.40004 5.12659 7.14004L5.04659 6.94004C5.00659 6.78671 4.99325 6.70004 4.99325 6.60671C4.99325 6.36671 5.07992 6.15337 5.24659 5.98671L5.74659 5.46671C5.87992 5.33337 5.97992 5.20671 6.04659 5.09337C6.09992 5.00671 6.11992 4.93337 6.11992 4.86671C6.11992 4.81337 6.09992 4.73337 6.06659 4.65337C6.01992 4.54671 5.94659 4.42671 5.85325 4.30004L4.30659 2.11337C4.23992 2.02004 4.15992 1.95337 4.05992 1.90671C3.95325 1.86004 3.83992 1.83337 3.72659 1.83337ZM9.29992 10.0067L9.19325 10.46L9.37325 9.99337C9.33992 9.98671 9.31325 9.99337 9.29992 10.0067Z" fill="#782228"/>
<path d="M12.3333 6.50008C12.06 6.50008 11.8333 6.27341 11.8333 6.00008C11.8333 5.76008 11.5933 5.26008 11.1933 4.83341C10.8 4.41341 10.3667 4.16675 10 4.16675C9.72667 4.16675 9.5 3.94008 9.5 3.66675C9.5 3.39341 9.72667 3.16675 10 3.16675C10.6467 3.16675 11.3267 3.51341 11.92 4.14675C12.4733 4.74008 12.8333 5.46675 12.8333 6.00008C12.8333 6.27341 12.6067 6.50008 12.3333 6.50008Z" fill="#782228"/>
<path d="M14.6667 6.50004C14.3933 6.50004 14.1667 6.27337 14.1667 6.00004C14.1667 3.70004 12.3 1.83337 10 1.83337C9.72667 1.83337 9.5 1.60671 9.5 1.33337C9.5 1.06004 9.72667 0.833374 10 0.833374C12.8467 0.833374 15.1667 3.15337 15.1667 6.00004C15.1667 6.27337 14.94 6.50004 14.6667 6.50004Z" fill="#292D32"/>
</svg>
