<svg width="20" height="20" viewBox="0 0 20 20" fill="none" xmlns="http://www.w3.org/2000/svg">
<path d="M14.541 18.9582C13.5993 18.9582 12.6077 18.7332 11.5827 18.2998C10.5827 17.8748 9.57435 17.2915 8.59102 16.5832C7.61602 15.8665 6.67435 15.0665 5.78268 14.1915C4.89935 13.2998 4.09935 12.3582 3.39102 11.3915C2.67435 10.3915 2.09935 9.3915 1.69102 8.42484C1.25768 7.3915 1.04102 6.3915 1.04102 5.44984C1.04102 4.79984 1.15768 4.18317 1.38268 3.60817C1.61602 3.0165 1.99102 2.4665 2.49935 1.9915C3.14102 1.35817 3.87435 1.0415 4.65768 1.0415C4.98268 1.0415 5.31602 1.1165 5.59935 1.24984C5.92435 1.39984 6.19935 1.62484 6.39935 1.92484L8.33268 4.64984C8.50768 4.8915 8.64102 5.12484 8.73268 5.35817C8.84102 5.60817 8.89935 5.85817 8.89935 6.09984C8.89935 6.4165 8.80768 6.72484 8.63268 7.0165C8.50768 7.2415 8.31602 7.48317 8.07435 7.72484L7.50768 8.3165C7.51602 8.3415 7.52435 8.35817 7.53268 8.37484C7.63268 8.54984 7.83268 8.84984 8.21602 9.29984C8.62435 9.7665 9.00768 10.1915 9.39102 10.5832C9.88268 11.0665 10.291 11.4498 10.6743 11.7665C11.1494 12.1665 11.4577 12.3665 11.641 12.4582L11.6243 12.4998L12.2327 11.8998C12.491 11.6415 12.741 11.4498 12.9827 11.3248C13.441 11.0415 14.0244 10.9915 14.6077 11.2332C14.8244 11.3248 15.0577 11.4498 15.3077 11.6248L18.0744 13.5915C18.3827 13.7998 18.6077 14.0665 18.741 14.3832C18.866 14.6998 18.9243 14.9915 18.9243 15.2832C18.9243 15.6832 18.8327 16.0832 18.6577 16.4582C18.4827 16.8332 18.266 17.1582 17.991 17.4582C17.516 17.9832 16.9993 18.3582 16.3994 18.5998C15.8244 18.8332 15.1994 18.9582 14.541 18.9582ZM4.65768 2.2915C4.19935 2.2915 3.77435 2.4915 3.36602 2.8915C2.98268 3.24984 2.71602 3.6415 2.54935 4.0665C2.37435 4.49984 2.29102 4.95817 2.29102 5.44984C2.29102 6.22484 2.47435 7.0665 2.84102 7.93317C3.21602 8.8165 3.74102 9.73317 4.40768 10.6498C5.07435 11.5665 5.83268 12.4582 6.66602 13.2998C7.49935 14.1248 8.39935 14.8915 9.32435 15.5665C10.2243 16.2248 11.1493 16.7582 12.066 17.1415C13.491 17.7498 14.8244 17.8915 15.9243 17.4332C16.3493 17.2582 16.7243 16.9915 17.066 16.6082C17.2577 16.3998 17.4077 16.1748 17.5327 15.9082C17.6327 15.6998 17.6827 15.4832 17.6827 15.2665C17.6827 15.1332 17.6577 14.9998 17.591 14.8498C17.566 14.7998 17.516 14.7082 17.3577 14.5998L14.591 12.6332C14.4243 12.5165 14.2743 12.4332 14.1327 12.3748C13.9493 12.2998 13.8743 12.2248 13.591 12.3998C13.4243 12.4832 13.2743 12.6082 13.1077 12.7748L12.4743 13.3998C12.1494 13.7165 11.6494 13.7915 11.266 13.6498L11.041 13.5498C10.6993 13.3665 10.2993 13.0832 9.85768 12.7082C9.45768 12.3665 9.02435 11.9665 8.49935 11.4498C8.09102 11.0332 7.68268 10.5915 7.25768 10.0998C6.86602 9.6415 6.58268 9.24984 6.40768 8.92484L6.30768 8.67484C6.25768 8.48317 6.24102 8.37484 6.24102 8.25817C6.24102 7.95817 6.34935 7.6915 6.55768 7.48317L7.18268 6.83317C7.34935 6.6665 7.47435 6.50817 7.55768 6.3665C7.62435 6.25817 7.64935 6.1665 7.64935 6.08317C7.64935 6.0165 7.62435 5.9165 7.58268 5.8165C7.52435 5.68317 7.43268 5.53317 7.31602 5.37484L5.38268 2.6415C5.29935 2.52484 5.19935 2.4415 5.07435 2.38317C4.94102 2.32484 4.79935 2.2915 4.65768 2.2915ZM11.6243 12.5082L11.491 13.0748L11.716 12.4915C11.6743 12.4832 11.641 12.4915 11.6243 12.5082Z" fill="#757575"/>
<path d="M15.4167 8.12516C15.075 8.12516 14.7917 7.84183 14.7917 7.50016C14.7917 7.20016 14.4917 6.57516 13.9917 6.04183C13.5 5.51683 12.9583 5.2085 12.5 5.2085C12.1583 5.2085 11.875 4.92516 11.875 4.5835C11.875 4.24183 12.1583 3.9585 12.5 3.9585C13.3083 3.9585 14.1583 4.39183 14.9 5.1835C15.5917 5.92516 16.0417 6.8335 16.0417 7.50016C16.0417 7.84183 15.7583 8.12516 15.4167 8.12516Z" fill="#757575"/>
<path d="M18.3333 8.12484C17.9917 8.12484 17.7083 7.8415 17.7083 7.49984C17.7083 4.62484 15.375 2.2915 12.5 2.2915C12.1583 2.2915 11.875 2.00817 11.875 1.6665C11.875 1.32484 12.1583 1.0415 12.5 1.0415C16.0583 1.0415 18.9583 3.9415 18.9583 7.49984C18.9583 7.8415 18.675 8.12484 18.3333 8.12484Z" fill="#757575"/>
</svg>
