<svg width="32" height="32" viewBox="0 0 32 32" fill="none" xmlns="http://www.w3.org/2000/svg">
<path d="M22.4935 25.4134H11.8268C7.60016 25.4134 4.16016 21.9734 4.16016 17.7467C4.16016 13.5201 7.60016 10.0801 11.8268 10.0801H26.4935C27.0402 10.0801 27.4935 10.5334 27.4935 11.0801C27.4935 11.6267 27.0402 12.0801 26.4935 12.0801H11.8268C8.70682 12.0801 6.16016 14.6267 6.16016 17.7467C6.16016 20.8667 8.70682 23.4134 11.8268 23.4134H22.4935C23.0402 23.4134 23.4935 23.8667 23.4935 24.4134C23.4935 24.9601 23.0535 25.4134 22.4935 25.4134Z" fill="#292D32"/>
<path d="M23.4264 15.4132C23.173 15.4132 22.9197 15.3198 22.7197 15.1198C22.333 14.7332 22.333 14.0932 22.7197 13.7065L25.4264 10.9998L22.7197 8.29318C22.333 7.90651 22.333 7.26651 22.7197 6.87984C23.1064 6.49318 23.7464 6.49318 24.133 6.87984L27.5464 10.2932C27.933 10.6798 27.933 11.3198 27.5464 11.7065L24.133 15.1198C23.933 15.3198 23.6797 15.4132 23.4264 15.4132Z" fill="#292D32"/>
</svg>
