<svg width="32" height="32" viewBox="0 0 32 32" fill="none" xmlns="http://www.w3.org/2000/svg">
<path d="M20.3194 29.6933H20.146C14.226 29.6933 11.3727 27.36 10.8794 22.1333C10.826 21.5866 11.226 21.0933 11.786 21.04C12.3327 20.9866 12.826 21.4 12.8794 21.9466C13.266 26.1333 15.2394 27.6933 20.1594 27.6933H20.3327C25.7594 27.6933 27.6794 25.7733 27.6794 20.3466V11.6533C27.6794 6.22664 25.7594 4.30664 20.3327 4.30664H20.1594C15.2127 4.30664 13.2394 5.89331 12.8794 10.16C12.8127 10.7066 12.3594 11.12 11.786 11.0666C11.226 11.0266 10.826 10.5333 10.866 9.98664C11.3194 4.67997 14.186 2.30664 20.146 2.30664H20.3194C26.866 2.30664 29.666 5.10664 29.666 11.6533V20.3466C29.666 26.8933 26.866 29.6933 20.3194 29.6933Z" fill="#292D32"/>
<path d="M19.8393 17H2.66602C2.11935 17 1.66602 16.5467 1.66602 16C1.66602 15.4533 2.11935 15 2.66602 15H19.8393C20.386 15 20.8393 15.4533 20.8393 16C20.8393 16.5467 20.3993 17 19.8393 17Z" fill="#292D32"/>
<path d="M16.8658 21.4666C16.6125 21.4666 16.3591 21.3733 16.1591 21.1733C15.7725 20.7866 15.7725 20.1466 16.1591 19.76L19.9191 16L16.1591 12.24C15.7725 11.8533 15.7725 11.2133 16.1591 10.8266C16.5458 10.44 17.1858 10.44 17.5725 10.8266L22.0391 15.2933C22.4258 15.68 22.4258 16.32 22.0391 16.7066L17.5725 21.1733C17.3725 21.3733 17.1191 21.4666 16.8658 21.4666Z" fill="#292D32"/>
</svg>
