<svg width="32" height="32" viewBox="0 0 32 32" fill="none" xmlns="http://www.w3.org/2000/svg">
<path d="M13.3193 30.3733C12.5193 30.3733 11.7593 29.9733 11.2393 29.2667L9.63936 27.1333C9.63936 27.1467 9.57269 27.1066 9.54602 27.1066H9.05269C4.49269 27.1066 1.66602 25.8667 1.66602 19.72V14.3867C1.66602 8.77334 5.0927 7.30668 7.9727 7.05334C8.2927 7.01334 8.66603 7 9.05269 7H17.586C22.4127 7 24.9727 9.56001 24.9727 14.3867V19.72C24.9727 20.1067 24.9593 20.48 24.906 20.84C24.666 23.68 23.1994 27.1066 17.586 27.1066H17.0527L15.3993 29.2667C14.8793 29.9733 14.1193 30.3733 13.3193 30.3733ZM9.05269 9C8.74603 9 8.45269 9.01333 8.17269 9.04C5.07936 9.30666 3.66602 11 3.66602 14.3867V19.72C3.66602 24.2933 5.07936 25.1066 9.05269 25.1066H9.58602C10.186 25.1066 10.866 25.44 11.2393 25.92L12.8394 28.0666C13.1327 28.4667 13.506 28.4667 13.7994 28.0666L15.3993 25.9333C15.786 25.4133 16.3994 25.1066 17.0527 25.1066H17.586C20.9727 25.1066 22.666 23.68 22.9194 20.64C22.9594 20.32 22.9727 20.0267 22.9727 19.72V14.3867C22.9727 10.6667 21.306 9 17.586 9H9.05269Z" fill="#292D32"/>
<path d="M13.3197 18.9201C12.573 18.9201 11.9863 18.3201 11.9863 17.5868C11.9863 16.8534 12.5863 16.2534 13.3197 16.2534C14.053 16.2534 14.653 16.8534 14.653 17.5868C14.653 18.3201 14.0663 18.9201 13.3197 18.9201Z" fill="#292D32"/>
<path d="M17.5872 18.9201C16.8406 18.9201 16.2539 18.3201 16.2539 17.5868C16.2539 16.8534 16.8539 16.2534 17.5872 16.2534C18.3206 16.2534 18.9206 16.8534 18.9206 17.5868C18.9206 18.3201 18.3206 18.9201 17.5872 18.9201Z" fill="#292D32"/>
<path d="M9.06576 18.9201C8.31909 18.9201 7.73242 18.3201 7.73242 17.5868C7.73242 16.8534 8.33242 16.2534 9.06576 16.2534C9.79909 16.2534 10.3991 16.8534 10.3991 17.5868C10.3991 18.3201 9.79909 18.9201 9.06576 18.9201Z" fill="#292D32"/>
<path d="M23.9195 21.7198C23.6529 21.7198 23.3862 21.6132 23.1995 21.4132C22.9862 21.1998 22.8929 20.8932 22.9329 20.5999C22.9729 20.3199 22.9862 20.0265 22.9862 19.7198V14.3865C22.9862 10.6665 21.3195 8.99984 17.5995 8.99984H9.06618C8.75951 8.99984 8.46621 9.01317 8.18621 9.03984C7.89288 9.07984 7.58619 8.97315 7.37286 8.77315C7.15953 8.55982 7.03951 8.26652 7.06618 7.97319C7.30618 5.09319 8.78618 1.6665 14.3995 1.6665H22.9329C27.7595 1.6665 30.3195 4.22652 30.3195 9.05318V14.3865C30.3195 19.9998 26.8929 21.4665 24.0129 21.7198C23.9729 21.7198 23.9462 21.7198 23.9195 21.7198ZM9.22621 6.99984H17.5862C22.4129 6.99984 24.9729 9.55985 24.9729 14.3865V19.5465C27.2395 18.9865 28.3062 17.3198 28.3062 14.3865V9.05318C28.3062 5.33318 26.6395 3.6665 22.9195 3.6665H14.3862C11.4529 3.6665 9.79954 4.73317 9.22621 6.99984Z" fill="#292D32"/>
</svg>
