<svg width="32" height="32" viewBox="0 0 32 32" fill="none" xmlns="http://www.w3.org/2000/svg">
<path d="M16.0007 24.6667C12.8807 24.6667 10.334 22.12 10.334 19C10.334 18.4533 10.7873 18 11.334 18C11.8807 18 12.334 18.4533 12.334 19C12.334 21.0267 13.974 22.6667 16.0007 22.6667C18.0273 22.6667 19.6673 21.0267 19.6673 19C19.6673 18.4533 20.1207 18 20.6673 18C21.214 18 21.6673 18.4533 21.6673 19C21.6673 22.12 19.1207 24.6667 16.0007 24.6667Z" fill="#292D32"/>
<path d="M6.9205 8.50659C6.66716 8.50659 6.40049 8.39992 6.21383 8.21325C5.82716 7.82659 5.82716 7.18659 6.21383 6.79992L11.0538 1.95992C11.4405 1.57326 12.0805 1.57326 12.4672 1.95992C12.8538 2.34659 12.8538 2.98659 12.4672 3.37326L7.62716 8.21325C7.42716 8.39992 7.17383 8.50659 6.9205 8.50659Z" fill="#292D32"/>
<path d="M25.0808 8.50659C24.8275 8.50659 24.5741 8.41326 24.3741 8.21325L19.5341 3.37326C19.1475 2.98659 19.1475 2.34659 19.5341 1.95992C19.9208 1.57326 20.5608 1.57326 20.9475 1.95992L25.7875 6.79992C26.1741 7.18659 26.1741 7.82659 25.7875 8.21325C25.6008 8.39992 25.3341 8.50659 25.0808 8.50659Z" fill="#292D32"/>
<path d="M26.946 14.1331C26.8527 14.1331 26.7593 14.1331 26.666 14.1331H26.3594H5.33268C4.39935 14.1465 3.33268 14.1465 2.55935 13.3731C1.94602 12.7731 1.66602 11.8398 1.66602 10.4665C1.66602 6.7998 4.34602 6.7998 5.62602 6.7998H26.3727C27.6527 6.7998 30.3327 6.7998 30.3327 10.4665C30.3327 11.8531 30.0527 12.7731 29.4394 13.3731C28.746 14.0665 27.8127 14.1331 26.946 14.1331ZM5.62602 12.1331H26.6793C27.2794 12.1465 27.8393 12.1465 28.026 11.9598C28.1194 11.8665 28.3193 11.5465 28.3193 10.4665C28.3193 8.9598 27.946 8.7998 26.3594 8.7998H5.62602C4.03935 8.7998 3.66602 8.9598 3.66602 10.4665C3.66602 11.5465 3.87935 11.8665 3.95935 11.9598C4.14602 12.1331 4.71935 12.1331 5.30602 12.1331H5.62602Z" fill="#292D32"/>
<path d="M19.8537 30.3335H11.8137C7.04032 30.3335 5.97366 27.4935 5.56032 25.0268L3.68032 13.4935C3.58699 12.9468 3.96032 12.4402 4.50699 12.3468C5.04032 12.2535 5.56032 12.6268 5.65366 13.1735L7.53366 24.6935C7.92032 27.0535 8.72032 28.3335 11.8137 28.3335H19.8537C23.2803 28.3335 23.667 27.1335 24.107 24.8135L26.347 13.1468C26.4537 12.6002 26.9737 12.2402 27.5203 12.3602C28.067 12.4668 28.4137 12.9868 28.307 13.5335L26.067 25.2002C25.547 27.9068 24.6803 30.3335 19.8537 30.3335Z" fill="#292D32"/>
</svg>
