<svg width="32" height="32" viewBox="0 0 32 32" fill="none" xmlns="http://www.w3.org/2000/svg">
<path d="M15.9993 30.3332C8.09268 30.3332 1.66602 23.9065 1.66602 15.9998C1.66602 8.09317 8.09268 1.6665 15.9993 1.6665C23.906 1.6665 30.3327 8.09317 30.3327 15.9998C30.3327 16.5465 29.8794 16.9998 29.3327 16.9998C28.786 16.9998 28.3327 16.5465 28.3327 15.9998C28.3327 9.19984 22.7993 3.6665 15.9993 3.6665C9.19935 3.6665 3.66602 9.19984 3.66602 15.9998C3.66602 22.7998 9.19935 28.3332 15.9993 28.3332C16.546 28.3332 16.9993 28.7865 16.9993 29.3332C16.9993 29.8798 16.546 30.3332 15.9993 30.3332Z" fill="#292D32"/>
<path d="M12.0003 29H10.667C10.1203 29 9.66698 28.5467 9.66698 28C9.66698 27.4533 10.0936 27.0133 10.6403 27C8.54698 19.8533 8.54698 12.1467 10.6403 5C10.107 4.98667 9.66698 4.54667 9.66698 4C9.66698 3.45333 10.1203 3 10.667 3H12.0003C12.3203 3 12.627 3.16 12.8137 3.41333C13.0003 3.68 13.0537 4.01332 12.947 4.31999C10.4403 11.8533 10.4403 20.16 12.947 27.6934C13.0537 28 13.0003 28.3334 12.8137 28.6C12.627 28.8667 12.3203 29 12.0003 29Z" fill="#292D32"/>
<path d="M21.9466 17C21.3999 17 20.9466 16.5466 20.9466 16C20.9466 12.0266 20.3066 8.09327 19.0533 4.31994C18.8799 3.79994 19.1599 3.22659 19.6799 3.05326C20.1999 2.87992 20.7733 3.15996 20.9466 3.67996C22.2666 7.6533 22.9466 11.8 22.9466 16C22.9466 16.5466 22.4933 17 21.9466 17Z" fill="#292D32"/>
<path d="M16 22.9468C12.2667 22.9468 8.57333 22.4134 5 21.3601C4.98667 21.8934 4.54667 22.3334 4 22.3334C3.45333 22.3334 3 21.8801 3 21.3334V20.0001C3 19.6801 3.16 19.3734 3.41333 19.1868C3.68 19.0001 4.01334 18.9467 4.32001 19.0534C8.09334 20.3067 12.0267 20.9468 16 20.9468C16.5467 20.9468 17 21.4001 17 21.9468C17 22.4934 16.5467 22.9468 16 22.9468Z" fill="#292D32"/>
<path d="M27.9996 13.0002C27.8929 13.0002 27.7863 12.9869 27.6796 12.9469C20.1462 10.4402 11.8396 10.4402 4.30625 12.9469C3.78625 13.1202 3.21292 12.8402 3.03959 12.3202C2.86625 11.8002 3.14626 11.2268 3.66626 11.0535C11.6129 8.40014 20.3596 8.40014 28.2929 11.0535C28.8129 11.2268 29.0929 11.8002 28.9196 12.3202C28.8129 12.7335 28.4129 13.0002 27.9996 13.0002Z" fill="#292D32"/>
<path d="M24.2667 29.5334C21.36 29.5334 19 27.1733 19 24.2667C19 21.36 21.36 19 24.2667 19C27.1733 19 29.5333 21.36 29.5333 24.2667C29.5333 27.1733 27.1733 29.5334 24.2667 29.5334ZM24.2667 21C22.4667 21 21 22.4667 21 24.2667C21 26.0667 22.4667 27.5334 24.2667 27.5334C26.0667 27.5334 27.5333 26.0667 27.5333 24.2667C27.5333 22.4667 26.0667 21 24.2667 21Z" fill="#292D32"/>
<path d="M29.3339 30.3335C29.0806 30.3335 28.8272 30.2402 28.6272 30.0402L27.2939 28.7068C26.9072 28.3202 26.9072 27.6801 27.2939 27.2934C27.6806 26.9068 28.3206 26.9068 28.7072 27.2934L30.0406 28.6268C30.4272 29.0134 30.4272 29.6535 30.0406 30.0402C29.8406 30.2402 29.5872 30.3335 29.3339 30.3335Z" fill="#292D32"/>
</svg>
