<svg width="16" height="17" viewBox="0 0 16 17" fill="none" xmlns="http://www.w3.org/2000/svg">
<path d="M11.332 14.5647H4.66536C4.39203 14.5647 4.16536 14.338 4.16536 14.0647C4.16536 13.7913 4.39203 13.5647 4.66536 13.5647H11.332C13.2387 13.5647 14.1654 12.638 14.1654 10.7313V6.06466C14.1654 4.15799 13.2387 3.23132 11.332 3.23132H4.66536C2.7587 3.23132 1.83203 4.15799 1.83203 6.06466C1.83203 6.33799 1.60536 6.56466 1.33203 6.56466C1.0587 6.56466 0.832031 6.33799 0.832031 6.06466C0.832031 3.63132 2.23203 2.23132 4.66536 2.23132H11.332C13.7654 2.23132 15.1654 3.63132 15.1654 6.06466V10.7313C15.1654 13.1647 13.7654 14.5647 11.332 14.5647Z" fill="#92E3A9"/>
<path d="M7.9992 8.97793C7.4392 8.97793 6.87254 8.8046 6.4392 8.45126L4.35253 6.7846C4.1392 6.61126 4.0992 6.29793 4.27254 6.08459C4.44587 5.87126 4.7592 5.83126 4.97253 6.0046L7.0592 7.67126C7.56587 8.07793 8.42586 8.07793 8.93253 7.67126L11.0192 6.0046C11.2325 5.83126 11.5525 5.86459 11.7192 6.08459C11.8925 6.29793 11.8592 6.61793 11.6392 6.7846L9.55253 8.45126C9.12586 8.8046 8.5592 8.97793 7.9992 8.97793Z" fill="#92E3A9"/>
<path d="M5.33203 11.8979H1.33203C1.0587 11.8979 0.832031 11.6713 0.832031 11.3979C0.832031 11.1246 1.0587 10.8979 1.33203 10.8979H5.33203C5.60536 10.8979 5.83203 11.1246 5.83203 11.3979C5.83203 11.6713 5.60536 11.8979 5.33203 11.8979Z" fill="#92E3A9"/>
<path d="M3.33203 9.23132H1.33203C1.0587 9.23132 0.832031 9.00466 0.832031 8.73132C0.832031 8.45799 1.0587 8.23132 1.33203 8.23132H3.33203C3.60536 8.23132 3.83203 8.45799 3.83203 8.73132C3.83203 9.00466 3.60536 9.23132 3.33203 9.23132Z" fill="#92E3A9"/>
</svg>
