<svg width="32" height="32" viewBox="0 0 32 32" fill="none" xmlns="http://www.w3.org/2000/svg">
<path d="M15.9998 28.8666C15.5865 28.8666 15.1865 28.8133 14.8532 28.6933C9.75984 26.9466 1.6665 20.7466 1.6665 11.5866C1.6665 6.91997 5.43984 3.1333 10.0798 3.1333C12.3332 3.1333 14.4398 4.0133 15.9998 5.58663C17.5598 4.0133 19.6665 3.1333 21.9198 3.1333C26.5598 3.1333 30.3332 6.9333 30.3332 11.5866C30.3332 20.76 22.2398 26.9466 17.1465 28.6933C16.8132 28.8133 16.4132 28.8666 15.9998 28.8666ZM10.0798 5.1333C6.5465 5.1333 3.6665 8.02663 3.6665 11.5866C3.6665 20.6933 12.4265 25.76 15.5065 26.8133C15.7465 26.8933 16.2665 26.8933 16.5065 26.8133C19.5732 25.76 28.3465 20.7066 28.3465 11.5866C28.3465 8.02663 25.4665 5.1333 21.9332 5.1333C19.9065 5.1333 18.0265 6.07997 16.8132 7.71997C16.4398 8.22663 15.5865 8.22663 15.2132 7.71997C13.9732 6.06663 12.1065 5.1333 10.0798 5.1333Z" fill="white"/>
</svg>
