<svg width="213" height="69" viewBox="0 0 213 69" fill="none" xmlns="http://www.w3.org/2000/svg">
<path fill-rule="evenodd" clip-rule="evenodd" d="M84.9754 16.6525C84.9754 16.6543 84.9739 16.6558 84.9721 16.6558C84.9702 16.6558 84.9687 16.6574 84.9688 16.6592L84.9703 17.334C84.9703 17.3354 84.9714 17.3365 84.9728 17.3365C84.9743 17.3365 84.9754 17.3377 84.9754 17.3391V31.0243C84.9754 31.2123 85.1278 31.3646 85.3158 31.3646C85.5038 31.3646 85.6561 31.2123 85.6561 31.0243V18.4217C85.6561 17.8212 86.1423 17.3339 86.7428 17.3326L101.579 17.2995C101.767 17.299 101.919 17.1463 101.919 16.9584C101.918 16.7704 101.766 16.6183 101.578 16.6188L86.7477 16.6519C86.1452 16.6532 85.6561 16.1652 85.6561 15.5628V2.34031C85.6561 2.15233 85.5038 1.99995 85.3158 1.99995C85.1278 1.99995 84.9754 2.15233 84.9754 2.34031V16.6525ZM102.265 31.3646C102.077 31.3646 101.925 31.2123 101.925 31.0243V2.34031C101.925 2.15233 102.077 1.99995 102.265 1.99995C102.453 1.99995 102.606 2.15233 102.606 2.3403V31.0243C102.606 31.2123 102.453 31.3646 102.265 31.3646ZM110.427 2.03796C110.239 2.03796 110.086 2.19034 110.086 2.37831V31.3679C110.086 31.3871 110.102 31.4026 110.121 31.4026H110.137C110.148 31.4026 110.156 31.4109 110.156 31.4212C110.156 31.4314 110.164 31.4397 110.174 31.4397L126.765 31.4027C126.953 31.4022 127.105 31.2495 127.105 31.0615C127.104 30.8736 126.951 30.7215 126.763 30.722L111.859 30.7552C111.256 30.7566 110.767 30.2686 110.767 29.6661V2.37831C110.767 2.19034 110.615 2.03796 110.427 2.03796Z" fill="white"/>
<path d="M86.7477 16.6519L86.7515 18.3536L86.7477 16.6519ZM101.578 16.6188L101.574 14.917L101.578 16.6188ZM101.579 17.2995L101.576 15.5977L101.579 17.2995ZM86.7428 17.3326L86.7466 19.0343L86.7428 17.3326ZM84.9703 17.334L86.672 17.3302L84.9703 17.334ZM86.672 17.3302L86.6705 16.6554L83.267 16.663L83.2685 17.3378L86.672 17.3302ZM83.2737 17.3391V31.0243H86.6772V17.3391H83.2737ZM87.3579 31.0243V18.4217H83.9544V31.0243H87.3579ZM101.576 15.5977L86.739 15.6308L86.7466 19.0343L101.583 19.0012L101.576 15.5977ZM86.7515 18.3536L101.582 18.3205L101.574 14.917L86.7439 14.9501L86.7515 18.3536ZM87.3579 15.5628V2.34031H83.9544V15.5628H87.3579ZM83.2737 2.34031V16.6525H86.6772V2.34031H83.2737ZM100.223 2.34031V31.0243L103.627 31.0243V2.34031L100.223 2.34031ZM104.307 31.0243V2.3403L100.904 2.3403V31.0243L104.307 31.0243ZM111.788 31.3679V2.37831H108.385V31.3679H111.788ZM110.137 29.7009H110.121V33.1044H110.137V29.7009ZM126.761 29.7009L110.171 29.738L110.178 33.1414L126.769 33.1044L126.761 29.7009ZM111.863 32.457L126.767 32.4237L126.76 29.0202L111.855 29.0535L111.863 32.457ZM109.065 2.37831V29.6661H112.469V2.37831H109.065ZM112.469 2.37831C112.469 1.25049 111.555 0.336206 110.427 0.336206V3.73971C109.675 3.73971 109.065 3.13019 109.065 2.37831H112.469ZM111.855 29.0535C112.194 29.0527 112.469 29.3272 112.469 29.6661H109.065C109.065 31.2099 110.319 32.4604 111.863 32.457L111.855 29.0535ZM128.806 31.0577C128.804 29.9299 127.887 29.0177 126.76 29.0202L126.767 32.4237C126.015 32.4254 125.404 31.8172 125.403 31.0653L128.806 31.0577ZM126.769 33.1044C127.897 33.1019 128.809 32.1856 128.806 31.0577L125.403 31.0653C125.401 30.3135 126.009 29.7026 126.761 29.7009L126.769 33.1044ZM108.454 31.4249C108.456 32.3751 109.228 33.1436 110.178 33.1414L110.171 29.738C111.1 29.7359 111.856 30.4877 111.858 31.4174L108.454 31.4249ZM110.137 33.1044C109.209 33.1044 108.456 32.3531 108.454 31.4249L111.858 31.4174C111.856 30.4688 111.086 29.7009 110.137 29.7009V33.1044ZM111.788 2.37831C111.788 3.13019 111.179 3.73971 110.427 3.73971V0.336206C109.299 0.336206 108.385 1.25048 108.385 2.37831H111.788ZM108.385 31.3679C108.385 32.3269 109.162 33.1044 110.121 33.1044V29.7009C111.042 29.7009 111.788 30.4472 111.788 31.3679H108.385ZM100.904 31.0243C100.904 30.2724 101.513 29.6629 102.265 29.6629V33.0664C103.393 33.0664 104.307 32.1521 104.307 31.0243L100.904 31.0243ZM102.265 3.70171C101.513 3.70171 100.904 3.09219 100.904 2.3403L104.307 2.3403C104.307 1.21247 103.393 0.298204 102.265 0.298204V3.70171ZM100.223 31.0243C100.223 32.1521 101.137 33.0664 102.265 33.0664V29.6629C103.017 29.6629 103.627 30.2724 103.627 31.0243L100.223 31.0243ZM103.627 2.34031C103.627 3.09219 103.017 3.70171 102.265 3.70171V0.298204C101.137 0.298204 100.223 1.21248 100.223 2.34031L103.627 2.34031ZM85.3158 0.298204C84.188 0.298204 83.2737 1.21248 83.2737 2.34031H86.6772C86.6772 3.09219 86.0677 3.70171 85.3158 3.70171V0.298204ZM87.3579 2.34031C87.3579 1.21248 86.4436 0.298204 85.3158 0.298204V3.70171C84.5639 3.70171 83.9544 3.09218 83.9544 2.34031H87.3579ZM86.7439 14.9501C87.0828 14.9494 87.3579 15.2239 87.3579 15.5628H83.9544C83.9544 17.1066 85.2077 18.3571 86.7515 18.3536L86.7439 14.9501ZM103.621 16.9546C103.618 15.8267 102.702 14.9145 101.574 14.917L101.582 18.3205C100.83 18.3222 100.219 17.714 100.217 16.9621L103.621 16.9546ZM101.583 19.0012C102.711 18.9987 103.623 18.0824 103.621 16.9546L100.217 16.9621C100.215 16.2103 100.824 15.5994 101.576 15.5977L101.583 19.0012ZM87.3579 18.4217C87.3579 18.7595 87.0844 19.0336 86.7466 19.0343L86.739 15.6308C85.2001 15.6343 83.9544 16.8828 83.9544 18.4217H87.3579ZM85.3158 33.0664C86.4436 33.0664 87.3579 32.1521 87.3579 31.0243H83.9544C83.9544 30.2724 84.5639 29.6629 85.3158 29.6629V33.0664ZM83.2737 31.0243C83.2737 32.1521 84.188 33.0664 85.3158 33.0664V29.6629C86.0677 29.6629 86.6772 30.2724 86.6772 31.0243H83.2737ZM84.9766 19.0383C84.0367 19.0404 83.2737 18.279 83.2737 17.3391H86.6772C86.6772 16.3964 85.9118 15.6327 84.9691 15.6348L84.9766 19.0383ZM83.2685 17.3378C83.2706 18.279 84.0353 19.0404 84.9766 19.0383L84.9691 15.6348C85.9075 15.6327 86.6699 16.3918 86.672 17.3302L83.2685 17.3378ZM84.976 18.3576C85.9165 18.3554 86.6772 17.5923 86.6772 16.6525H83.2737C83.2737 15.7164 84.0314 14.9562 84.9682 14.9541L84.976 18.3576ZM84.9682 14.9541C84.0265 14.9562 83.2649 15.7213 83.267 16.663L86.6705 16.6554C86.6726 17.5934 85.9139 18.3555 84.976 18.3576L84.9682 14.9541Z" fill="#655050"/>
<mask id="path-3-inside-1_327_759" fill="white">
<path d="M136.735 36.84C137.524 36.84 138.167 37.4799 138.132 38.2678C137.776 46.2778 134.441 53.8868 128.752 59.5805C122.727 65.6117 114.554 69 106.032 69C97.5107 69 89.338 65.6117 83.3123 59.5805C77.6237 53.8868 74.2884 46.2778 73.933 38.2678C73.8981 37.4799 74.5407 36.84 75.3294 36.84L106.032 36.84H136.735Z"/>
</mask>
<path d="M136.735 36.84C137.524 36.84 138.167 37.4799 138.132 38.2678C137.776 46.2778 134.441 53.8868 128.752 59.5805C122.727 65.6117 114.554 69 106.032 69C97.5107 69 89.338 65.6117 83.3123 59.5805C77.6237 53.8868 74.2884 46.2778 73.933 38.2678C73.8981 37.4799 74.5407 36.84 75.3294 36.84L106.032 36.84H136.735Z" stroke="url(#paint0_linear_327_759)" stroke-width="6.80641" mask="url(#path-3-inside-1_327_759)"/>
<path d="M41.6252 50.1848V50.7705H36.6884V50.1848H41.6252ZM36.8502 46.5422V54.6642H36.164V46.5422H36.8502ZM42.1774 46.5422V54.6642H41.4913V46.5422H42.1774ZM59.1912 53.582V50.4693C59.1912 50.183 59.1317 49.9357 59.0127 49.7274C58.8937 49.5191 58.7189 49.3592 58.4883 49.2477C58.2578 49.1361 57.9733 49.0803 57.6349 49.0803C57.3225 49.0803 57.0436 49.1361 56.7981 49.2477C56.5564 49.3555 56.3649 49.5024 56.2236 49.6884C56.086 49.8706 56.0172 50.0733 56.0172 50.2964L55.3478 50.2908C55.3478 50.064 55.4036 49.8445 55.5151 49.6326C55.6267 49.4206 55.7847 49.2309 55.9893 49.0636C56.1938 48.8962 56.4374 48.7642 56.72 48.6675C57.0064 48.5671 57.3206 48.5169 57.6628 48.5169C58.0942 48.5169 58.4735 48.5894 58.8007 48.7345C59.1317 48.8795 59.3902 49.0971 59.5761 49.3871C59.7621 49.6772 59.855 50.0416 59.855 50.4805V53.3979C59.855 53.6062 59.8699 53.8219 59.8997 54.045C59.9331 54.2681 59.9796 54.4522 60.0391 54.5972V54.6642H59.3307C59.286 54.5303 59.2507 54.363 59.2247 54.1621C59.2024 53.9576 59.1912 53.7642 59.1912 53.582ZM59.3474 51.1499L59.3586 51.6631H58.0477C57.7055 51.6631 57.3987 51.6947 57.1272 51.7579C56.8595 51.8174 56.6326 51.9067 56.4467 52.0257C56.2608 52.1409 56.1176 52.2804 56.0172 52.444C55.9205 52.6077 55.8721 52.7936 55.8721 53.0019C55.8721 53.2175 55.9261 53.4146 56.0339 53.5932C56.1455 53.7717 56.3017 53.9148 56.5025 54.0227C56.707 54.1268 56.9487 54.1789 57.2277 54.1789C57.5995 54.1789 57.9268 54.1101 58.2094 53.9725C58.4958 53.8349 58.7319 53.6545 58.9179 53.4314C59.1038 53.2083 59.2284 52.9647 59.2916 52.7006L59.5817 53.0855C59.5333 53.2715 59.4441 53.463 59.3139 53.6601C59.1875 53.8535 59.022 54.0357 58.8175 54.2068C58.6129 54.3741 58.3712 54.5117 58.0923 54.6196C57.8171 54.7237 57.5047 54.7758 57.1551 54.7758C56.7609 54.7758 56.4169 54.7014 56.1232 54.5526C55.8331 54.4039 55.6062 54.2012 55.4426 53.9446C55.2827 53.6843 55.2027 53.3905 55.2027 53.0632C55.2027 52.7657 55.266 52.4998 55.3924 52.2655C55.5188 52.0275 55.7011 51.8267 55.9391 51.6631C56.1808 51.4957 56.4709 51.3693 56.8093 51.2837C57.1514 51.1945 57.5345 51.1499 57.9584 51.1499H59.3474ZM73.7282 49.7888V56.9848H73.0588V48.6285H73.6836L73.7282 49.7888ZM77.9231 51.5905V51.7077C77.9231 52.1577 77.871 52.5705 77.7669 52.9461C77.6628 53.3217 77.5122 53.6471 77.3151 53.9223C77.1217 54.1937 76.8818 54.4039 76.5955 54.5526C76.3091 54.7014 75.9837 54.7758 75.6193 54.7758C75.2585 54.7758 74.9369 54.72 74.6542 54.6084C74.3716 54.4968 74.128 54.3388 73.9235 54.1342C73.7226 53.926 73.5609 53.6843 73.4382 53.4091C73.3192 53.1302 73.2355 52.8252 73.1871 52.4942V50.949C73.2429 50.5846 73.334 50.2536 73.4605 49.9561C73.5869 49.6586 73.7487 49.402 73.9458 49.1863C74.1466 48.9706 74.3846 48.8051 74.6598 48.6898C74.935 48.5746 75.2492 48.5169 75.6025 48.5169C75.9707 48.5169 76.298 48.5894 76.5843 48.7345C76.8744 48.8758 77.118 49.0822 77.3151 49.3537C77.5159 49.6214 77.6665 49.945 77.7669 50.3243C77.871 50.6999 77.9231 51.122 77.9231 51.5905ZM77.2537 51.7077V51.5905C77.2537 51.2373 77.2165 50.91 77.1421 50.6088C77.0715 50.3075 76.9618 50.0454 76.813 49.8222C76.668 49.5954 76.482 49.4187 76.2552 49.2923C76.0321 49.1659 75.7662 49.1026 75.4575 49.1026C75.1377 49.1026 74.8643 49.1566 74.6375 49.2644C74.4144 49.3685 74.2284 49.508 74.0797 49.6828C73.9309 49.8538 73.8138 50.0416 73.7282 50.2462C73.6427 50.4507 73.5795 50.6515 73.5386 50.8486V52.6281C73.6092 52.9107 73.7226 53.1729 73.8788 53.4146C74.035 53.6527 74.2433 53.8442 74.5036 53.9892C74.7676 54.1305 75.0893 54.2012 75.4687 54.2012C75.7736 54.2012 76.0376 54.138 76.2608 54.0115C76.4839 53.8851 76.668 53.7084 76.813 53.4816C76.9618 53.2547 77.0715 52.9907 77.1421 52.6895C77.2165 52.3882 77.2537 52.061 77.2537 51.7077ZM91.4895 49.7888V56.9848H90.8201V48.6285H91.4449L91.4895 49.7888ZM95.6844 51.5905V51.7077C95.6844 52.1577 95.6323 52.5705 95.5282 52.9461C95.4241 53.3217 95.2734 53.6471 95.0763 53.9223C94.883 54.1937 94.6431 54.4039 94.3567 54.5526C94.0704 54.7014 93.745 54.7758 93.3805 54.7758C93.0198 54.7758 92.6981 54.72 92.4155 54.6084C92.1329 54.4968 91.8893 54.3388 91.6847 54.1342C91.4839 53.926 91.3222 53.6843 91.1994 53.4091C91.0804 53.1302 90.9968 52.8252 90.9484 52.4942V50.949C91.0042 50.5846 91.0953 50.2536 91.2217 49.9561C91.3482 49.6586 91.51 49.402 91.7071 49.1863C91.9079 48.9706 92.1459 48.8051 92.4211 48.6898C92.6963 48.5746 93.0105 48.5169 93.3638 48.5169C93.732 48.5169 94.0592 48.5894 94.3456 48.7345C94.6357 48.8758 94.8792 49.0822 95.0763 49.3537C95.2772 49.6214 95.4278 49.945 95.5282 50.3243C95.6323 50.6999 95.6844 51.122 95.6844 51.5905ZM95.015 51.7077V51.5905C95.015 51.2373 94.9778 50.91 94.9034 50.6088C94.8328 50.3075 94.7231 50.0454 94.5743 49.8222C94.4293 49.5954 94.2433 49.4187 94.0165 49.2923C93.7933 49.1659 93.5274 49.1026 93.2188 49.1026C92.899 49.1026 92.6256 49.1566 92.3988 49.2644C92.1756 49.3685 91.9897 49.508 91.8409 49.6828C91.6922 49.8538 91.575 50.0416 91.4895 50.2462C91.404 50.4507 91.3407 50.6515 91.2998 50.8486V52.6281C91.3705 52.9107 91.4839 53.1729 91.6401 53.4146C91.7963 53.6527 92.0046 53.8442 92.2649 53.9892C92.5289 54.1305 92.8506 54.2012 93.2299 54.2012C93.5349 54.2012 93.7989 54.138 94.022 54.0115C94.2452 53.8851 94.4293 53.7084 94.5743 53.4816C94.7231 53.2547 94.8328 52.9907 94.9034 52.6895C94.9778 52.3882 95.015 52.061 95.015 51.7077ZM110.316 54.0617L112.196 48.6285H112.916L110.361 55.6348C110.309 55.7724 110.242 55.9249 110.16 56.0922C110.082 56.2596 109.978 56.4195 109.848 56.572C109.721 56.7282 109.561 56.8546 109.368 56.9513C109.178 57.0517 108.946 57.1019 108.671 57.1019C108.6 57.1019 108.509 57.0926 108.397 57.074C108.289 57.0591 108.211 57.0443 108.163 57.0294L108.157 56.466C108.198 56.4771 108.258 56.4864 108.336 56.4939C108.414 56.5013 108.468 56.505 108.498 56.505C108.739 56.505 108.942 56.4641 109.106 56.3823C109.273 56.3005 109.413 56.1778 109.524 56.0141C109.636 55.8542 109.734 55.6534 109.82 55.4117L110.316 54.0617ZM108.559 48.6285L110.484 53.8107L110.662 54.508L110.177 54.7813L107.834 48.6285H108.559ZM130.236 54.0785V54.6642H126.025V54.0785H130.236ZM126.225 46.5422V54.6642H125.539V46.5422H126.225ZM143.574 48.6285V54.6642H142.91V48.6285H143.574ZM142.793 46.8825C142.793 46.756 142.832 46.65 142.91 46.5645C142.992 46.4753 143.104 46.4306 143.245 46.4306C143.386 46.4306 143.498 46.4753 143.58 46.5645C143.665 46.65 143.708 46.756 143.708 46.8825C143.708 47.0052 143.665 47.1112 143.58 47.2004C143.498 47.286 143.386 47.3287 143.245 47.3287C143.104 47.3287 142.992 47.286 142.91 47.2004C142.832 47.1112 142.793 47.0052 142.793 46.8825ZM157.966 54.6642H157.302V47.881C157.302 47.4682 157.373 47.1205 157.514 46.8378C157.659 46.5552 157.864 46.3414 158.128 46.1963C158.395 46.0513 158.713 45.9788 159.082 45.9788C159.197 45.9788 159.316 45.9862 159.439 46.0011C159.561 46.0123 159.68 46.0364 159.796 46.0736L159.745 46.637C159.652 46.611 159.558 46.5943 159.461 46.5868C159.368 46.5757 159.258 46.5701 159.132 46.5701C158.89 46.5701 158.682 46.6222 158.507 46.7263C158.332 46.8267 158.198 46.9736 158.105 47.167C158.012 47.3603 157.966 47.5984 157.966 47.881V54.6642ZM159.405 48.6285V49.1751H156.304V48.6285H159.405ZM174.227 54.7758C173.832 54.7758 173.47 54.7032 173.139 54.5582C172.812 54.4132 172.525 54.2086 172.28 53.9446C172.038 53.6805 171.85 53.3682 171.716 53.0074C171.586 52.643 171.521 52.2451 171.521 51.8137V51.5738C171.521 51.109 171.59 50.6887 171.728 50.3131C171.865 49.9375 172.055 49.6158 172.297 49.3481C172.538 49.0803 172.813 48.8758 173.122 48.7345C173.435 48.5894 173.762 48.5169 174.104 48.5169C174.487 48.5169 174.827 48.5857 175.125 48.7233C175.422 48.8572 175.671 49.0487 175.872 49.2979C176.077 49.5433 176.231 49.8352 176.335 50.1737C176.439 50.5084 176.491 50.8784 176.491 51.2837V51.691H171.923V51.122H175.828V51.0439C175.82 50.7055 175.751 50.3894 175.621 50.0956C175.495 49.7981 175.305 49.5563 175.052 49.3704C174.799 49.1844 174.483 49.0915 174.104 49.0915C173.821 49.0915 173.561 49.151 173.323 49.27C173.089 49.389 172.886 49.5601 172.715 49.7832C172.548 50.0026 172.417 50.2648 172.324 50.5697C172.235 50.8709 172.191 51.2056 172.191 51.5738V51.8137C172.191 52.1484 172.239 52.4608 172.336 52.7508C172.436 53.0372 172.577 53.2901 172.76 53.5095C172.946 53.7289 173.165 53.9 173.418 54.0227C173.671 54.1454 173.95 54.2068 174.255 54.2068C174.612 54.2068 174.928 54.1417 175.203 54.0115C175.478 53.8776 175.725 53.6675 175.945 53.3812L176.363 53.7047C176.233 53.8981 176.069 54.0766 175.872 54.2402C175.679 54.4039 175.446 54.534 175.175 54.6307C174.903 54.7274 174.587 54.7758 174.227 54.7758Z" fill="black"/>
<path d="M41.6252 50.1848H41.8037V50.0063H41.6252V50.1848ZM41.6252 50.7705V50.949H41.8037V50.7705H41.6252ZM36.6884 50.7705H36.5099V50.949H36.6884V50.7705ZM36.6884 50.1848V50.0063H36.5099V50.1848H36.6884ZM36.8502 46.5422H37.0287V46.3637H36.8502V46.5422ZM36.8502 54.6642V54.8427H37.0287V54.6642H36.8502ZM36.164 54.6642H35.9855V54.8427H36.164V54.6642ZM36.164 46.5422V46.3637H35.9855V46.5422H36.164ZM42.1774 46.5422H42.3559V46.3637H42.1774V46.5422ZM42.1774 54.6642V54.8427H42.3559V54.6642H42.1774ZM41.4913 54.6642H41.3128V54.8427H41.4913V54.6642ZM41.4913 46.5422V46.3637H41.3128V46.5422H41.4913ZM41.4467 50.1848V50.7705H41.8037V50.1848H41.4467ZM41.6252 50.592H36.6884V50.949H41.6252V50.592ZM36.8669 50.7705V50.1848H36.5099V50.7705H36.8669ZM36.6884 50.3633H41.6252V50.0063H36.6884V50.3633ZM36.6717 46.5422V54.6642H37.0287V46.5422H36.6717ZM36.8502 54.4857H36.164V54.8427H36.8502V54.4857ZM36.3425 54.6642V46.5422H35.9855V54.6642H36.3425ZM36.164 46.7207H36.8502V46.3637H36.164V46.7207ZM41.9989 46.5422V54.6642H42.3559V46.5422H41.9989ZM42.1774 54.4857H41.4913V54.8427H42.1774V54.4857ZM41.6698 54.6642V46.5422H41.3128V54.6642H41.6698ZM41.4913 46.7207H42.1774V46.3637H41.4913V46.7207ZM56.7981 49.2477L56.8709 49.4107L56.872 49.4102L56.7981 49.2477ZM56.2236 49.6884L56.0814 49.5803L56.0811 49.5808L56.2236 49.6884ZM56.0172 50.2964L56.0157 50.4749L56.1957 50.4764V50.2964H56.0172ZM55.3478 50.2908H55.1693V50.4678L55.3463 50.4693L55.3478 50.2908ZM56.72 48.6675L56.7778 48.8364L56.7791 48.836L56.72 48.6675ZM58.8007 48.7345L58.7284 48.8977L58.7291 48.898L58.8007 48.7345ZM59.8997 54.045L59.7227 54.0686L59.7231 54.0715L59.8997 54.045ZM60.0391 54.5972H60.2176V54.5621L60.2043 54.5295L60.0391 54.5972ZM60.0391 54.6642V54.8427H60.2176V54.6642H60.0391ZM59.3307 54.6642L59.1613 54.7206L59.202 54.8427H59.3307V54.6642ZM59.2247 54.1621L59.0472 54.1815L59.0477 54.1851L59.2247 54.1621ZM59.3474 51.1499L59.5259 51.146L59.5221 50.9714H59.3474V51.1499ZM59.3586 51.6631V51.8416H59.541L59.537 51.6592L59.3586 51.6631ZM57.1272 51.7579L57.166 51.9322L57.1677 51.9318L57.1272 51.7579ZM56.4467 52.0257L56.5408 52.1774L56.5429 52.176L56.4467 52.0257ZM56.0172 52.444L55.865 52.3507L55.8635 52.3532L56.0172 52.444ZM56.0339 53.5932L55.8811 53.6855L55.8825 53.6878L56.0339 53.5932ZM56.5025 54.0227L56.418 54.18L56.4215 54.1818L56.5025 54.0227ZM58.2094 53.9725L58.1321 53.8116L58.1313 53.812L58.2094 53.9725ZM59.2916 52.7006L59.4342 52.5932L59.2062 52.2907L59.118 52.6591L59.2916 52.7006ZM59.5817 53.0855L59.7545 53.1304L59.7762 53.047L59.7243 52.9781L59.5817 53.0855ZM59.3139 53.6601L59.165 53.5617L59.1645 53.5624L59.3139 53.6601ZM58.8175 54.2068L58.9305 54.3449L58.932 54.3437L58.8175 54.2068ZM58.0923 54.6196L58.1555 54.7865L58.1567 54.7861L58.0923 54.6196ZM56.1232 54.5526L56.0417 54.7115L56.0425 54.7119L56.1232 54.5526ZM55.4426 53.9446L55.2905 54.038L55.2921 54.0406L55.4426 53.9446ZM55.3924 52.2655L55.5495 52.3503L55.55 52.3493L55.3924 52.2655ZM55.9391 51.6631L56.0402 51.8102L56.0407 51.8098L55.9391 51.6631ZM56.8093 51.2837L56.853 51.4568L56.8543 51.4565L56.8093 51.2837ZM59.3697 53.582V50.4693H59.0127V53.582H59.3697ZM59.3697 50.4693C59.3697 50.1579 59.3048 49.8789 59.1677 49.6388L58.8577 49.816C58.9586 49.9925 59.0127 50.208 59.0127 50.4693H59.3697ZM59.1677 49.6388C59.0296 49.3971 58.8268 49.2131 58.5661 49.087L58.4106 49.4083C58.6111 49.5053 58.7578 49.6412 58.8577 49.816L59.1677 49.6388ZM58.5661 49.087C58.3048 48.9606 57.9919 48.9018 57.6349 48.9018V49.2588C57.9546 49.2588 58.2108 49.3117 58.4106 49.4083L58.5661 49.087ZM57.6349 48.9018C57.301 48.9018 56.9963 48.9615 56.7243 49.0852L56.872 49.4102C57.0908 49.3107 57.3439 49.2588 57.6349 49.2588V48.9018ZM56.7254 49.0847C56.46 49.2031 56.2432 49.3675 56.0814 49.5803L56.3657 49.7964C56.4866 49.6373 56.6528 49.508 56.8709 49.4107L56.7254 49.0847ZM56.0811 49.5808C55.9207 49.7932 55.8387 50.0335 55.8387 50.2964H56.1957C56.1957 50.113 56.2512 49.9479 56.366 49.7959L56.0811 49.5808ZM56.0187 50.1179L55.3493 50.1123L55.3463 50.4693L56.0157 50.4749L56.0187 50.1179ZM55.5263 50.2908C55.5263 50.0946 55.5742 49.9035 55.6731 49.7157L55.3572 49.5494C55.2329 49.7856 55.1693 50.0334 55.1693 50.2908H55.5263ZM55.6731 49.7157C55.7724 49.527 55.9144 49.3555 56.1023 49.2017L55.8762 48.9254C55.6551 49.1064 55.481 49.3142 55.3572 49.5494L55.6731 49.7157ZM56.1023 49.2017C56.2884 49.0495 56.5127 48.9271 56.7778 48.8364L56.6623 48.4986C56.3621 48.6013 56.0992 48.743 55.8762 48.9254L56.1023 49.2017ZM56.7791 48.836C57.0442 48.743 57.3382 48.6954 57.6628 48.6954V48.3384C57.3031 48.3384 56.9686 48.3912 56.661 48.4991L56.7791 48.836ZM57.6628 48.6954C58.0742 48.6954 58.4281 48.7646 58.7284 48.8977L58.8731 48.5713C58.5188 48.4143 58.1141 48.3384 57.6628 48.3384V48.6954ZM58.7291 48.898C59.0295 49.0296 59.2599 49.2245 59.4258 49.4835L59.7264 49.2908C59.5205 48.9696 59.234 48.7294 58.8724 48.571L58.7291 48.898ZM59.4258 49.4835C59.5889 49.7379 59.6765 50.0665 59.6765 50.4805H60.0335C60.0335 50.0168 59.9352 49.6165 59.7264 49.2908L59.4258 49.4835ZM59.6765 50.4805V53.3979H60.0335V50.4805H59.6765ZM59.6765 53.3979C59.6765 53.6147 59.692 53.8383 59.7227 54.0686L60.0766 54.0214C60.0478 53.8055 60.0335 53.5977 60.0335 53.3979H59.6765ZM59.7231 54.0715C59.7579 54.3032 59.8072 54.5023 59.874 54.665L60.2043 54.5295C60.152 54.4021 60.1084 54.2331 60.0762 54.0185L59.7231 54.0715ZM59.8606 54.5972V54.6642H60.2176V54.5972H59.8606ZM60.0391 54.4857H59.3307V54.8427H60.0391V54.4857ZM59.5 54.6077C59.4602 54.4883 59.4268 54.3331 59.4017 54.1392L59.0477 54.1851C59.0746 54.3928 59.1119 54.5723 59.1613 54.7206L59.5 54.6077ZM59.4021 54.1428C59.3804 53.9439 59.3697 53.757 59.3697 53.582H59.0127C59.0127 53.7715 59.0243 53.9713 59.0472 54.1815L59.4021 54.1428ZM59.1689 51.1537L59.1801 51.6669L59.537 51.6592L59.5259 51.146L59.1689 51.1537ZM59.3586 51.4846H58.0477V51.8416H59.3586V51.4846ZM58.0477 51.4846C57.6949 51.4846 57.3741 51.5171 57.0868 51.584L57.1677 51.9318C57.4233 51.8722 57.7162 51.8416 58.0477 51.8416V51.4846ZM57.0885 51.5836C56.8051 51.6466 56.5577 51.7427 56.3505 51.8753L56.5429 52.176C56.7076 52.0706 56.9139 51.9882 57.166 51.9322L57.0885 51.5836ZM56.3526 51.8739C56.1464 52.0018 55.9819 52.1602 55.865 52.3507L56.1693 52.5374C56.2533 52.4006 56.3751 52.2801 56.5408 52.1774L56.3526 51.8739ZM55.8635 52.3532C55.749 52.5469 55.6936 52.7648 55.6936 53.0019H56.0506C56.0506 52.8224 56.0919 52.6684 56.1708 52.5348L55.8635 52.3532ZM55.6936 53.0019C55.6936 53.2489 55.7559 53.4781 55.8811 53.6855L56.1867 53.5008C56.0963 53.3512 56.0506 53.1862 56.0506 53.0019H55.6936ZM55.8825 53.6878C56.0119 53.8948 56.1922 54.0586 56.418 54.1799L56.5869 53.8654C56.4112 53.771 56.279 53.6485 56.1853 53.4985L55.8825 53.6878ZM56.4215 54.1818C56.656 54.3011 56.9266 54.3574 57.2277 54.3574V54.0004C56.9709 54.0004 56.7581 53.9525 56.5835 53.8636L56.4215 54.1818ZM57.2277 54.3574C57.6217 54.3574 57.9765 54.2844 58.2876 54.133L58.1313 53.812C57.8771 53.9357 57.5774 54.0004 57.2277 54.0004V54.3574ZM58.2867 54.1334C58.594 53.9857 58.8512 53.7902 59.055 53.5457L58.7807 53.3171C58.6127 53.5188 58.3976 53.684 58.1321 53.8116L58.2867 54.1334ZM59.055 53.5457C59.2573 53.3029 59.3952 53.0348 59.4652 52.7422L59.118 52.6591C59.0616 52.8945 58.9504 53.1136 58.7807 53.3171L59.055 53.5457ZM59.1491 52.8081L59.4391 53.193L59.7243 52.9781L59.4342 52.5932L59.1491 52.8081ZM59.4089 53.0406C59.3665 53.2038 59.2867 53.3774 59.165 53.5617L59.4629 53.7585C59.6015 53.5486 59.7002 53.3392 59.7545 53.1304L59.4089 53.0406ZM59.1645 53.5624C59.0491 53.739 58.896 53.9084 58.7029 54.0698L58.932 54.3437C59.148 54.163 59.3259 53.968 59.4633 53.7578L59.1645 53.5624ZM58.7044 54.0686C58.5163 54.2225 58.2915 54.3511 58.0279 54.4531L58.1567 54.7861C58.4509 54.6723 58.7096 54.5257 58.9305 54.3449L58.7044 54.0686ZM58.0291 54.4526C57.7775 54.5478 57.4871 54.5972 57.1551 54.5972V54.9543C57.5223 54.9543 57.8567 54.8996 58.1555 54.7865L58.0291 54.4526ZM57.1551 54.5972C56.7835 54.5972 56.4681 54.5272 56.2038 54.3934L56.0425 54.7119C56.3658 54.8755 56.7384 54.9543 57.1551 54.9543V54.5972ZM56.2046 54.3938C55.9406 54.2584 55.7385 54.0766 55.5931 53.8486L55.2921 54.0406C55.474 54.3258 55.7255 54.5493 56.0417 54.7115L56.2046 54.3938ZM55.5947 53.8512C55.4533 53.621 55.3812 53.3599 55.3812 53.0632H55.0242C55.0242 53.421 55.1121 53.7476 55.2905 54.038L55.5947 53.8512ZM55.3812 53.0632C55.3812 52.7918 55.4387 52.5556 55.5495 52.3503L55.2353 52.1807C55.0932 52.444 55.0242 52.7396 55.0242 53.0632H55.3812ZM55.55 52.3493C55.6621 52.1384 55.8241 51.9587 56.0402 51.8102L55.8379 51.516C55.578 51.6947 55.3756 51.9166 55.2348 52.1818L55.55 52.3493ZM56.0407 51.8098C56.2619 51.6567 56.5315 51.5381 56.853 51.4568L56.7655 51.1107C56.4102 51.2005 56.0997 51.3348 55.8375 51.5163L56.0407 51.8098ZM56.8543 51.4565C57.1792 51.3717 57.5468 51.3284 57.9584 51.3284V50.9714C57.5222 50.9714 57.1236 51.0173 56.7642 51.111L56.8543 51.4565ZM57.9584 51.3284H59.3474V50.9714H57.9584V51.3284ZM73.7282 49.7888H73.9069L73.9066 49.7819L73.7282 49.7888ZM73.7282 56.9848V57.1633H73.9067V56.9848H73.7282ZM73.0588 56.9848H72.8803V57.1633H73.0588V56.9848ZM73.0588 48.6285V48.45H72.8803V48.6285H73.0588ZM73.6836 48.6285L73.862 48.6216L73.8554 48.45H73.6836V48.6285ZM77.3151 53.9223L77.1699 53.8183L77.1697 53.8187L77.3151 53.9223ZM73.9235 54.1342L73.795 54.2582L73.7972 54.2605L73.9235 54.1342ZM73.4382 53.4091L73.2739 53.4791L73.2751 53.4818L73.4382 53.4091ZM73.1871 52.4942H73.0086V52.5072L73.0105 52.52L73.1871 52.4942ZM73.1871 50.949L73.0107 50.922L73.0086 50.9355V50.949H73.1871ZM73.9458 49.1863L73.8151 49.0647L73.814 49.0659L73.9458 49.1863ZM76.5843 48.7345L76.5036 48.8937L76.5061 48.8949L76.5843 48.7345ZM77.3151 49.3537L77.1706 49.4585L77.1723 49.4608L77.3151 49.3537ZM77.7669 50.3243L77.5943 50.37L77.5949 50.372L77.7669 50.3243ZM77.1421 50.6088L76.9683 50.6495L76.9688 50.6516L77.1421 50.6088ZM76.813 49.8222L76.6626 49.9184L76.6645 49.9212L76.813 49.8222ZM76.2552 49.2923L76.1672 49.4476L76.1683 49.4482L76.2552 49.2923ZM74.6375 49.2644L74.713 49.4262L74.7141 49.4256L74.6375 49.2644ZM74.0797 49.6828L74.2144 49.7999L74.2156 49.7985L74.0797 49.6828ZM73.5386 50.8486L73.3638 50.8124L73.3601 50.8303V50.8486H73.5386ZM73.5386 52.6281H73.3601V52.6501L73.3654 52.6714L73.5386 52.6281ZM73.8788 53.4146L73.7289 53.5115L73.7296 53.5126L73.8788 53.4146ZM74.5036 53.9892L74.4167 54.1452L74.4194 54.1466L74.5036 53.9892ZM76.813 53.4816L76.6637 53.3837L76.6626 53.3854L76.813 53.4816ZM77.1421 52.6895L76.9688 52.6467L76.9684 52.6487L77.1421 52.6895ZM73.5497 49.7888V56.9848H73.9067V49.7888H73.5497ZM73.7282 56.8062H73.0588V57.1633H73.7282V56.8062ZM73.2373 56.9848V48.6285H72.8803V56.9848H73.2373ZM73.0588 48.807H73.6836V48.45H73.0588V48.807ZM73.5052 48.6353L73.5499 49.7956L73.9066 49.7819L73.862 48.6216L73.5052 48.6353ZM77.7446 51.5905V51.7077H78.1016V51.5905H77.7446ZM77.7446 51.7077C77.7446 52.144 77.6941 52.5405 77.5949 52.8984L77.9389 52.9938C78.048 52.6004 78.1016 52.1714 78.1016 51.7077H77.7446ZM77.5949 52.8984C77.4955 53.2568 77.3531 53.5625 77.1699 53.8183L77.4602 54.0262C77.6712 53.7316 77.83 53.3865 77.9389 52.9938L77.5949 52.8984ZM77.1697 53.8187C76.9921 54.068 76.7736 54.2589 76.5132 54.3942L76.6778 54.711C76.99 54.5488 77.2512 54.3195 77.4605 54.0258L77.1697 53.8187ZM76.5132 54.3942C76.2554 54.5281 75.9588 54.5972 75.6193 54.5972V54.9543C76.0086 54.9543 76.3629 54.8746 76.6778 54.711L76.5132 54.3942ZM75.6193 54.5972C75.2769 54.5972 74.978 54.5443 74.7198 54.4424L74.5887 54.7744C74.8957 54.8956 75.2402 54.9543 75.6193 54.9543V54.5972ZM74.7198 54.4424C74.4587 54.3393 74.2361 54.1944 74.0497 54.008L73.7972 54.2605C74.0199 54.4832 74.2845 54.6544 74.5887 54.7744L74.7198 54.4424ZM74.052 54.0103C73.8661 53.8176 73.7158 53.5934 73.6012 53.3364L73.2751 53.4818C73.4059 53.7751 73.5792 54.0344 73.795 54.2582L74.052 54.0103ZM73.6023 53.339C73.49 53.0756 73.4101 52.7857 73.3638 52.4684L73.0105 52.52C73.0608 52.8647 73.1483 53.1847 73.274 53.4791L73.6023 53.339ZM73.3656 52.4942V50.949H73.0086V52.4942H73.3656ZM73.3636 50.9761C73.4174 50.6243 73.5049 50.308 73.6248 50.0259L73.2962 49.8863C73.1632 50.1993 73.0684 50.5449 73.0107 50.922L73.3636 50.9761ZM73.6248 50.0259C73.7441 49.745 73.8954 49.506 74.0776 49.3067L73.814 49.0659C73.6019 49.298 73.4297 49.5722 73.2962 49.8863L73.6248 50.0259ZM74.0764 49.3079C74.2598 49.111 74.4767 48.9601 74.7288 48.8545L74.5908 48.5252C74.2926 48.6501 74.0334 48.8302 73.8151 49.0647L74.0764 49.3079ZM74.7288 48.8545C74.9785 48.7499 75.2686 48.6954 75.6025 48.6954V48.3384C75.2298 48.3384 74.8915 48.3992 74.5908 48.5252L74.7288 48.8545ZM75.6025 48.6954C75.9468 48.6954 76.2458 48.7631 76.5037 48.8937L76.665 48.5752C76.3502 48.4158 75.9946 48.3384 75.6025 48.3384V48.6954ZM76.5061 48.8949C76.7688 49.0229 76.99 49.2098 77.1706 49.4585L77.4595 49.2488C77.2459 48.9546 76.9799 48.7286 76.6625 48.574L76.5061 48.8949ZM77.1723 49.4608C77.3571 49.7073 77.4988 50.0091 77.5943 50.37L77.9395 50.2786C77.8342 49.8808 77.6746 49.5356 77.4579 49.2466L77.1723 49.4608ZM77.5949 50.372C77.6939 50.7293 77.7446 51.1349 77.7446 51.5905H78.1016C78.1016 51.109 78.0481 50.6705 77.9389 50.2766L77.5949 50.372ZM77.4322 51.7077V51.5905H77.0752V51.7077H77.4322ZM77.4322 51.5905C77.4322 51.2248 77.3937 50.883 77.3154 50.566L76.9688 50.6516C77.0393 50.937 77.0752 51.2497 77.0752 51.5905H77.4322ZM77.3159 50.568C77.2411 50.2492 77.1238 49.9666 76.9615 49.7232L76.6645 49.9212C76.7997 50.1241 76.9018 50.3659 76.9684 50.6495L77.3159 50.568ZM76.9634 49.7261C76.8031 49.4753 76.5957 49.2777 76.3421 49.1364L76.1683 49.4482C76.3684 49.5597 76.5329 49.7155 76.6626 49.9184L76.9634 49.7261ZM76.3432 49.137C76.0883 48.9925 75.7907 48.9241 75.4575 48.9241V49.2811C75.7416 49.2811 75.9759 49.3392 76.1672 49.4476L76.3432 49.137ZM75.4575 48.9241C75.1182 48.9241 74.8173 48.9813 74.5608 49.1032L74.7141 49.4256C74.9114 49.3318 75.1572 49.2811 75.4575 49.2811V48.9241ZM74.562 49.1026C74.3174 49.2168 74.1103 49.3714 73.9437 49.5671L74.2156 49.7985C74.3466 49.6446 74.5114 49.5203 74.713 49.4262L74.562 49.1026ZM73.945 49.5656C73.784 49.7508 73.6566 49.9548 73.5635 50.1773L73.8929 50.315C73.9709 50.1285 74.0778 49.9569 74.2144 49.7999L73.945 49.5656ZM73.5635 50.1773C73.474 50.3913 73.4072 50.603 73.3638 50.8124L73.7133 50.8849C73.7517 50.7 73.8113 50.5101 73.8929 50.315L73.5635 50.1773ZM73.3601 50.8486V52.6281H73.7171V50.8486H73.3601ZM73.3654 52.6714C73.4407 52.9728 73.562 53.2531 73.7289 53.5115L74.0288 53.3178C73.8833 53.0927 73.7777 52.8487 73.7117 52.5848L73.3654 52.6714ZM73.7296 53.5126C73.9023 53.7758 74.1325 53.9868 74.4167 54.1451L74.5905 53.8333C74.3541 53.7016 74.1677 53.5295 74.0281 53.3167L73.7296 53.5126ZM74.4194 54.1466C74.7153 54.305 75.0676 54.3797 75.4687 54.3797V54.0227C75.1111 54.0227 74.82 53.9561 74.5878 53.8318L74.4194 54.1466ZM75.4687 54.3797C75.7986 54.3797 76.0941 54.3111 76.3488 54.1668L76.1728 53.8562C75.9811 53.9648 75.7486 54.0227 75.4687 54.0227V54.3797ZM76.3488 54.1668C76.5985 54.0253 76.8035 53.8278 76.9634 53.5777L76.6626 53.3854C76.5324 53.589 76.3693 53.7448 76.1728 53.8562L76.3488 54.1668ZM76.9623 53.5795C77.124 53.3329 77.2412 53.049 77.3159 52.7302L76.9684 52.6487C76.9018 52.9324 76.7996 53.1766 76.6637 53.3837L76.9623 53.5795ZM77.3154 52.7323C77.3937 52.4153 77.4322 52.0735 77.4322 51.7077H77.0752C77.0752 52.0485 77.0393 52.3612 76.9688 52.6467L77.3154 52.7323ZM91.4895 49.7888H91.6681L91.6679 49.7819L91.4895 49.7888ZM91.4895 56.9848V57.1633H91.668V56.9848H91.4895ZM90.8201 56.9848H90.6416V57.1633H90.8201V56.9848ZM90.8201 48.6285V48.45H90.6416V48.6285H90.8201ZM91.4449 48.6285L91.6233 48.6216L91.6166 48.45H91.4449V48.6285ZM95.0763 53.9223L94.9312 53.8183L94.931 53.8187L95.0763 53.9223ZM91.6847 54.1342L91.5562 54.2582L91.5585 54.2605L91.6847 54.1342ZM91.1994 53.4091L91.0352 53.4791L91.0364 53.4818L91.1994 53.4091ZM90.9484 52.4942H90.7699V52.5072L90.7718 52.52L90.9484 52.4942ZM90.9484 50.949L90.772 50.922L90.7699 50.9355V50.949H90.9484ZM91.7071 49.1863L91.5764 49.0647L91.5753 49.0659L91.7071 49.1863ZM94.3456 48.7345L94.2649 48.8937L94.2674 48.8949L94.3456 48.7345ZM95.0763 49.3537L94.9319 49.4585L94.9335 49.4608L95.0763 49.3537ZM95.5282 50.3243L95.3556 50.37L95.3562 50.372L95.5282 50.3243ZM94.9034 50.6088L94.7296 50.6495L94.7301 50.6516L94.9034 50.6088ZM94.5743 49.8222L94.4239 49.9184L94.4258 49.9212L94.5743 49.8222ZM94.0165 49.2923L93.9285 49.4476L93.9296 49.4482L94.0165 49.2923ZM92.3988 49.2644L92.4743 49.4262L92.4754 49.4256L92.3988 49.2644ZM91.8409 49.6828L91.9756 49.7999L91.9769 49.7985L91.8409 49.6828ZM91.2998 50.8486L91.1251 50.8124L91.1213 50.8303V50.8486H91.2998ZM91.2998 52.6281H91.1213V52.6501L91.1267 52.6714L91.2998 52.6281ZM91.6401 53.4146L91.4902 53.5115L91.4909 53.5126L91.6401 53.4146ZM92.2649 53.9892L92.178 54.1452L92.1807 54.1466L92.2649 53.9892ZM94.5743 53.4816L94.425 53.3837L94.4239 53.3854L94.5743 53.4816ZM94.9034 52.6895L94.7301 52.6467L94.7296 52.6487L94.9034 52.6895ZM91.311 49.7888V56.9848H91.668V49.7888H91.311ZM91.4895 56.8062H90.8201V57.1633H91.4895V56.8062ZM90.9986 56.9848V48.6285H90.6416V56.9848H90.9986ZM90.8201 48.807H91.4449V48.45H90.8201V48.807ZM91.2665 48.6353L91.3111 49.7956L91.6679 49.7819L91.6233 48.6216L91.2665 48.6353ZM95.5059 51.5905V51.7077H95.8629V51.5905H95.5059ZM95.5059 51.7077C95.5059 52.144 95.4554 52.5405 95.3562 52.8984L95.7002 52.9938C95.8092 52.6004 95.8629 52.1714 95.8629 51.7077H95.5059ZM95.3562 52.8984C95.2568 53.2568 95.1144 53.5625 94.9312 53.8183L95.2215 54.0262C95.4325 53.7316 95.5913 53.3865 95.7002 52.9938L95.3562 52.8984ZM94.931 53.8187C94.7534 54.068 94.5349 54.2589 94.2745 54.3942L94.439 54.711C94.7513 54.5488 95.0125 54.3195 95.2217 54.0258L94.931 53.8187ZM94.2745 54.3942C94.0167 54.5281 93.7201 54.5972 93.3805 54.5972V54.9543C93.7699 54.9543 94.1241 54.8746 94.439 54.711L94.2745 54.3942ZM93.3805 54.5972C93.0381 54.5972 92.7393 54.5443 92.481 54.4424L92.35 54.7744C92.657 54.8956 93.0015 54.9543 93.3805 54.9543V54.5972ZM92.481 54.4424C92.22 54.3393 91.9974 54.1944 91.811 54.008L91.5585 54.2605C91.7812 54.4832 92.0458 54.6544 92.35 54.7744L92.481 54.4424ZM91.8132 54.0103C91.6274 53.8176 91.4771 53.5934 91.3625 53.3364L91.0364 53.4818C91.1672 53.7751 91.3404 54.0344 91.5563 54.2582L91.8132 54.0103ZM91.3636 53.339C91.2512 53.0756 91.1714 52.7857 91.125 52.4684L90.7718 52.52C90.8221 52.8647 90.9096 53.1847 91.0352 53.4791L91.3636 53.339ZM91.1269 52.4942V50.949H90.7699V52.4942H91.1269ZM91.1249 50.9761C91.1787 50.6243 91.2662 50.308 91.386 50.0259L91.0575 49.8863C90.9244 50.1993 90.8297 50.5449 90.772 50.922L91.1249 50.9761ZM91.386 50.0259C91.5054 49.745 91.6567 49.506 91.8388 49.3067L91.5753 49.0659C91.3632 49.298 91.191 49.5722 91.0575 49.8863L91.386 50.0259ZM91.8377 49.3079C92.021 49.111 92.2379 48.9601 92.4901 48.8545L92.3521 48.5252C92.0538 48.6501 91.7947 48.8302 91.5764 49.0647L91.8377 49.3079ZM92.4901 48.8545C92.7398 48.7499 93.0299 48.6954 93.3638 48.6954V48.3384C92.9911 48.3384 92.6528 48.3992 92.3521 48.5252L92.4901 48.8545ZM93.3638 48.6954C93.7081 48.6954 94.007 48.7631 94.2649 48.8937L94.4262 48.5752C94.1114 48.4158 93.7559 48.3384 93.3638 48.3384V48.6954ZM94.2674 48.8949C94.5301 49.0229 94.7513 49.2098 94.9319 49.4585L95.2208 49.2488C95.0072 48.9546 94.7412 48.7286 94.4238 48.574L94.2674 48.8949ZM94.9335 49.4608C95.1184 49.7073 95.2601 50.0091 95.3556 50.37L95.7007 50.2786C95.5955 49.8808 95.4359 49.5356 95.2191 49.2466L94.9335 49.4608ZM95.3562 50.372C95.4552 50.7293 95.5059 51.1349 95.5059 51.5905H95.8629C95.8629 51.109 95.8094 50.6705 95.7002 50.2766L95.3562 50.372ZM95.1935 51.7077V51.5905H94.8365V51.7077H95.1935ZM95.1935 51.5905C95.1935 51.2248 95.155 50.883 95.0767 50.566L94.7301 50.6516C94.8006 50.937 94.8365 51.2497 94.8365 51.5905H95.1935ZM95.0772 50.568C95.0024 50.2492 94.8851 49.9666 94.7228 49.7232L94.4258 49.9212C94.561 50.1241 94.6631 50.3659 94.7296 50.6495L95.0772 50.568ZM94.7247 49.7261C94.5644 49.4753 94.357 49.2777 94.1034 49.1364L93.9296 49.4482C94.1297 49.5597 94.2942 49.7155 94.4239 49.9184L94.7247 49.7261ZM94.1045 49.137C93.8495 48.9925 93.552 48.9241 93.2188 48.9241V49.2811C93.5029 49.2811 93.7371 49.3392 93.9285 49.4476L94.1045 49.137ZM93.2188 48.9241C92.8794 48.9241 92.5785 48.9813 92.3221 49.1032L92.4754 49.4256C92.6727 49.3318 92.9185 49.2811 93.2188 49.2811V48.9241ZM92.3233 49.1026C92.0786 49.2168 91.8716 49.3714 91.705 49.5671L91.9769 49.7985C92.1078 49.6446 92.2726 49.5203 92.4743 49.4262L92.3233 49.1026ZM91.7062 49.5656C91.5453 49.7508 91.4179 49.9548 91.3248 50.1773L91.6542 50.315C91.7322 50.1285 91.8391 49.9569 91.9756 49.7999L91.7062 49.5656ZM91.3248 50.1773C91.2353 50.3913 91.1685 50.603 91.1251 50.8124L91.4746 50.8849C91.513 50.7 91.5726 50.5101 91.6542 50.315L91.3248 50.1773ZM91.1213 50.8486V52.6281H91.4783V50.8486H91.1213ZM91.1267 52.6714C91.202 52.9728 91.3232 53.2531 91.4902 53.5115L91.79 53.3178C91.6446 53.0927 91.539 52.8487 91.473 52.5848L91.1267 52.6714ZM91.4909 53.5126C91.6636 53.7758 91.8937 53.9868 92.178 54.1451L92.3518 53.8333C92.1154 53.7016 91.929 53.5295 91.7894 53.3167L91.4909 53.5126ZM92.1807 54.1466C92.4766 54.305 92.8289 54.3797 93.2299 54.3797V54.0227C92.8723 54.0227 92.5812 53.9561 92.3491 53.8318L92.1807 54.1466ZM93.2299 54.3797C93.5599 54.3797 93.8554 54.3111 94.1101 54.1668L93.934 53.8562C93.7424 53.9648 93.5099 54.0227 93.2299 54.0227V54.3797ZM94.1101 54.1668C94.3598 54.0253 94.5648 53.8278 94.7247 53.5777L94.4239 53.3854C94.2937 53.589 94.1306 53.7448 93.934 53.8562L94.1101 54.1668ZM94.7236 53.5795C94.8853 53.3329 95.0024 53.049 95.0772 52.7302L94.7296 52.6487C94.6631 52.9324 94.5608 53.1766 94.425 53.3837L94.7236 53.5795ZM95.0767 52.7323C95.155 52.4153 95.1935 52.0735 95.1935 51.7077H94.8365C94.8365 52.0485 94.8006 52.3612 94.7301 52.6467L95.0767 52.7323ZM110.316 54.0617L110.484 54.1234L110.485 54.1201L110.316 54.0617ZM112.196 48.6285V48.45H112.069L112.027 48.5701L112.196 48.6285ZM112.916 48.6285L113.083 48.6896L113.171 48.45H112.916V48.6285ZM110.361 55.6348L110.528 55.698L110.529 55.696L110.361 55.6348ZM110.16 56.0922L110 56.0138L109.998 56.0167L110.16 56.0922ZM109.848 56.572L109.712 56.456L109.709 56.4596L109.848 56.572ZM109.368 56.9513L109.288 56.7916L109.284 56.7935L109.368 56.9513ZM108.397 57.074L108.427 56.8979L108.422 56.8972L108.397 57.074ZM108.163 57.0294L107.985 57.0311L107.986 57.1616L108.111 57.2L108.163 57.0294ZM108.157 56.466L108.204 56.2938L107.977 56.2316L107.979 56.4677L108.157 56.466ZM109.106 56.3823L109.027 56.2219L109.026 56.2226L109.106 56.3823ZM109.524 56.0141L109.378 55.912L109.377 55.9136L109.524 56.0141ZM109.82 55.4117L109.652 55.3501L109.651 55.3521L109.82 55.4117ZM108.559 48.6285L108.726 48.5663L108.683 48.45H108.559V48.6285ZM110.484 53.8107L110.657 53.7664L110.654 53.7574L110.651 53.7486L110.484 53.8107ZM110.662 54.508L110.75 54.6635L110.869 54.5963L110.835 54.4637L110.662 54.508ZM110.177 54.7813L110.01 54.8449L110.084 55.0386L110.264 54.9369L110.177 54.7813ZM107.834 48.6285V48.45H107.575L107.667 48.692L107.834 48.6285ZM110.485 54.1201L112.365 48.6868L112.027 48.5701L110.148 54.0034L110.485 54.1201ZM112.196 48.807H112.916V48.45H112.196V48.807ZM112.748 48.5673L110.193 55.5737L110.529 55.696L113.083 48.6896L112.748 48.5673ZM110.194 55.5716C110.144 55.7029 110.08 55.8502 110 56.0138L110.32 56.1706C110.404 55.9995 110.473 55.8419 110.528 55.698L110.194 55.5716ZM109.998 56.0167C109.928 56.1683 109.832 56.3148 109.712 56.4561L109.983 56.6879C110.123 56.5242 110.236 56.3508 110.322 56.1677L109.998 56.0167ZM109.709 56.4596C109.6 56.5946 109.46 56.7055 109.288 56.7916L109.448 57.1109C109.662 57.0037 109.843 56.8617 109.986 56.6843L109.709 56.4596ZM109.284 56.7935C109.127 56.877 108.925 56.9234 108.671 56.9234V57.2804C108.967 57.2804 109.23 57.2264 109.451 57.109L109.284 56.7935ZM108.671 56.9234C108.614 56.9234 108.534 56.9157 108.427 56.8979L108.368 57.2501C108.484 57.2695 108.586 57.2804 108.671 57.2804V56.9234ZM108.422 56.8972C108.315 56.8825 108.249 56.8691 108.215 56.8588L108.111 57.2C108.174 57.2194 108.264 57.2358 108.373 57.2508L108.422 56.8972ZM108.341 57.0276L108.336 56.4642L107.979 56.4677L107.985 57.0311L108.341 57.0276ZM108.11 56.6382C108.166 56.6534 108.238 56.6638 108.319 56.6716L108.353 56.3162C108.278 56.309 108.23 56.3009 108.204 56.2938L108.11 56.6382ZM108.319 56.6716C108.397 56.6789 108.458 56.6835 108.498 56.6835V56.3265C108.478 56.3265 108.432 56.3237 108.353 56.3162L108.319 56.6716ZM108.498 56.6835C108.759 56.6835 108.991 56.6395 109.186 56.542L109.026 56.2226C108.894 56.2887 108.72 56.3265 108.498 56.3265V56.6835ZM109.184 56.5427C109.381 56.4464 109.544 56.3022 109.672 56.1147L109.377 55.9136C109.281 56.0533 109.165 56.1546 109.027 56.2219L109.184 56.5427ZM109.671 56.1163C109.794 55.9398 109.899 55.7236 109.988 55.4712L109.651 55.3521C109.57 55.5832 109.478 55.7686 109.378 55.912L109.671 56.1163ZM109.987 55.4733L110.484 54.1233L110.149 54.0001L109.652 55.3501L109.987 55.4733ZM108.392 48.6906L110.316 53.8729L110.651 53.7486L108.726 48.5663L108.392 48.6906ZM110.311 53.855L110.489 54.5523L110.835 54.4637L110.657 53.7664L110.311 53.855ZM110.574 54.3525L110.089 54.6258L110.264 54.9369L110.75 54.6635L110.574 54.3525ZM110.344 54.7178L108.001 48.565L107.667 48.692L110.01 54.8449L110.344 54.7178ZM107.834 48.807H108.559V48.45H107.834V48.807ZM130.236 54.0785H130.415V53.9H130.236V54.0785ZM130.236 54.6642V54.8427H130.415V54.6642H130.236ZM126.025 54.6642H125.846V54.8427H126.025V54.6642ZM126.025 54.0785V53.9H125.846V54.0785H126.025ZM126.225 46.5422H126.404V46.3637H126.225V46.5422ZM126.225 54.6642V54.8427H126.404V54.6642H126.225ZM125.539 54.6642H125.361V54.8427H125.539V54.6642ZM125.539 46.5422V46.3637H125.361V46.5422H125.539ZM130.058 54.0785V54.6642H130.415V54.0785H130.058ZM130.236 54.4857H126.025V54.8427H130.236V54.4857ZM126.203 54.6642V54.0785H125.846V54.6642H126.203ZM126.025 54.257H130.236V53.9H126.025V54.257ZM126.047 46.5422V54.6642H126.404V46.5422H126.047ZM126.225 54.4857H125.539V54.8427H126.225V54.4857ZM125.718 54.6642V46.5422H125.361V54.6642H125.718ZM125.539 46.7207H126.225V46.3637H125.539V46.7207ZM143.574 48.6285H143.752V48.45H143.574V48.6285ZM143.574 54.6642V54.8427H143.752V54.6642H143.574ZM142.91 54.6642H142.732V54.8427H142.91V54.6642ZM142.91 48.6285V48.45H142.732V48.6285H142.91ZM142.91 46.5645L142.779 46.4439L142.778 46.4441L142.91 46.5645ZM143.58 46.5645L143.448 46.6852L143.453 46.6907L143.58 46.5645ZM143.58 47.2004L143.451 47.0769L143.451 47.077L143.58 47.2004ZM142.91 47.2004L142.776 47.3181L142.781 47.3238L142.91 47.2004ZM143.395 48.6285V54.6642H143.752V48.6285H143.395ZM143.574 54.4857H142.91V54.8427H143.574V54.4857ZM143.089 54.6642V48.6285H142.732V54.6642H143.089ZM142.91 48.807H143.574V48.45H142.91V48.807ZM142.972 46.8825C142.972 46.7961 142.997 46.7344 143.042 46.6849L142.778 46.4441C142.667 46.5657 142.615 46.7159 142.615 46.8825H142.972ZM143.042 46.6851C143.084 46.639 143.144 46.6091 143.245 46.6091V46.2521C143.063 46.2521 142.9 46.3115 142.779 46.4439L143.042 46.6851ZM143.245 46.6091C143.345 46.6091 143.406 46.639 143.448 46.6851L143.711 46.4439C143.59 46.3115 143.427 46.2521 143.245 46.2521V46.6091ZM143.453 46.6907C143.504 46.7411 143.529 46.801 143.529 46.8825H143.886C143.886 46.7111 143.826 46.559 143.706 46.4383L143.453 46.6907ZM143.529 46.8825C143.529 46.9588 143.505 47.0206 143.451 47.0769L143.708 47.3239C143.826 47.2017 143.886 47.0516 143.886 46.8825H143.529ZM143.451 47.077C143.409 47.1206 143.348 47.1502 143.245 47.1502V47.5072C143.425 47.5072 143.587 47.4513 143.709 47.3238L143.451 47.077ZM143.245 47.1502C143.142 47.1502 143.081 47.1206 143.039 47.077L142.781 47.3238C142.903 47.4513 143.065 47.5072 143.245 47.5072V47.1502ZM143.044 47.0829C142.996 47.0274 142.972 46.9636 142.972 46.8825H142.615C142.615 47.0468 142.668 47.195 142.776 47.318L143.044 47.0829ZM157.966 54.6642V54.8427H158.144V54.6642H157.966ZM157.302 54.6642H157.124V54.8427H157.302V54.6642ZM157.514 46.8378L157.355 46.7563L157.354 46.758L157.514 46.8378ZM158.128 46.1963L158.043 46.0394L158.042 46.0399L158.128 46.1963ZM159.439 46.0011L159.417 46.1784L159.422 46.1789L159.439 46.0011ZM159.796 46.0736L159.973 46.0895L159.986 45.9475L159.85 45.9037L159.796 46.0736ZM159.745 46.637L159.697 46.8089L159.904 46.8668L159.923 46.6529L159.745 46.637ZM159.461 46.5868L159.44 46.7642L159.447 46.7648L159.461 46.5868ZM158.507 46.7263L158.596 46.8811L158.598 46.8796L158.507 46.7263ZM159.405 48.6285H159.584V48.45H159.405V48.6285ZM159.405 49.1751V49.3537H159.584V49.1751H159.405ZM156.304 49.1751H156.125V49.3537H156.304V49.1751ZM156.304 48.6285V48.45H156.125V48.6285H156.304ZM157.966 54.4857H157.302V54.8427H157.966V54.4857ZM157.481 54.6642V47.881H157.124V54.6642H157.481ZM157.481 47.881C157.481 47.4877 157.548 47.1691 157.674 46.9177L157.354 46.758C157.198 47.0718 157.124 47.4487 157.124 47.881H157.481ZM157.673 46.9193C157.803 46.6666 157.983 46.4797 158.214 46.3528L158.042 46.0399C157.745 46.203 157.516 46.4438 157.355 46.7563L157.673 46.9193ZM158.213 46.3533C158.449 46.2251 158.737 46.1573 159.082 46.1573V45.8003C158.69 45.8003 158.342 45.8775 158.043 46.0394L158.213 46.3533ZM159.082 46.1573C159.189 46.1573 159.301 46.1642 159.417 46.1783L159.46 45.8239C159.331 45.8082 159.205 45.8003 159.082 45.8003V46.1573ZM159.422 46.1789C159.532 46.1889 159.638 46.2104 159.741 46.2435L159.85 45.9037C159.722 45.8624 159.59 45.8357 159.455 45.8233L159.422 46.1789ZM159.618 46.0578L159.568 46.6212L159.923 46.6529L159.973 46.0895L159.618 46.0578ZM159.794 46.4651C159.689 46.4359 159.583 46.4172 159.475 46.4088L159.447 46.7648C159.532 46.7713 159.616 46.7861 159.697 46.8089L159.794 46.4651ZM159.482 46.4096C159.38 46.3974 159.263 46.3916 159.132 46.3916V46.7486C159.253 46.7486 159.356 46.754 159.44 46.7641L159.482 46.4096ZM159.132 46.3916C158.864 46.3916 158.623 46.4495 158.416 46.5729L158.598 46.8796C158.741 46.7948 158.916 46.7486 159.132 46.7486V46.3916ZM158.418 46.5715C158.21 46.691 158.052 46.866 157.945 47.0896L158.266 47.2443C158.345 47.0812 158.454 46.9623 158.596 46.8811L158.418 46.5715ZM157.945 47.0896C157.837 47.3135 157.787 47.5797 157.787 47.881H158.144C158.144 47.617 158.188 47.4072 158.266 47.2443L157.945 47.0896ZM157.787 47.881V54.6642H158.144V47.881H157.787ZM159.227 48.6285V49.1751H159.584V48.6285H159.227ZM159.405 48.9966H156.304V49.3537H159.405V48.9966ZM156.482 49.1751V48.6285H156.125V49.1751H156.482ZM156.304 48.807H159.405V48.45H156.304V48.807ZM173.139 54.5582L173.067 54.7214L173.067 54.7217L173.139 54.5582ZM172.28 53.9446L172.148 54.0651L172.149 54.0661L172.28 53.9446ZM171.716 53.0074L171.548 53.0675L171.549 53.0695L171.716 53.0074ZM173.122 48.7345L173.196 48.8968L173.197 48.8964L173.122 48.7345ZM175.125 48.7233L175.05 48.8853L175.051 48.8861L175.125 48.7233ZM175.872 49.2979L175.733 49.4099L175.735 49.4121L175.872 49.2979ZM176.335 50.1737L176.165 50.2262L176.165 50.2267L176.335 50.1737ZM176.491 51.691V51.8695H176.67V51.691H176.491ZM171.923 51.691H171.744V51.8695H171.923V51.691ZM171.923 51.122V50.9435H171.744V51.122H171.923ZM175.828 51.122V51.3005H176.006V51.122H175.828ZM175.828 51.0439H176.006L176.006 51.04L175.828 51.0439ZM175.621 50.0956L175.457 50.1654L175.458 50.1679L175.621 50.0956ZM173.323 49.27L173.243 49.1103L173.242 49.1108L173.323 49.27ZM172.715 49.7832L172.573 49.6746L172.573 49.6749L172.715 49.7832ZM172.324 50.5697L172.154 50.5177L172.153 50.519L172.324 50.5697ZM172.336 52.7508L172.166 52.8073L172.167 52.8099L172.336 52.7508ZM172.76 53.5095L172.622 53.6235L172.623 53.6249L172.76 53.5095ZM175.203 54.0115L175.279 54.1729L175.281 54.172L175.203 54.0115ZM175.945 53.3812L176.054 53.24L175.912 53.1303L175.803 53.2726L175.945 53.3812ZM176.363 53.7047L176.511 53.8044L176.605 53.6657L176.472 53.5635L176.363 53.7047ZM175.872 54.2402L175.758 54.1029L175.757 54.104L175.872 54.2402ZM174.227 54.5972C173.855 54.5972 173.517 54.529 173.211 54.3947L173.067 54.7217C173.423 54.8775 173.81 54.9543 174.227 54.9543V54.5972ZM173.211 54.395C172.906 54.2598 172.64 54.0695 172.411 53.8231L172.149 54.0661C172.411 54.3477 172.717 54.5665 173.067 54.7214L173.211 54.395ZM172.411 53.824C172.186 53.5782 172.01 53.2861 171.884 52.9453L171.549 53.0695C171.69 53.4502 171.89 53.7829 172.148 54.0651L172.411 53.824ZM171.885 52.9474C171.762 52.6043 171.7 52.2269 171.7 51.8137H171.343C171.343 52.2632 171.411 52.6817 171.548 53.0675L171.885 52.9474ZM171.7 51.8137V51.5738H171.343V51.8137H171.7ZM171.7 51.5738C171.7 51.1266 171.766 50.7276 171.895 50.3745L171.56 50.2517C171.414 50.6499 171.343 51.0913 171.343 51.5738H171.7ZM171.895 50.3745C172.026 50.0181 172.204 49.7167 172.429 49.4677L172.164 49.2285C171.905 49.5149 171.705 49.857 171.56 50.2517L171.895 50.3745ZM172.429 49.4677C172.656 49.2168 172.911 49.0273 173.196 48.8968L173.048 48.5722C172.716 48.7242 172.421 48.9438 172.164 49.2285L172.429 49.4677ZM173.197 48.8964C173.486 48.7622 173.788 48.6954 174.104 48.6954V48.3384C173.736 48.3384 173.383 48.4167 173.047 48.5726L173.197 48.8964ZM174.104 48.6954C174.465 48.6954 174.779 48.7603 175.05 48.8853L175.2 48.5613C174.875 48.4111 174.509 48.3384 174.104 48.3384V48.6954ZM175.051 48.8861C175.324 49.0087 175.55 49.183 175.733 49.4099L176.011 49.1859C175.792 48.9144 175.521 48.7057 175.198 48.5605L175.051 48.8861ZM175.735 49.4121C175.923 49.6375 176.067 49.9079 176.165 50.2262L176.506 50.1212C176.396 49.7626 176.231 49.4491 176.009 49.1836L175.735 49.4121ZM176.165 50.2267C176.263 50.5418 176.313 50.8936 176.313 51.2837H176.67C176.67 50.8632 176.616 50.4749 176.506 50.1206L176.165 50.2267ZM176.313 51.2837V51.691H176.67V51.2837H176.313ZM176.491 51.5125H171.923V51.8695H176.491V51.5125ZM172.101 51.691V51.122H171.744V51.691H172.101ZM171.923 51.3005H175.828V50.9435H171.923V51.3005ZM176.006 51.122V51.0439H175.649V51.122H176.006ZM176.006 51.04C175.998 50.6792 175.925 50.3398 175.784 50.0233L175.458 50.1679C175.578 50.439 175.642 50.7317 175.649 51.0478L176.006 51.04ZM175.786 50.0257C175.647 49.6997 175.437 49.4321 175.158 49.2266L174.946 49.5142C175.173 49.6806 175.343 49.8964 175.457 50.1654L175.786 50.0257ZM175.158 49.2266C174.868 49.0137 174.513 48.913 174.104 48.913V49.27C174.453 49.27 174.73 49.3552 174.946 49.5142L175.158 49.2266ZM174.104 48.913C173.795 48.913 173.507 48.9782 173.243 49.1103L173.403 49.4296C173.614 49.3238 173.847 49.27 174.104 49.27V48.913ZM173.242 49.1108C172.982 49.2428 172.759 49.4318 172.573 49.6746L172.857 49.8918C173.013 49.6883 173.195 49.5352 173.404 49.4291L173.242 49.1108ZM172.573 49.6749C172.391 49.9136 172.252 50.1955 172.154 50.5177L172.495 50.6218C172.583 50.334 172.704 50.0916 172.857 49.8914L172.573 49.6749ZM172.153 50.519C172.058 50.8392 172.012 51.1913 172.012 51.5738H172.369C172.369 51.2199 172.412 50.9027 172.496 50.6204L172.153 50.519ZM172.012 51.5738V51.8137H172.369V51.5738H172.012ZM172.012 51.8137C172.012 52.1658 172.063 52.4974 172.166 52.8073L172.505 52.6944C172.415 52.4242 172.369 52.131 172.369 51.8137H172.012ZM172.167 52.8099C172.274 53.115 172.426 53.3868 172.622 53.6235L172.897 53.3954C172.729 53.1934 172.598 52.9594 172.504 52.6918L172.167 52.8099ZM172.623 53.6249C172.825 53.8628 173.064 54.0495 173.34 54.1833L173.496 53.8621C173.266 53.7505 173.066 53.595 172.896 53.3941L172.623 53.6249ZM173.34 54.1833C173.619 54.3188 173.925 54.3853 174.255 54.3853V54.0283C173.974 54.0283 173.722 53.972 173.496 53.8621L173.34 54.1833ZM174.255 54.3853C174.633 54.3853 174.976 54.3161 175.279 54.1729L175.127 53.8502C174.879 53.9672 174.59 54.0283 174.255 54.0283V54.3853ZM175.281 54.172C175.585 54.024 175.853 53.7942 176.086 53.4897L175.803 53.2726C175.598 53.5409 175.371 53.7313 175.125 53.851L175.281 54.172ZM175.836 53.5224L176.254 53.8459L176.472 53.5635L176.054 53.24L175.836 53.5224ZM176.215 53.605C176.095 53.783 175.944 53.9491 175.758 54.1029L175.986 54.3776C176.195 54.2041 176.371 54.0132 176.511 53.8044L176.215 53.605ZM175.757 54.104C175.582 54.2519 175.369 54.3721 175.115 54.4626L175.235 54.7989C175.524 54.696 175.776 54.5558 175.988 54.3765L175.757 54.104ZM175.115 54.4626C174.867 54.5509 174.572 54.5972 174.227 54.5972V54.9543C174.603 54.9543 174.94 54.9039 175.235 54.7989L175.115 54.4626Z" fill="white"/>
<defs>
<linearGradient id="paint0_linear_327_759" x1="73.9014" y1="39.1627" x2="147.356" y2="36.8442" gradientUnits="userSpaceOnUse">
<stop stop-color="#655050"/>
<stop offset="1" stop-color="#FDFDFD"/>
</linearGradient>
</defs>
</svg>
