<svg width="466" height="151" viewBox="0 0 466 151" fill="none" xmlns="http://www.w3.org/2000/svg">
<path d="M245.805 67.0903L245.813 70.8314L245.805 67.0903ZM278.556 67.0173L278.564 70.7584L278.556 67.0173ZM190.625 36.147L190.617 32.4059L190.625 36.147ZM223.211 36.0744L223.219 39.8155L223.211 36.0744ZM223.214 37.5708L223.206 33.8297L223.214 37.5708ZM190.458 37.6377L190.455 36.1553L182.972 36.172L182.976 37.6544L190.458 37.6377ZM182.988 37.6584V67.6788H190.47V37.6584H182.988ZM191.967 67.6788V40.0378H184.484V67.6788H191.967ZM223.206 33.8297L190.606 33.9024L190.623 41.3846L223.222 41.312L223.206 33.8297ZM190.634 39.8882L223.219 39.8155L223.202 32.3333L190.617 32.4059L190.634 39.8882ZM191.967 33.7527V4.74823H184.484V33.7527H191.967ZM182.988 4.74823V36.1479H190.47V4.74823H182.988ZM220.233 4.74823V67.6788H227.716V4.74823L220.233 4.74823ZM229.212 67.6788V4.74823H221.73V67.6788H229.212ZM245.65 68.4338V4.83155H238.167V68.4338H245.65ZM242.019 64.7692H241.985V72.2514H242.019V64.7692ZM278.551 64.7726L242.096 64.8539L242.112 72.3361L278.567 72.2548L278.551 64.7726ZM245.813 70.8314L278.564 70.7584L278.547 63.2761L245.796 63.3491L245.813 70.8314ZM239.664 4.83155V64.696H247.146V4.83155H239.664ZM247.146 4.83155C247.146 2.35216 245.136 0.342201 242.657 0.342201V7.82446C241.004 7.82446 239.664 6.48449 239.664 4.83155H247.146ZM245.796 63.3491C246.541 63.3475 247.146 63.951 247.146 64.696H239.664C239.664 68.0898 242.419 70.8389 245.813 70.8314L245.796 63.3491ZM283.047 67.7554C283.041 65.2761 281.027 63.2706 278.547 63.2761L278.564 70.7584C276.911 70.7621 275.568 69.4251 275.564 67.7722L283.047 67.7554ZM278.567 72.2548C281.047 72.2493 283.052 70.2348 283.047 67.7554L275.564 67.7722C275.561 66.1192 276.898 64.7763 278.551 64.7726L278.567 72.2548ZM238.32 68.5611C238.325 70.6508 240.023 72.3407 242.112 72.3361L242.096 64.8539C244.138 64.8493 245.798 66.5014 245.803 68.5442L238.32 68.5611ZM242.019 72.2514C239.98 72.2514 238.325 70.6005 238.32 68.5611L245.803 68.5442C245.798 66.458 244.105 64.7692 242.019 64.7692V72.2514ZM245.65 4.83155C245.65 6.48449 244.31 7.82446 242.657 7.82446V0.342201C240.177 0.342201 238.167 2.35215 238.167 4.83155H245.65ZM238.167 68.4338C238.167 70.5422 239.877 72.2514 241.985 72.2514V64.7692C244.009 64.7692 245.65 66.4099 245.65 68.4338H238.167ZM221.73 67.6788C221.73 66.0258 223.07 64.6859 224.723 64.6859V72.1681C227.202 72.1681 229.212 70.1582 229.212 67.6788H221.73ZM224.723 7.74113C223.07 7.74113 221.73 6.40116 221.73 4.74823H229.212C229.212 2.26882 227.202 0.258873 224.723 0.258873V7.74113ZM220.233 67.6788C220.233 70.1582 222.243 72.1681 224.723 72.1681V64.6859C226.376 64.6859 227.716 66.0258 227.716 67.6788H220.233ZM227.716 4.74823C227.716 6.40116 226.376 7.74113 224.723 7.74113V0.258873C222.243 0.258873 220.233 2.26882 220.233 4.74823L227.716 4.74823ZM187.477 0.258873C184.998 0.258873 182.988 2.26882 182.988 4.74823H190.47C190.47 6.40116 189.13 7.74113 187.477 7.74113V0.258873ZM191.967 4.74823C191.967 2.26882 189.957 0.258873 187.477 0.258873V7.74113C185.824 7.74113 184.484 6.40116 184.484 4.74823H191.967ZM190.617 32.4059C191.362 32.4043 191.967 33.0077 191.967 33.7527H184.484C184.484 37.1466 187.24 39.8957 190.634 39.8882L190.617 32.4059ZM227.702 36.8126C227.696 34.3332 225.682 32.3278 223.202 32.3333L223.219 39.8155C221.566 39.8192 220.223 38.4822 220.219 36.8293L227.702 36.8126ZM223.222 41.312C225.702 41.3064 227.707 39.292 227.702 36.8126L220.219 36.8293C220.216 35.1764 221.553 33.8334 223.206 33.8297L223.222 41.312ZM191.967 40.0378C191.967 40.7805 191.366 41.383 190.623 41.3846L190.606 33.9024C187.223 33.9099 184.484 36.6547 184.484 40.0378H191.967ZM187.477 72.1681C189.957 72.1681 191.967 70.1582 191.967 67.6788H184.484C184.484 66.0258 185.824 64.6859 187.477 64.6859V72.1681ZM182.988 67.6788C182.988 70.1582 184.998 72.1681 187.477 72.1681V64.6859C189.13 64.6859 190.47 66.0258 190.47 67.6788H182.988ZM186.731 41.3933C184.665 41.3978 182.988 39.7243 182.988 37.6584H190.47C190.47 35.5856 188.788 33.9066 186.715 33.9111L186.731 41.3933ZM182.976 37.6544C182.98 39.7239 184.662 41.3978 186.731 41.3933L186.715 33.9111C188.778 33.9066 190.453 35.575 190.458 37.6377L182.976 37.6544ZM186.73 39.8969C188.797 39.8923 190.47 38.2153 190.47 36.1479H182.988C182.988 34.0892 184.655 32.4191 186.713 32.4146L186.73 39.8969ZM186.713 32.4146C184.643 32.4192 182.968 34.1014 182.972 36.172L190.455 36.1553C190.459 38.2171 188.791 39.8923 186.73 39.8969L186.713 32.4146Z" fill="url(#paint0_linear_74_16601)"/>
<mask id="path-2-inside-1_74_16601" fill="white">
<path d="M300.466 80.4401C302.2 80.4401 303.613 81.8467 303.536 83.5788C302.754 101.151 295.425 117.843 282.926 130.333C269.685 143.566 251.726 151 233 151C214.274 151 196.315 143.566 183.074 130.333C170.575 117.843 163.246 101.151 162.464 83.5789C162.386 81.8467 163.799 80.4401 165.533 80.4401L233 80.4401H300.466Z"/>
</mask>
<path d="M300.466 80.4401C302.2 80.4401 303.613 81.8467 303.536 83.5788C302.754 101.151 295.425 117.843 282.926 130.333C269.685 143.566 251.726 151 233 151C214.274 151 196.315 143.566 183.074 130.333C170.575 117.843 163.246 101.151 162.464 83.5789C162.386 81.8467 163.799 80.4401 165.533 80.4401L233 80.4401H300.466Z" stroke="url(#paint1_linear_74_16601)" stroke-width="14.9632" mask="url(#path-2-inside-1_74_16601)"/>
<path d="M91.4079 110.177V111.464H80.5549V110.177H91.4079ZM80.9105 102.169V120.024H79.4022V102.169H80.9105ZM92.622 102.169V120.024H91.1136V102.169H92.622ZM130.025 117.645V110.802C130.025 110.173 129.894 109.629 129.633 109.171C129.371 108.713 128.987 108.362 128.48 108.116C127.973 107.871 127.348 107.748 126.604 107.748C125.917 107.748 125.304 107.871 124.764 108.116C124.233 108.353 123.812 108.676 123.501 109.085C123.198 109.486 123.047 109.931 123.047 110.422L121.576 110.41C121.576 109.911 121.698 109.429 121.944 108.963C122.189 108.497 122.536 108.08 122.986 107.712C123.436 107.344 123.971 107.054 124.592 106.841C125.222 106.62 125.913 106.51 126.665 106.51C127.613 106.51 128.447 106.669 129.167 106.988C129.894 107.307 130.462 107.785 130.871 108.423C131.28 109.061 131.484 109.862 131.484 110.827V117.24C131.484 117.698 131.517 118.172 131.583 118.663C131.656 119.153 131.758 119.558 131.889 119.877V120.024H130.332C130.234 119.73 130.156 119.362 130.099 118.92C130.05 118.471 130.025 118.046 130.025 117.645ZM130.368 112.298L130.393 113.426H127.511C126.759 113.426 126.084 113.496 125.488 113.635C124.899 113.766 124.4 113.962 123.992 114.224C123.583 114.477 123.268 114.784 123.047 115.143C122.835 115.503 122.728 115.912 122.728 116.37C122.728 116.844 122.847 117.277 123.084 117.669C123.329 118.062 123.673 118.377 124.114 118.614C124.564 118.843 125.095 118.957 125.708 118.957C126.526 118.957 127.245 118.806 127.867 118.503C128.496 118.201 129.015 117.804 129.424 117.314C129.833 116.823 130.107 116.288 130.246 115.707L130.883 116.554C130.777 116.962 130.581 117.383 130.295 117.817C130.017 118.242 129.653 118.642 129.203 119.018C128.754 119.386 128.222 119.689 127.609 119.926C127.004 120.155 126.317 120.269 125.549 120.269C124.682 120.269 123.926 120.106 123.28 119.779C122.643 119.452 122.144 119.006 121.784 118.442C121.433 117.87 121.257 117.224 121.257 116.504C121.257 115.85 121.396 115.266 121.674 114.751C121.952 114.228 122.352 113.786 122.876 113.426C123.407 113.058 124.045 112.781 124.789 112.592C125.541 112.396 126.383 112.298 127.315 112.298H130.368ZM161.983 109.306V125.126H160.512V106.755H161.885L161.983 109.306ZM171.205 113.267V113.524C171.205 114.514 171.091 115.421 170.862 116.247C170.633 117.073 170.302 117.788 169.869 118.393C169.443 118.99 168.916 119.452 168.287 119.779C167.657 120.106 166.942 120.269 166.14 120.269C165.347 120.269 164.64 120.147 164.019 119.901C163.398 119.656 162.862 119.309 162.412 118.859C161.971 118.401 161.615 117.87 161.346 117.265C161.084 116.652 160.9 115.981 160.794 115.254V111.857C160.916 111.055 161.117 110.328 161.395 109.674C161.673 109.02 162.028 108.456 162.461 107.981C162.903 107.507 163.426 107.143 164.031 106.89C164.636 106.637 165.327 106.51 166.104 106.51C166.913 106.51 167.633 106.669 168.262 106.988C168.9 107.299 169.435 107.753 169.869 108.349C170.31 108.938 170.641 109.649 170.862 110.483C171.091 111.309 171.205 112.237 171.205 113.267ZM169.734 113.524V113.267C169.734 112.49 169.652 111.771 169.488 111.109C169.333 110.446 169.092 109.87 168.765 109.38C168.446 108.881 168.037 108.492 167.538 108.214C167.048 107.937 166.463 107.798 165.785 107.798C165.082 107.798 164.481 107.916 163.982 108.153C163.492 108.382 163.083 108.689 162.756 109.073C162.429 109.449 162.171 109.862 161.983 110.312C161.795 110.761 161.656 111.203 161.566 111.636V115.548C161.722 116.169 161.971 116.746 162.314 117.277C162.658 117.8 163.116 118.221 163.688 118.54C164.268 118.851 164.975 119.006 165.809 119.006C166.48 119.006 167.06 118.867 167.551 118.589C168.041 118.311 168.446 117.923 168.765 117.424C169.092 116.926 169.333 116.345 169.488 115.683C169.652 115.021 169.734 114.301 169.734 113.524ZM201.03 109.306V125.126H199.558V106.755H200.931L201.03 109.306ZM210.252 113.267V113.524C210.252 114.514 210.137 115.421 209.908 116.247C209.679 117.073 209.348 117.788 208.915 118.393C208.49 118.99 207.962 119.452 207.333 119.779C206.703 120.106 205.988 120.269 205.187 120.269C204.394 120.269 203.687 120.147 203.065 119.901C202.444 119.656 201.908 119.309 201.459 118.859C201.017 118.401 200.662 117.87 200.392 117.265C200.13 116.652 199.946 115.981 199.84 115.254V111.857C199.963 111.055 200.163 110.328 200.441 109.674C200.719 109.02 201.075 108.456 201.508 107.981C201.949 107.507 202.473 107.143 203.078 106.89C203.683 106.637 204.373 106.51 205.15 106.51C205.959 106.51 206.679 106.669 207.308 106.988C207.946 107.299 208.482 107.753 208.915 108.349C209.356 108.938 209.687 109.649 209.908 110.483C210.137 111.309 210.252 112.237 210.252 113.267ZM208.78 113.524V113.267C208.78 112.49 208.698 111.771 208.535 111.109C208.379 110.446 208.138 109.87 207.811 109.38C207.492 108.881 207.084 108.492 206.585 108.214C206.094 107.937 205.51 107.798 204.831 107.798C204.128 107.798 203.527 107.916 203.028 108.153C202.538 108.382 202.129 108.689 201.802 109.073C201.475 109.449 201.218 109.862 201.03 110.312C200.842 110.761 200.703 111.203 200.613 111.636V115.548C200.768 116.169 201.017 116.746 201.361 117.277C201.704 117.8 202.162 118.221 202.734 118.54C203.315 118.851 204.022 119.006 204.856 119.006C205.526 119.006 206.107 118.867 206.597 118.589C207.088 118.311 207.492 117.923 207.811 117.424C208.138 116.926 208.379 116.345 208.535 115.683C208.698 115.021 208.78 114.301 208.78 113.524ZM242.418 118.7L246.551 106.755H248.133L242.516 122.158C242.402 122.46 242.255 122.796 242.075 123.163C241.903 123.531 241.674 123.883 241.388 124.218C241.11 124.561 240.759 124.839 240.333 125.052C239.916 125.273 239.406 125.383 238.801 125.383C238.645 125.383 238.445 125.363 238.2 125.322C237.963 125.289 237.791 125.256 237.685 125.224L237.672 123.985C237.762 124.01 237.893 124.03 238.065 124.046C238.236 124.063 238.355 124.071 238.42 124.071C238.952 124.071 239.397 123.981 239.757 123.801C240.125 123.621 240.432 123.351 240.677 122.992C240.922 122.64 241.139 122.199 241.327 121.667L242.418 118.7ZM238.555 106.755L242.786 118.148L243.179 119.681L242.112 120.282L236.961 106.755H238.555ZM286.21 118.736V120.024H276.952V118.736H286.21ZM277.393 102.169V120.024H275.885V102.169H277.393ZM315.532 106.755V120.024H314.073V106.755H315.532ZM313.815 102.917C313.815 102.639 313.901 102.406 314.073 102.218C314.253 102.022 314.498 101.923 314.808 101.923C315.119 101.923 315.364 102.022 315.544 102.218C315.732 102.406 315.826 102.639 315.826 102.917C315.826 103.187 315.732 103.42 315.544 103.616C315.364 103.804 315.119 103.898 314.808 103.898C314.498 103.898 314.253 103.804 314.073 103.616C313.901 103.42 313.815 103.187 313.815 102.917ZM347.171 120.024H345.712V105.112C345.712 104.204 345.867 103.44 346.178 102.819C346.497 102.197 346.946 101.727 347.527 101.408C348.116 101.09 348.815 100.93 349.624 100.93C349.877 100.93 350.139 100.946 350.409 100.979C350.679 101.004 350.94 101.057 351.194 101.139L351.083 102.377C350.879 102.32 350.67 102.283 350.458 102.267C350.253 102.242 350.012 102.23 349.734 102.23C349.203 102.23 348.745 102.344 348.361 102.573C347.977 102.794 347.682 103.117 347.478 103.542C347.274 103.967 347.171 104.491 347.171 105.112V120.024ZM350.335 106.755V107.957H343.517V106.755H350.335ZM382.919 120.269C382.052 120.269 381.255 120.11 380.527 119.791C379.808 119.472 379.179 119.023 378.639 118.442C378.108 117.862 377.695 117.175 377.4 116.382C377.114 115.581 376.971 114.706 376.971 113.758V113.23C376.971 112.208 377.122 111.284 377.425 110.459C377.727 109.633 378.144 108.926 378.676 108.337C379.207 107.748 379.812 107.299 380.491 106.988C381.177 106.669 381.897 106.51 382.649 106.51C383.491 106.51 384.239 106.661 384.893 106.964C385.547 107.258 386.095 107.679 386.537 108.227C386.986 108.766 387.325 109.408 387.554 110.152C387.783 110.888 387.898 111.701 387.898 112.592V113.488H377.854V112.237H386.438V112.065C386.422 111.321 386.271 110.626 385.985 109.98C385.707 109.326 385.29 108.795 384.734 108.386C384.178 107.977 383.483 107.773 382.649 107.773C382.028 107.773 381.455 107.904 380.932 108.165C380.417 108.427 379.972 108.803 379.595 109.294C379.228 109.776 378.941 110.352 378.737 111.023C378.541 111.685 378.443 112.421 378.443 113.23V113.758C378.443 114.493 378.549 115.18 378.762 115.818C378.982 116.447 379.293 117.003 379.694 117.486C380.102 117.968 380.585 118.344 381.141 118.614C381.697 118.884 382.31 119.018 382.98 119.018C383.765 119.018 384.46 118.875 385.065 118.589C385.67 118.295 386.214 117.833 386.696 117.203L387.616 117.915C387.33 118.34 386.97 118.732 386.537 119.092C386.111 119.452 385.6 119.738 385.004 119.95C384.407 120.163 383.712 120.269 382.919 120.269Z" fill="#782228"/>
<path d="M91.4079 110.177H91.8004V109.784H91.4079V110.177ZM91.4079 111.464V111.857H91.8004V111.464H91.4079ZM80.5549 111.464H80.1625V111.857H80.5549V111.464ZM80.5549 110.177V109.784H80.1625V110.177H80.5549ZM80.9106 102.169H81.303V101.776H80.9106V102.169ZM80.9106 120.024V120.416H81.303V120.024H80.9106ZM79.4022 120.024H79.0097V120.416H79.4022V120.024ZM79.4022 102.169V101.776H79.0097V102.169H79.4022ZM92.622 102.169H93.0144V101.776H92.622V102.169ZM92.622 120.024V120.416H93.0144V120.024H92.622ZM91.1136 120.024H90.7212V120.416H91.1136V120.024ZM91.1136 102.169V101.776H90.7212V102.169H91.1136ZM91.0155 110.177V111.464H91.8004V110.177H91.0155ZM91.4079 111.072H80.5549V111.857H91.4079V111.072ZM80.9473 111.464V110.177H80.1625V111.464H80.9473ZM80.5549 110.569H91.4079V109.784H80.5549V110.569ZM80.5181 102.169V120.024H81.303V102.169H80.5181ZM80.9106 119.632H79.4022V120.416H80.9106V119.632ZM79.7946 120.024V102.169H79.0097V120.024H79.7946ZM79.4022 102.561H80.9106V101.776H79.4022V102.561ZM92.2296 102.169V120.024H93.0144V102.169H92.2296ZM92.622 119.632H91.1136V120.416H92.622V119.632ZM91.506 120.024V102.169H90.7212V120.024H91.506ZM91.1136 102.561H92.622V101.776H91.1136V102.561ZM124.764 108.116L124.924 108.475L124.926 108.474L124.764 108.116ZM123.501 109.085L123.189 108.848L123.188 108.849L123.501 109.085ZM123.047 110.422L123.044 110.814L123.44 110.818V110.422H123.047ZM121.576 110.41H121.183V110.799L121.572 110.802L121.576 110.41ZM124.592 106.841L124.719 107.212L124.722 107.211L124.592 106.841ZM129.167 106.988L129.008 107.347L129.009 107.348L129.167 106.988ZM131.583 118.663L131.193 118.715L131.194 118.721L131.583 118.663ZM131.889 119.877H132.282V119.8L132.252 119.728L131.889 119.877ZM131.889 120.024V120.416H132.282V120.024H131.889ZM130.332 120.024L129.959 120.148L130.049 120.416H130.332V120.024ZM130.099 118.92L129.708 118.963L129.709 118.971L130.099 118.92ZM130.368 112.298L130.761 112.29L130.752 111.906H130.368V112.298ZM130.393 113.426V113.819H130.794L130.785 113.418L130.393 113.426ZM125.488 113.635L125.573 114.018L125.577 114.017L125.488 113.635ZM123.992 114.224L124.198 114.557L124.203 114.554L123.992 114.224ZM123.047 115.143L122.713 114.938L122.709 114.944L123.047 115.143ZM123.084 117.669L122.748 117.872L122.751 117.877L123.084 117.669ZM124.114 118.614L123.928 118.96L123.936 118.963L124.114 118.614ZM127.867 118.503L127.697 118.15L127.695 118.151L127.867 118.503ZM130.246 115.707L130.559 115.471L130.058 114.806L129.864 115.616L130.246 115.707ZM130.883 116.554L131.263 116.652L131.311 116.469L131.197 116.317L130.883 116.554ZM130.295 117.817L129.967 117.6L129.966 117.602L130.295 117.817ZM129.203 119.018L129.452 119.322L129.455 119.319L129.203 119.018ZM127.609 119.926L127.748 120.293L127.751 120.292L127.609 119.926ZM123.28 119.779L123.101 120.128L123.103 120.129L123.28 119.779ZM121.784 118.442L121.45 118.648L121.453 118.653L121.784 118.442ZM121.674 114.751L122.019 114.937L122.02 114.935L121.674 114.751ZM122.876 113.426L123.098 113.75L123.099 113.749L122.876 113.426ZM124.789 112.592L124.885 112.973L124.888 112.972L124.789 112.592ZM130.417 117.645V110.802H129.633V117.645H130.417ZM130.417 110.802C130.417 110.117 130.275 109.504 129.973 108.976L129.292 109.366C129.514 109.754 129.633 110.228 129.633 110.802H130.417ZM129.973 108.976C129.67 108.445 129.224 108.04 128.651 107.763L128.309 108.47C128.75 108.683 129.072 108.981 129.292 109.366L129.973 108.976ZM128.651 107.763C128.076 107.485 127.389 107.356 126.604 107.356V108.141C127.307 108.141 127.87 108.257 128.309 108.47L128.651 107.763ZM126.604 107.356C125.87 107.356 125.2 107.487 124.602 107.759L124.926 108.474C125.408 108.255 125.964 108.141 126.604 108.141V107.356ZM124.604 107.758C124.021 108.018 123.544 108.38 123.189 108.848L123.813 109.323C124.079 108.973 124.445 108.689 124.924 108.475L124.604 107.758ZM123.188 108.849C122.835 109.316 122.655 109.844 122.655 110.422H123.44C123.44 110.019 123.562 109.656 123.814 109.322L123.188 108.849ZM123.051 110.029L121.579 110.017L121.572 110.802L123.044 110.814L123.051 110.029ZM121.968 110.41C121.968 109.978 122.073 109.558 122.291 109.145L121.596 108.78C121.323 109.299 121.183 109.844 121.183 110.41H121.968ZM122.291 109.145C122.509 108.73 122.821 108.353 123.234 108.015L122.737 107.408C122.251 107.806 121.868 108.263 121.596 108.78L122.291 109.145ZM123.234 108.015C123.644 107.681 124.137 107.412 124.719 107.212L124.465 106.47C123.806 106.695 123.228 107.007 122.737 107.408L123.234 108.015ZM124.722 107.211C125.305 107.007 125.951 106.902 126.665 106.902V106.117C125.874 106.117 125.139 106.234 124.463 106.471L124.722 107.211ZM126.665 106.902C127.57 106.902 128.347 107.054 129.008 107.347L129.326 106.629C128.547 106.284 127.657 106.117 126.665 106.117V106.902ZM129.009 107.348C129.669 107.637 130.176 108.066 130.541 108.635L131.202 108.211C130.749 107.505 130.119 106.977 129.324 106.629L129.009 107.348ZM130.541 108.635C130.899 109.194 131.092 109.917 131.092 110.827H131.877C131.877 109.807 131.661 108.927 131.202 108.211L130.541 108.635ZM131.092 110.827V117.24H131.877V110.827H131.092ZM131.092 117.24C131.092 117.717 131.126 118.208 131.194 118.715L131.971 118.611C131.908 118.136 131.877 117.679 131.877 117.24H131.092ZM131.194 118.721C131.271 119.23 131.379 119.668 131.526 120.026L132.252 119.728C132.137 119.448 132.041 119.076 131.971 118.605L131.194 118.721ZM131.497 119.877V120.024H132.282V119.877H131.497ZM131.889 119.632H130.332V120.416H131.889V119.632ZM130.704 119.9C130.616 119.637 130.543 119.296 130.488 118.87L129.709 118.971C129.769 119.428 129.851 119.822 129.959 120.148L130.704 119.9ZM130.489 118.878C130.441 118.441 130.417 118.03 130.417 117.645H129.633C129.633 118.061 129.658 118.501 129.709 118.963L130.489 118.878ZM129.976 112.307L130.001 113.435L130.785 113.418L130.761 112.29L129.976 112.307ZM130.393 113.034H127.511V113.819H130.393V113.034ZM127.511 113.034C126.735 113.034 126.03 113.106 125.399 113.253L125.577 114.017C126.139 113.886 126.782 113.819 127.511 113.819V113.034ZM125.403 113.252C124.779 113.39 124.236 113.601 123.78 113.893L124.203 114.554C124.565 114.322 125.019 114.141 125.573 114.018L125.403 113.252ZM123.785 113.89C123.331 114.171 122.97 114.519 122.713 114.938L123.382 115.348C123.566 115.048 123.834 114.783 124.198 114.557L123.785 113.89ZM122.709 114.944C122.458 115.37 122.336 115.848 122.336 116.37H123.121C123.121 115.975 123.212 115.636 123.385 115.343L122.709 114.944ZM122.336 116.37C122.336 116.913 122.473 117.417 122.748 117.872L123.42 117.467C123.221 117.138 123.121 116.775 123.121 116.37H122.336ZM122.751 117.877C123.036 118.333 123.432 118.693 123.928 118.959L124.3 118.268C123.913 118.061 123.623 117.791 123.417 117.462L122.751 117.877ZM123.936 118.963C124.452 119.226 125.046 119.35 125.708 119.35V118.565C125.144 118.565 124.676 118.459 124.292 118.264L123.936 118.963ZM125.708 119.35C126.575 119.35 127.355 119.189 128.038 118.856L127.695 118.151C127.136 118.423 126.477 118.565 125.708 118.565V119.35ZM128.037 118.857C128.712 118.533 129.278 118.103 129.726 117.565L129.123 117.063C128.753 117.506 128.28 117.869 127.697 118.15L128.037 118.857ZM129.726 117.565C130.17 117.031 130.473 116.442 130.627 115.799L129.864 115.616C129.74 116.134 129.496 116.615 129.123 117.063L129.726 117.565ZM129.932 115.944L130.57 116.79L131.197 116.317L130.559 115.471L129.932 115.944ZM130.504 116.455C130.41 116.813 130.235 117.195 129.967 117.6L130.622 118.033C130.927 117.572 131.144 117.111 131.263 116.652L130.504 116.455ZM129.966 117.602C129.713 117.99 129.376 118.362 128.952 118.717L129.455 119.319C129.93 118.922 130.321 118.493 130.623 118.031L129.966 117.602ZM128.955 118.715C128.541 119.053 128.047 119.336 127.468 119.56L127.751 120.292C128.398 120.042 128.966 119.72 129.452 119.322L128.955 118.715ZM127.47 119.559C126.917 119.768 126.279 119.877 125.549 119.877V120.662C126.356 120.662 127.091 120.542 127.748 120.293L127.47 119.559ZM125.549 119.877C124.732 119.877 124.039 119.723 123.458 119.429L123.103 120.129C123.814 120.489 124.633 120.662 125.549 120.662V119.877ZM123.459 119.43C122.879 119.132 122.435 118.732 122.115 118.231L121.453 118.653C121.853 119.28 122.406 119.772 123.101 120.128L123.459 119.43ZM122.118 118.237C121.808 117.731 121.649 117.157 121.649 116.504H120.864C120.864 117.291 121.058 118.009 121.45 118.647L122.118 118.237ZM121.649 116.504C121.649 115.908 121.776 115.389 122.019 114.937L121.328 114.564C121.016 115.143 120.864 115.793 120.864 116.504H121.649ZM122.02 114.935C122.267 114.471 122.623 114.076 123.098 113.75L122.653 113.103C122.082 113.496 121.637 113.984 121.327 114.567L122.02 114.935ZM123.099 113.749C123.585 113.412 124.178 113.152 124.885 112.973L124.692 112.212C123.911 112.409 123.229 112.705 122.652 113.104L123.099 113.749ZM124.888 112.972C125.602 112.786 126.41 112.691 127.315 112.691V111.906C126.356 111.906 125.48 112.007 124.69 112.213L124.888 112.972ZM127.315 112.691H130.368V111.906H127.315V112.691ZM161.983 109.306H162.376V109.298L162.375 109.291L161.983 109.306ZM161.983 125.126V125.518H162.376V125.126H161.983ZM160.512 125.126H160.119V125.518H160.512V125.126ZM160.512 106.755V106.363H160.119V106.755H160.512ZM161.885 106.755L162.277 106.74L162.263 106.363H161.885V106.755ZM169.869 118.393L169.549 118.165L169.549 118.165L169.869 118.393ZM162.412 118.859L162.13 119.131L162.135 119.137L162.412 118.859ZM161.346 117.265L160.985 117.419L160.987 117.425L161.346 117.265ZM160.794 115.254H160.401V115.282L160.405 115.31L160.794 115.254ZM160.794 111.857L160.406 111.797L160.401 111.827V111.857H160.794ZM162.461 107.981L162.174 107.714L162.172 107.717L162.461 107.981ZM168.262 106.988L168.085 107.338L168.09 107.341L168.262 106.988ZM169.869 108.349L169.551 108.58L169.555 108.585L169.869 108.349ZM170.862 110.483L170.482 110.584L170.484 110.588L170.862 110.483ZM169.488 111.109L169.106 111.198L169.107 111.203L169.488 111.109ZM168.765 109.38L168.434 109.591L168.438 109.597L168.765 109.38ZM167.538 108.214L167.345 108.556L167.347 108.557L167.538 108.214ZM163.982 108.153L164.148 108.509L164.151 108.508L163.982 108.153ZM162.756 109.073L163.052 109.33L163.055 109.327L162.756 109.073ZM161.566 111.636L161.182 111.556L161.174 111.596V111.636H161.566ZM161.566 115.548H161.174V115.596L161.186 115.643L161.566 115.548ZM162.314 117.277L161.985 117.49L161.986 117.492L162.314 117.277ZM163.688 118.54L163.497 118.883L163.503 118.886L163.688 118.54ZM168.765 117.424L168.437 117.209L168.434 117.213L168.765 117.424ZM169.488 115.683L169.107 115.589L169.106 115.593L169.488 115.683ZM161.591 109.306V125.126H162.376V109.306H161.591ZM161.983 124.733H160.512V125.518H161.983V124.733ZM160.904 125.126V106.755H160.119V125.126H160.904ZM160.512 107.148H161.885V106.363H160.512V107.148ZM161.493 106.77L161.591 109.321L162.375 109.291L162.277 106.74L161.493 106.77ZM170.813 113.267V113.524H171.598V113.267H170.813ZM170.813 113.524C170.813 114.484 170.702 115.355 170.484 116.142L171.24 116.352C171.48 115.487 171.598 114.544 171.598 113.524H170.813ZM170.484 116.142C170.265 116.93 169.952 117.602 169.549 118.165L170.188 118.622C170.651 117.974 171.001 117.215 171.24 116.352L170.484 116.142ZM169.549 118.165C169.159 118.713 168.678 119.133 168.106 119.431L168.467 120.127C169.154 119.77 169.728 119.266 170.188 118.621L169.549 118.165ZM168.106 119.431C167.539 119.725 166.887 119.877 166.14 119.877V120.662C166.996 120.662 167.775 120.487 168.467 120.127L168.106 119.431ZM166.14 119.877C165.388 119.877 164.731 119.761 164.163 119.536L163.875 120.266C164.55 120.533 165.307 120.662 166.14 120.662V119.877ZM164.163 119.536C163.589 119.31 163.1 118.991 162.69 118.582L162.135 119.137C162.625 119.626 163.206 120.002 163.875 120.266L164.163 119.536ZM162.695 118.587C162.286 118.163 161.956 117.67 161.704 117.105L160.987 117.425C161.275 118.07 161.656 118.639 162.13 119.131L162.695 118.587ZM161.706 117.111C161.459 116.532 161.284 115.894 161.182 115.197L160.405 115.31C160.516 116.068 160.708 116.772 160.985 117.419L161.706 117.111ZM161.186 115.254V111.857H160.401V115.254H161.186ZM161.182 111.916C161.3 111.143 161.492 110.447 161.756 109.827L161.033 109.52C160.741 110.208 160.533 110.968 160.406 111.797L161.182 111.916ZM161.756 109.827C162.018 109.21 162.351 108.684 162.751 108.246L162.172 107.717C161.706 108.227 161.327 108.83 161.033 109.52L161.756 109.827ZM162.749 108.249C163.152 107.816 163.629 107.484 164.183 107.252L163.88 106.528C163.224 106.803 162.654 107.199 162.174 107.714L162.749 108.249ZM164.183 107.252C164.732 107.022 165.37 106.902 166.104 106.902V106.117C165.284 106.117 164.541 106.251 163.88 106.528L164.183 107.252ZM166.104 106.902C166.861 106.902 167.518 107.051 168.085 107.338L168.439 106.638C167.747 106.288 166.966 106.117 166.104 106.117V106.902ZM168.09 107.341C168.668 107.622 169.154 108.033 169.551 108.58L170.186 108.119C169.717 107.472 169.132 106.975 168.434 106.635L168.09 107.341ZM169.555 108.585C169.961 109.127 170.272 109.79 170.482 110.584L171.241 110.383C171.01 109.508 170.659 108.749 170.182 108.114L169.555 108.585ZM170.484 110.588C170.701 111.374 170.813 112.265 170.813 113.267H171.598C171.598 112.208 171.48 111.244 171.24 110.378L170.484 110.588ZM170.126 113.524V113.267H169.341V113.524H170.126ZM170.126 113.267C170.126 112.463 170.041 111.711 169.869 111.015L169.107 111.203C169.262 111.83 169.341 112.518 169.341 113.267H170.126ZM169.87 111.019C169.706 110.318 169.448 109.697 169.091 109.162L168.438 109.597C168.736 110.043 168.96 110.575 169.106 111.198L169.87 111.019ZM169.095 109.168C168.743 108.617 168.287 108.182 167.73 107.872L167.347 108.557C167.787 108.802 168.149 109.145 168.434 109.591L169.095 109.168ZM167.732 107.873C167.171 107.555 166.517 107.405 165.785 107.405V108.19C166.409 108.19 166.924 108.318 167.345 108.556L167.732 107.873ZM165.785 107.405C165.039 107.405 164.377 107.531 163.814 107.799L164.151 108.508C164.584 108.301 165.125 108.19 165.785 108.19V107.405ZM163.816 107.798C163.278 108.049 162.823 108.388 162.457 108.819L163.055 109.327C163.343 108.989 163.705 108.716 164.148 108.509L163.816 107.798ZM162.46 108.815C162.106 109.222 161.826 109.671 161.621 110.16L162.345 110.463C162.517 110.053 162.752 109.676 163.052 109.33L162.46 108.815ZM161.621 110.16C161.424 110.631 161.278 111.096 161.182 111.556L161.951 111.716C162.035 111.309 162.166 110.892 162.345 110.463L161.621 110.16ZM161.174 111.636V115.548H161.959V111.636H161.174ZM161.186 115.643C161.351 116.306 161.618 116.922 161.985 117.49L162.644 117.064C162.324 116.569 162.092 116.033 161.947 115.453L161.186 115.643ZM161.986 117.492C162.366 118.071 162.872 118.535 163.497 118.883L163.879 118.197C163.359 117.908 162.949 117.53 162.642 117.062L161.986 117.492ZM163.503 118.886C164.153 119.234 164.928 119.399 165.809 119.399V118.614C165.023 118.614 164.383 118.467 163.873 118.194L163.503 118.886ZM165.809 119.399C166.535 119.399 167.184 119.248 167.744 118.931L167.357 118.248C166.936 118.487 166.425 118.614 165.809 118.614V119.399ZM167.744 118.931C168.293 118.62 168.744 118.185 169.095 117.636L168.434 117.213C168.148 117.66 167.789 118.003 167.357 118.248L167.744 118.931ZM169.093 117.639C169.448 117.097 169.706 116.473 169.87 115.772L169.106 115.593C168.96 116.217 168.735 116.754 168.437 117.209L169.093 117.639ZM169.869 115.777C170.041 115.08 170.126 114.329 170.126 113.524H169.341C169.341 114.274 169.262 114.961 169.107 115.589L169.869 115.777ZM201.03 109.306H201.422V109.298L201.422 109.291L201.03 109.306ZM201.03 125.126V125.518H201.422V125.126H201.03ZM199.558 125.126H199.166V125.518H199.558V125.126ZM199.558 106.755V106.363H199.166V106.755H199.558ZM200.931 106.755L201.324 106.74L201.309 106.363H200.931V106.755ZM208.915 118.393L208.596 118.165L208.595 118.165L208.915 118.393ZM201.459 118.859L201.176 119.131L201.181 119.137L201.459 118.859ZM200.392 117.265L200.031 117.419L200.033 117.425L200.392 117.265ZM199.84 115.254H199.448V115.282L199.452 115.31L199.84 115.254ZM199.84 111.857L199.452 111.797L199.448 111.827V111.857H199.84ZM201.508 107.981L201.221 107.714L201.218 107.717L201.508 107.981ZM207.308 106.988L207.131 107.338L207.137 107.341L207.308 106.988ZM208.915 108.349L208.597 108.58L208.601 108.585L208.915 108.349ZM209.908 110.483L209.529 110.584L209.53 110.588L209.908 110.483ZM208.535 111.109L208.153 111.198L208.154 111.203L208.535 111.109ZM207.811 109.38L207.48 109.591L207.485 109.597L207.811 109.38ZM206.585 108.214L206.391 108.556L206.394 108.557L206.585 108.214ZM203.028 108.153L203.194 108.509L203.197 108.508L203.028 108.153ZM201.802 109.073L202.098 109.33L202.101 109.327L201.802 109.073ZM200.613 111.636L200.228 111.556L200.22 111.596V111.636H200.613ZM200.613 115.548H200.22V115.596L200.232 115.643L200.613 115.548ZM201.361 117.277L201.031 117.49L201.033 117.492L201.361 117.277ZM202.734 118.54L202.543 118.883L202.549 118.886L202.734 118.54ZM207.811 117.424L207.483 117.209L207.481 117.213L207.811 117.424ZM208.535 115.683L208.154 115.589L208.153 115.593L208.535 115.683ZM200.637 109.306V125.126H201.422V109.306H200.637ZM201.03 124.733H199.558V125.518H201.03V124.733ZM199.95 125.126V106.755H199.166V125.126H199.95ZM199.558 107.148H200.931V106.363H199.558V107.148ZM200.539 106.77L200.637 109.321L201.422 109.291L201.324 106.74L200.539 106.77ZM209.859 113.267V113.524H210.644V113.267H209.859ZM209.859 113.524C209.859 114.484 209.748 115.355 209.53 116.142L210.286 116.352C210.526 115.487 210.644 114.544 210.644 113.524H209.859ZM209.53 116.142C209.312 116.93 208.999 117.602 208.596 118.165L209.234 118.622C209.698 117.974 210.047 117.215 210.286 116.352L209.53 116.142ZM208.595 118.165C208.205 118.713 207.725 119.133 207.152 119.431L207.514 120.127C208.2 119.77 208.775 119.266 209.234 118.621L208.595 118.165ZM207.152 119.431C206.585 119.725 205.933 119.877 205.187 119.877V120.662C206.043 120.662 206.822 120.487 207.514 120.127L207.152 119.431ZM205.187 119.877C204.434 119.877 203.777 119.761 203.209 119.536L202.921 120.266C203.596 120.533 204.354 120.662 205.187 120.662V119.877ZM203.209 119.536C202.635 119.31 202.146 118.991 201.736 118.582L201.181 119.137C201.671 119.626 202.252 120.002 202.921 120.266L203.209 119.536ZM201.741 118.587C201.333 118.163 201.002 117.67 200.75 117.105L200.033 117.425C200.321 118.07 200.702 118.639 201.176 119.131L201.741 118.587ZM200.753 117.111C200.506 116.532 200.33 115.894 200.228 115.197L199.452 115.31C199.562 116.068 199.755 116.772 200.031 117.419L200.753 117.111ZM200.232 115.254V111.857H199.448V115.254H200.232ZM200.228 111.916C200.346 111.143 200.539 110.447 200.802 109.827L200.08 109.52C199.787 110.208 199.579 110.968 199.452 111.797L200.228 111.916ZM200.802 109.827C201.065 109.21 201.397 108.684 201.798 108.246L201.218 107.717C200.752 108.227 200.373 108.83 200.08 109.52L200.802 109.827ZM201.795 108.249C202.198 107.816 202.675 107.484 203.229 107.252L202.926 106.528C202.27 106.803 201.701 107.199 201.221 107.714L201.795 108.249ZM203.229 107.252C203.778 107.022 204.416 106.902 205.15 106.902V106.117C204.331 106.117 203.587 106.251 202.926 106.528L203.229 107.252ZM205.15 106.902C205.907 106.902 206.564 107.051 207.131 107.338L207.486 106.638C206.794 106.288 206.012 106.117 205.15 106.117V106.902ZM207.137 107.341C207.714 107.622 208.2 108.033 208.597 108.58L209.232 108.119C208.763 107.472 208.178 106.975 207.48 106.635L207.137 107.341ZM208.601 108.585C209.007 109.127 209.319 109.79 209.529 110.584L210.288 110.383C210.056 109.508 209.705 108.749 209.229 108.114L208.601 108.585ZM209.53 110.588C209.748 111.374 209.859 112.265 209.859 113.267H210.644C210.644 112.208 210.526 111.244 210.286 110.378L209.53 110.588ZM209.172 113.524V113.267H208.388V113.524H209.172ZM209.172 113.267C209.172 112.463 209.088 111.711 208.916 111.015L208.154 111.203C208.309 111.83 208.388 112.518 208.388 113.267H209.172ZM208.917 111.019C208.752 110.318 208.494 109.697 208.138 109.162L207.485 109.597C207.782 110.043 208.006 110.575 208.153 111.198L208.917 111.019ZM208.142 109.168C207.789 108.617 207.333 108.182 206.776 107.872L206.394 108.557C206.834 108.802 207.195 109.145 207.481 109.591L208.142 109.168ZM206.778 107.873C206.218 107.555 205.564 107.405 204.831 107.405V108.19C205.456 108.19 205.971 108.318 206.391 108.556L206.778 107.873ZM204.831 107.405C204.085 107.405 203.424 107.531 202.86 107.799L203.197 108.508C203.631 108.301 204.171 108.19 204.831 108.19V107.405ZM202.863 107.798C202.325 108.049 201.869 108.388 201.503 108.819L202.101 109.327C202.389 108.989 202.751 108.716 203.194 108.509L202.863 107.798ZM201.506 108.815C201.152 109.222 200.872 109.671 200.668 110.16L201.392 110.463C201.563 110.053 201.798 109.676 202.098 109.33L201.506 108.815ZM200.668 110.16C200.471 110.631 200.324 111.096 200.228 111.556L200.997 111.716C201.081 111.309 201.212 110.892 201.392 110.463L200.668 110.16ZM200.22 111.636V115.548H201.005V111.636H200.22ZM200.232 115.643C200.398 116.306 200.664 116.922 201.031 117.49L201.69 117.064C201.371 116.569 201.138 116.033 200.993 115.453L200.232 115.643ZM201.033 117.492C201.412 118.071 201.918 118.535 202.543 118.883L202.925 118.197C202.406 117.908 201.996 117.53 201.689 117.062L201.033 117.492ZM202.549 118.886C203.2 119.234 203.974 119.399 204.856 119.399V118.614C204.07 118.614 203.43 118.467 202.919 118.194L202.549 118.886ZM204.856 119.399C205.581 119.399 206.231 119.248 206.791 118.931L206.404 118.248C205.982 118.487 205.471 118.614 204.856 118.614V119.399ZM206.791 118.931C207.34 118.62 207.79 118.185 208.142 117.636L207.481 117.213C207.194 117.66 206.836 118.003 206.404 118.248L206.791 118.931ZM208.139 117.639C208.495 117.097 208.752 116.473 208.917 115.772L208.153 115.593C208.006 116.217 207.782 116.754 207.483 117.209L208.139 117.639ZM208.916 115.777C209.088 115.08 209.172 114.329 209.172 113.524H208.388C208.388 114.274 208.309 114.961 208.154 115.589L208.916 115.777ZM242.418 118.7L242.787 118.835L242.789 118.828L242.418 118.7ZM246.551 106.755V106.363H246.271L246.18 106.627L246.551 106.755ZM248.133 106.755L248.502 106.89L248.694 106.363H248.133V106.755ZM242.516 122.158L242.883 122.297L242.885 122.292L242.516 122.158ZM242.075 123.163L241.722 122.991L241.719 122.998L242.075 123.163ZM241.388 124.218L241.09 123.963L241.083 123.971L241.388 124.218ZM240.333 125.052L240.158 124.701L240.15 124.705L240.333 125.052ZM238.2 125.322L238.264 124.935L238.253 124.933L238.2 125.322ZM237.685 125.224L237.292 125.228L237.295 125.514L237.569 125.599L237.685 125.224ZM237.672 123.985L237.776 123.606L237.275 123.47L237.28 123.989L237.672 123.985ZM239.757 123.801L239.585 123.449L239.582 123.45L239.757 123.801ZM240.677 122.992L240.355 122.767L240.353 122.771L240.677 122.992ZM241.327 121.667L240.958 121.532L240.957 121.536L241.327 121.667ZM238.555 106.755L238.923 106.619L238.828 106.363H238.555V106.755ZM242.786 118.148L243.166 118.05L243.161 118.03L243.154 118.011L242.786 118.148ZM243.179 119.681L243.371 120.023L243.633 119.875L243.559 119.583L243.179 119.681ZM242.112 120.282L241.745 120.421L241.907 120.847L242.304 120.624L242.112 120.282ZM236.961 106.755V106.363H236.392L236.594 106.895L236.961 106.755ZM242.789 118.828L246.922 106.883L246.18 106.627L242.047 118.571L242.789 118.828ZM246.551 107.148H248.133V106.363H246.551V107.148ZM247.764 106.621L242.148 122.023L242.885 122.292L248.502 106.89L247.764 106.621ZM242.149 122.019C242.04 122.308 241.898 122.631 241.722 122.991L242.427 123.336C242.611 122.96 242.764 122.613 242.883 122.297L242.149 122.019ZM241.719 122.998C241.564 123.331 241.355 123.653 241.09 123.963L241.687 124.473C241.994 124.113 242.243 123.732 242.43 123.329L241.719 122.998ZM241.083 123.971C240.843 124.268 240.537 124.512 240.158 124.701L240.509 125.403C240.98 125.167 241.377 124.855 241.693 124.465L241.083 123.971ZM240.15 124.705C239.803 124.889 239.359 124.991 238.801 124.991V125.776C239.452 125.776 240.03 125.657 240.517 125.399L240.15 124.705ZM238.801 124.991C238.676 124.991 238.499 124.974 238.264 124.935L238.135 125.709C238.391 125.751 238.615 125.776 238.801 125.776V124.991ZM238.253 124.933C238.019 124.901 237.874 124.871 237.8 124.849L237.569 125.599C237.708 125.641 237.906 125.677 238.146 125.711L238.253 124.933ZM238.077 125.22L238.065 123.981L237.28 123.989L237.292 125.228L238.077 125.22ZM237.569 124.364C237.692 124.397 237.849 124.42 238.028 124.437L238.102 123.656C237.937 123.64 237.833 123.622 237.776 123.606L237.569 124.364ZM238.028 124.437C238.198 124.453 238.334 124.463 238.42 124.463V123.679C238.376 123.679 238.275 123.672 238.102 123.656L238.028 124.437ZM238.42 124.463C238.994 124.463 239.504 124.367 239.933 124.152L239.582 123.45C239.291 123.595 238.91 123.679 238.42 123.679V124.463ZM239.929 124.154C240.362 123.942 240.72 123.625 241.001 123.213L240.353 122.771C240.143 123.078 239.888 123.301 239.585 123.449L239.929 124.154ZM240.999 123.216C241.269 122.828 241.5 122.353 241.697 121.798L240.957 121.536C240.777 122.044 240.575 122.452 240.355 122.767L240.999 123.216ZM241.695 121.803L242.787 118.835L242.05 118.564L240.958 121.532L241.695 121.803ZM238.187 106.892L242.418 118.284L243.154 118.011L238.923 106.619L238.187 106.892ZM242.406 118.245L242.798 119.778L243.559 119.583L243.166 118.05L242.406 118.245ZM242.986 119.339L241.919 119.94L242.304 120.624L243.371 120.023L242.986 119.339ZM242.478 120.142L237.328 106.616L236.594 106.895L241.745 120.421L242.478 120.142ZM236.961 107.148H238.555V106.363H236.961V107.148ZM286.21 118.736H286.603V118.344H286.21V118.736ZM286.21 120.024V120.416H286.603V120.024H286.21ZM276.952 120.024H276.559V120.416H276.952V120.024ZM276.952 118.736V118.344H276.559V118.736H276.952ZM277.393 102.169H277.786V101.776H277.393V102.169ZM277.393 120.024V120.416H277.786V120.024H277.393ZM275.885 120.024H275.492V120.416H275.885V120.024ZM275.885 102.169V101.776H275.492V102.169H275.885ZM285.818 118.736V120.024H286.603V118.736H285.818ZM286.21 119.632H276.952V120.416H286.21V119.632ZM277.344 120.024V118.736H276.559V120.024H277.344ZM276.952 119.129H286.21V118.344H276.952V119.129ZM277.001 102.169V120.024H277.786V102.169H277.001ZM277.393 119.632H275.885V120.416H277.393V119.632ZM276.277 120.024V102.169H275.492V120.024H276.277ZM275.885 102.561H277.393V101.776H275.885V102.561ZM315.532 106.755H315.924V106.363H315.532V106.755ZM315.532 120.024V120.416H315.924V120.024H315.532ZM314.073 120.024H313.68V120.416H314.073V120.024ZM314.073 106.755V106.363H313.68V106.755H314.073ZM314.073 102.218L313.783 101.953L313.783 101.953L314.073 102.218ZM315.544 102.218L315.255 102.483L315.261 102.489L315.267 102.495L315.544 102.218ZM315.544 103.616L315.261 103.344L315.261 103.344L315.544 103.616ZM314.073 103.616L313.777 103.874L313.783 103.881L313.789 103.887L314.073 103.616ZM315.14 106.755V120.024H315.924V106.755H315.14ZM315.532 119.632H314.073V120.416H315.532V119.632ZM314.465 120.024V106.755H313.68V120.024H314.465ZM314.073 107.148H315.532V106.363H314.073V107.148ZM314.208 102.917C314.208 102.727 314.263 102.591 314.362 102.482L313.783 101.953C313.539 102.22 313.423 102.551 313.423 102.917H314.208ZM314.362 102.483C314.455 102.382 314.588 102.316 314.808 102.316V101.531C314.408 101.531 314.05 101.662 313.783 101.953L314.362 102.483ZM314.808 102.316C315.029 102.316 315.162 102.382 315.255 102.483L315.834 101.953C315.567 101.662 315.209 101.531 314.808 101.531V102.316ZM315.267 102.495C315.378 102.606 315.434 102.738 315.434 102.917H316.219C316.219 102.54 316.087 102.206 315.822 101.94L315.267 102.495ZM315.434 102.917C315.434 103.085 315.38 103.22 315.261 103.344L315.828 103.887C316.085 103.619 316.219 103.289 316.219 102.917H315.434ZM315.261 103.344C315.169 103.44 315.034 103.505 314.808 103.505V104.29C315.204 104.29 315.56 104.167 315.828 103.887L315.261 103.344ZM314.808 103.505C314.582 103.505 314.448 103.44 314.356 103.344L313.789 103.887C314.057 104.167 314.413 104.29 314.808 104.29V103.505ZM314.368 103.357C314.261 103.235 314.208 103.095 314.208 102.917H313.423C313.423 103.278 313.541 103.604 313.777 103.874L314.368 103.357ZM347.171 120.024V120.416H347.564V120.024H347.171ZM345.712 120.024H345.32V120.416H345.712V120.024ZM346.178 102.819L345.829 102.639L345.827 102.643L346.178 102.819ZM347.527 101.408L347.34 101.063L347.338 101.064L347.527 101.408ZM350.409 100.979L350.362 101.369L350.373 101.37L350.409 100.979ZM351.194 101.139L351.585 101.173L351.612 100.861L351.314 100.765L351.194 101.139ZM351.083 102.377L350.977 102.755L351.432 102.882L351.474 102.412L351.083 102.377ZM350.458 102.267L350.411 102.656L350.419 102.657L350.428 102.658L350.458 102.267ZM348.361 102.573L348.556 102.914L348.562 102.911L348.361 102.573ZM350.335 106.755H350.728V106.363H350.335V106.755ZM350.335 107.957V108.349H350.728V107.957H350.335ZM343.517 107.957H343.124V108.349H343.517V107.957ZM343.517 106.755V106.363H343.124V106.755H343.517ZM347.171 119.632H345.712V120.416H347.171V119.632ZM346.104 120.024V105.112H345.32V120.024H346.104ZM346.104 105.112C346.104 104.247 346.253 103.547 346.529 102.994L345.827 102.643C345.482 103.333 345.32 104.161 345.32 105.112H346.104ZM346.527 102.998C346.812 102.442 347.208 102.031 347.716 101.752L347.338 101.064C346.685 101.423 346.181 101.952 345.829 102.639L346.527 102.998ZM347.714 101.753C348.234 101.472 348.866 101.323 349.624 101.323V100.538C348.763 100.538 347.997 100.707 347.34 101.063L347.714 101.753ZM349.624 101.323C349.861 101.323 350.106 101.338 350.362 101.369L350.456 100.59C350.172 100.555 349.894 100.538 349.624 100.538V101.323ZM350.373 101.37C350.615 101.392 350.848 101.439 351.073 101.512L351.314 100.765C351.033 100.674 350.743 100.615 350.444 100.588L350.373 101.37ZM350.803 101.104L350.692 102.342L351.474 102.412L351.585 101.173L350.803 101.104ZM351.189 101.999C350.96 101.935 350.726 101.894 350.488 101.876L350.428 102.658C350.615 102.672 350.798 102.705 350.977 102.755L351.189 101.999ZM350.505 101.877C350.28 101.85 350.023 101.838 349.734 101.838V102.622C350.002 102.622 350.227 102.634 350.411 102.656L350.505 101.877ZM349.734 101.838C349.146 101.838 348.616 101.965 348.16 102.236L348.562 102.911C348.875 102.724 349.26 102.622 349.734 102.622V101.838ZM348.165 102.233C347.708 102.496 347.361 102.88 347.124 103.372L347.832 103.712C348.004 103.354 348.245 103.092 348.556 102.914L348.165 102.233ZM347.124 103.372C346.888 103.864 346.779 104.45 346.779 105.112H347.564C347.564 104.532 347.659 104.07 347.832 103.712L347.124 103.372ZM346.779 105.112V120.024H347.564V105.112H346.779ZM349.943 106.755V107.957H350.728V106.755H349.943ZM350.335 107.565H343.517V108.349H350.335V107.565ZM343.909 107.957V106.755H343.124V107.957H343.909ZM343.517 107.148H350.335V106.363H343.517V107.148ZM380.527 119.791L380.368 120.15L380.37 120.15L380.527 119.791ZM378.639 118.442L378.349 118.707L378.352 118.709L378.639 118.442ZM377.4 116.382L377.031 116.514L377.032 116.518L377.4 116.382ZM380.491 106.988L380.654 107.345L380.656 107.344L380.491 106.988ZM384.893 106.964L384.728 107.32L384.732 107.321L384.893 106.964ZM386.536 108.227L386.231 108.473L386.235 108.478L386.536 108.227ZM387.554 110.152L387.179 110.267L387.18 110.269L387.554 110.152ZM387.898 113.488V113.88H388.29V113.488H387.898ZM377.854 113.488H377.462V113.88H377.854V113.488ZM377.854 112.237V111.844H377.462V112.237H377.854ZM386.438 112.237V112.629H386.831V112.237H386.438ZM386.438 112.065H386.831L386.831 112.057L386.438 112.065ZM385.985 109.98L385.623 110.134L385.626 110.139L385.985 109.98ZM380.932 108.165L380.757 107.814L380.754 107.816L380.932 108.165ZM379.595 109.294L379.284 109.055L379.283 109.056L379.595 109.294ZM378.737 111.023L378.362 110.908L378.361 110.911L378.737 111.023ZM378.762 115.818L378.389 115.942L378.391 115.948L378.762 115.818ZM379.694 117.486L379.392 117.736L379.394 117.739L379.694 117.486ZM385.065 118.589L385.233 118.944L385.237 118.942L385.065 118.589ZM386.696 117.203L386.936 116.893L386.624 116.652L386.384 116.965L386.696 117.203ZM387.616 117.915L387.941 118.134L388.146 117.829L387.856 117.604L387.616 117.915ZM386.536 119.092L386.286 118.79L386.283 118.792L386.536 119.092ZM382.919 119.877C382.101 119.877 381.359 119.727 380.685 119.432L380.37 120.15C381.152 120.493 382.003 120.662 382.919 120.662V119.877ZM380.686 119.432C380.016 119.135 379.43 118.717 378.926 118.175L378.352 118.709C378.927 119.328 379.6 119.809 380.368 120.15L380.686 119.432ZM378.928 118.177C378.434 117.637 378.046 116.994 377.768 116.245L377.032 116.518C377.343 117.355 377.781 118.087 378.349 118.707L378.928 118.177ZM377.77 116.25C377.501 115.496 377.364 114.666 377.364 113.758H376.579C376.579 114.746 376.728 115.666 377.031 116.514L377.77 116.25ZM377.364 113.758V113.23H376.579V113.758H377.364ZM377.364 113.23C377.364 112.247 377.509 111.37 377.793 110.594L377.056 110.324C376.736 111.199 376.579 112.17 376.579 113.23H377.364ZM377.793 110.594C378.08 109.81 378.473 109.148 378.967 108.6L378.384 108.074C377.816 108.704 377.374 109.456 377.056 110.324L377.793 110.594ZM378.967 108.6C379.465 108.049 380.027 107.632 380.654 107.345L380.327 106.631C379.597 106.966 378.949 107.448 378.384 108.074L378.967 108.6ZM380.656 107.344C381.291 107.049 381.954 106.902 382.649 106.902V106.117C381.839 106.117 381.064 106.29 380.325 106.632L380.656 107.344ZM382.649 106.902C383.444 106.902 384.134 107.045 384.728 107.32L385.058 106.607C384.344 106.277 383.538 106.117 382.649 106.117V106.902ZM384.732 107.321C385.331 107.591 385.829 107.974 386.231 108.473L386.842 107.98C386.361 107.384 385.763 106.925 385.054 106.606L384.732 107.321ZM386.235 108.478C386.648 108.973 386.964 109.568 387.179 110.267L387.929 110.037C387.687 109.248 387.324 108.559 386.838 107.976L386.235 108.478ZM387.18 110.269C387.395 110.961 387.505 111.735 387.505 112.592H388.29C388.29 111.668 388.171 110.814 387.929 110.036L387.18 110.269ZM387.505 112.592V113.488H388.29V112.592H387.505ZM387.898 113.095H377.854V113.88H387.898V113.095ZM378.247 113.488V112.237H377.462V113.488H378.247ZM377.854 112.629H386.438V111.844H377.854V112.629ZM386.831 112.237V112.065H386.046V112.237H386.831ZM386.831 112.057C386.813 111.264 386.652 110.517 386.343 109.821L385.626 110.139C385.89 110.735 386.031 111.379 386.046 112.074L386.831 112.057ZM386.346 109.827C386.041 109.11 385.581 108.522 384.966 108.07L384.501 108.702C384.999 109.068 385.372 109.543 385.624 110.134L386.346 109.827ZM384.966 108.07C384.33 107.602 383.549 107.381 382.649 107.381V108.165C383.417 108.165 384.026 108.353 384.501 108.702L384.966 108.07ZM382.649 107.381C381.971 107.381 381.338 107.524 380.757 107.814L381.108 108.516C381.573 108.284 382.085 108.165 382.649 108.165V107.381ZM380.754 107.816C380.183 108.106 379.693 108.521 379.284 109.055L379.907 109.532C380.25 109.085 380.651 108.749 381.11 108.515L380.754 107.816ZM379.283 109.056C378.883 109.58 378.578 110.2 378.362 110.908L379.112 111.137C379.305 110.505 379.572 109.972 379.908 109.532L379.283 109.056ZM378.361 110.911C378.152 111.615 378.05 112.389 378.05 113.23H378.835C378.835 112.452 378.929 111.755 379.113 111.134L378.361 110.911ZM378.05 113.23V113.758H378.835V113.23H378.05ZM378.05 113.758C378.05 114.532 378.162 115.261 378.389 115.942L379.134 115.694C378.936 115.1 378.835 114.455 378.835 113.758H378.05ZM378.391 115.948C378.626 116.618 378.959 117.216 379.392 117.736L379.995 117.235C379.627 116.791 379.338 116.276 379.132 115.688L378.391 115.948ZM379.394 117.739C379.837 118.262 380.363 118.673 380.969 118.967L381.312 118.261C380.806 118.015 380.367 117.674 379.993 117.232L379.394 117.739ZM380.969 118.967C381.583 119.265 382.256 119.411 382.98 119.411V118.626C382.364 118.626 381.81 118.502 381.312 118.261L380.969 118.967ZM382.98 119.411C383.813 119.411 384.567 119.259 385.233 118.944L384.897 118.234C384.353 118.492 383.717 118.626 382.98 118.626V119.411ZM385.237 118.942C385.905 118.617 386.495 118.111 387.007 117.442L386.384 116.965C385.933 117.555 385.434 117.973 384.893 118.236L385.237 118.942ZM386.456 117.514L387.376 118.225L387.856 117.604L386.936 116.893L386.456 117.514ZM387.29 117.696C387.027 118.087 386.693 118.452 386.286 118.79L386.787 119.394C387.246 119.013 387.632 118.593 387.941 118.134L387.29 117.696ZM386.283 118.792C385.899 119.118 385.43 119.382 384.872 119.581L385.135 120.32C385.771 120.094 386.324 119.786 386.79 119.392L386.283 118.792ZM384.872 119.581C384.327 119.775 383.678 119.877 382.919 119.877V120.662C383.746 120.662 384.487 120.551 385.135 120.32L384.872 119.581Z" fill="#BAEBE8"/>
<defs>
<linearGradient id="paint0_linear_74_16601" x1="162.384" y1="13.0845" x2="321.011" y2="90.3812" gradientUnits="userSpaceOnUse">
<stop stop-color="#227872"/>
<stop offset="1" stop-color="#D00000" stop-opacity="0.58"/>
</linearGradient>
<linearGradient id="paint1_linear_74_16601" x1="162.394" y1="85.5361" x2="316.465" y2="161.816" gradientUnits="userSpaceOnUse">
<stop stop-color="#227872"/>
<stop offset="1" stop-color="#D00000" stop-opacity="0.67"/>
</linearGradient>
</defs>
</svg>
