<svg width="21" height="22" viewBox="0 0 21 22" fill="none" xmlns="http://www.w3.org/2000/svg">
<path d="M13.1249 20.1863H7.87488C4.01613 20.1863 2.84363 19.0138 2.84363 15.155V6.40503C2.84363 2.54628 4.01613 1.37378 7.87488 1.37378H13.1249C16.9836 1.37378 18.1561 2.54628 18.1561 6.40503V15.155C18.1561 19.0138 16.9836 20.1863 13.1249 20.1863ZM7.87488 2.68628C4.74238 2.68628 4.15613 3.28128 4.15613 6.40503V15.155C4.15613 18.2788 4.74238 18.8738 7.87488 18.8738H13.1249C16.2574 18.8738 16.8436 18.2788 16.8436 15.155V6.40503C16.8436 3.28128 16.2574 2.68628 13.1249 2.68628H7.87488Z" fill="#782228"/>
<path d="M12.25 5.74878H8.75C8.39125 5.74878 8.09375 5.45128 8.09375 5.09253C8.09375 4.73378 8.39125 4.43628 8.75 4.43628H12.25C12.6087 4.43628 12.9062 4.73378 12.9062 5.09253C12.9062 5.45128 12.6087 5.74878 12.25 5.74878Z" fill="#782228"/>
<path d="M10.5 17.6574C9.3888 17.6574 8.48755 16.7562 8.48755 15.6449C8.48755 14.5337 9.3888 13.6324 10.5 13.6324C11.6113 13.6324 12.5125 14.5337 12.5125 15.6449C12.5125 16.7562 11.6113 17.6574 10.5 17.6574ZM10.5 14.9362C10.115 14.9362 9.80005 15.2512 9.80005 15.6362C9.80005 16.0212 10.115 16.3362 10.5 16.3362C10.885 16.3362 11.2 16.0212 11.2 15.6362C11.2 15.2512 10.885 14.9362 10.5 14.9362Z" fill="#782228"/>
</svg>
