<svg width="21" height="21" viewBox="0 0 21 21" fill="none" xmlns="http://www.w3.org/2000/svg">
<path d="M4.8912 19.8626C2.8437 19.8626 1.11119 18.1301 1.11119 16.0826V10.6926C1.05869 8.14631 2.01245 5.74008 3.77995 3.92883C5.54745 2.12633 7.92745 1.13757 10.4737 1.13757C15.6887 1.13757 19.9237 5.38132 19.9237 10.5963V15.9864C19.9237 18.0688 18.2262 19.7664 16.1437 19.7664C14.0612 19.7664 12.3637 18.0688 12.3637 15.9864V13.5276C12.3637 12.2764 13.3787 11.2613 14.6299 11.2613C15.8812 11.2613 16.8962 12.2764 16.8962 13.5276V16.1788C16.8962 16.5376 16.5987 16.8351 16.2399 16.8351C15.8812 16.8351 15.5837 16.5376 15.5837 16.1788V13.5276C15.5837 12.9326 15.1024 12.5738 14.6299 12.5738C14.0349 12.5738 13.6762 13.0551 13.6762 13.5276V15.9864C13.6762 17.3251 14.805 18.4539 16.1437 18.4539C17.4825 18.4539 18.6112 17.3251 18.6112 15.9864V10.5963C18.6112 6.10757 14.9624 2.45007 10.4737 2.45007C8.27745 2.45007 6.23871 3.29881 4.71621 4.84756C3.19371 6.39631 2.37994 8.47009 2.42369 10.6751V16.0738C2.42369 17.4126 3.55245 18.5413 4.8912 18.5413C6.22995 18.5413 7.3587 17.4126 7.3587 16.0738V13.6151C7.3587 13.0201 6.87745 12.6613 6.40495 12.6613C5.80995 12.6613 5.45121 13.1426 5.45121 13.6151V16.1701C5.45121 16.5288 5.15371 16.8263 4.79496 16.8263C4.43621 16.8263 4.13871 16.5288 4.13871 16.1701V13.6151C4.13871 12.3463 5.1362 11.3488 6.40495 11.3488C7.6562 11.3488 8.6712 12.3638 8.6712 13.6151V16.0738C8.6712 18.1651 6.9737 19.8626 4.8912 19.8626Z" fill="#782228"/>
<path d="M11.5323 10.3776C11.1823 10.3776 10.8673 10.1851 10.7185 9.8701L9.44975 7.34134L9.08226 8.02381C8.88101 8.40006 8.47852 8.63632 8.04977 8.63632H7.41101C7.05226 8.63632 6.75476 8.33882 6.75476 7.98007C6.75476 7.62132 7.05226 7.32382 7.41101 7.32382H7.971L8.66225 6.0463C8.8285 5.7488 9.13475 5.59131 9.476 5.56506C9.81725 5.56506 10.1235 5.76632 10.281 6.06382L11.5323 8.56631L11.8298 7.96255C12.031 7.56005 12.4248 7.31506 12.8798 7.31506H13.5885C13.9473 7.31506 14.2448 7.61256 14.2448 7.97131C14.2448 8.33006 13.9473 8.62756 13.5885 8.62756H12.9673L12.346 9.86134C12.1885 10.1851 11.8823 10.3776 11.5323 10.3776Z" fill="#782228"/>
</svg>
