<svg width="84" height="27" viewBox="0 0 84 27" fill="none" xmlns="http://www.w3.org/2000/svg">
<path fill-rule="evenodd" clip-rule="evenodd" d="M33.6591 6.68632C33.6591 6.6871 33.6584 6.68774 33.6577 6.68774C33.6569 6.68774 33.6562 6.68837 33.6563 6.68916L33.6569 6.95768C33.6569 6.95829 33.6574 6.95878 33.658 6.95878C33.6586 6.95878 33.6591 6.95927 33.6591 6.95988V12.2598C33.6591 12.3347 33.7197 12.3953 33.7946 12.3953C33.8694 12.3953 33.9301 12.3347 33.9301 12.2598V7.3909C33.9301 7.15176 34.1237 6.95776 34.3628 6.95724L40.2351 6.94439C40.3099 6.94422 40.3705 6.88341 40.3703 6.80856C40.3702 6.73372 40.3093 6.67318 40.2345 6.67335L34.3647 6.68619C34.1249 6.68672 33.9301 6.4924 33.9301 6.25253V1.13552C33.9301 1.06068 33.8694 1 33.7946 1C33.7197 1 33.6591 1.06068 33.6591 1.13552V6.68632ZM40.5085 12.3953C40.4336 12.3953 40.3729 12.3347 40.3729 12.2598V1.13552C40.3729 1.06068 40.4336 1 40.5085 1C40.5833 1 40.644 1.06068 40.644 1.13552V12.2598C40.644 12.3347 40.5833 12.3953 40.5085 12.3953ZM43.7409 1.01501C43.666 1.01501 43.6054 1.07568 43.6054 1.15053V12.3966C43.6054 12.4042 43.6115 12.4103 43.6191 12.4103H43.6224C43.6282 12.4103 43.6329 12.4151 43.6329 12.4209C43.6329 12.4267 43.6377 12.4314 43.6435 12.4314L50.2112 12.417C50.286 12.4169 50.3466 12.3561 50.3464 12.2812C50.3462 12.2064 50.2854 12.1458 50.2106 12.146L44.311 12.1589C44.0711 12.1594 43.8764 11.9651 43.8764 11.7252V1.15053C43.8764 1.07568 43.8157 1.01501 43.7409 1.01501Z" fill="white"/>
<path d="M34.3647 6.68619L34.3632 6.00859L34.3647 6.68619ZM40.2345 6.67335L40.236 7.35095L40.2345 6.67335ZM40.2351 6.94439L40.2366 7.62199L40.2351 6.94439ZM34.3628 6.95724L34.3643 7.63483L34.3628 6.95724ZM33.6569 6.95768L34.3345 6.95613L33.6569 6.95768ZM33.6563 6.68916L32.9787 6.6907L33.6563 6.68916ZM34.3345 6.95613L34.3338 6.68761L32.9787 6.6907L32.9793 6.95922L34.3345 6.95613ZM32.9815 6.95988V12.2598H34.3367V6.95988H32.9815ZM34.6077 12.2598V7.3909H33.2525V12.2598H34.6077ZM40.2336 6.26679L34.3613 6.27964L34.3643 7.63483L40.2366 7.62199L40.2336 6.26679ZM34.3662 7.36379L40.236 7.35095L40.233 5.99575L34.3632 6.00859L34.3662 7.36379ZM34.6077 6.25253V1.13552H33.2525V6.25253H34.6077ZM32.9815 1.13552V6.68632H34.3367V1.13552H32.9815ZM39.6953 1.13552V12.2598H41.0505V1.13552H39.6953ZM41.3216 12.2598V1.13552H39.9664V12.2598H41.3216ZM44.283 12.3966V1.15053H42.9278V12.3966H44.283ZM43.6224 11.7327H43.6191V13.0879H43.6224V11.7327ZM50.2097 11.7394L43.642 11.7538L43.645 13.109L50.2127 13.0946L50.2097 11.7394ZM44.3125 12.8365L50.2121 12.8236L50.2091 11.4684L44.3095 11.4813L44.3125 12.8365ZM43.1988 1.15053V11.7252H44.554V1.15053H43.1988ZM44.554 1.15053C44.554 0.701453 44.19 0.337407 43.7409 0.337407V1.69261C43.4415 1.69261 43.1988 1.44991 43.1988 1.15053H44.554ZM44.3095 11.4813C44.4445 11.481 44.554 11.5903 44.554 11.7252H43.1988C43.1988 12.3399 43.6978 12.8378 44.3125 12.8365L44.3095 11.4813ZM51.024 12.2797C51.023 11.8306 50.6581 11.4674 50.2091 11.4684L50.2121 12.8236C49.9127 12.8242 49.6695 12.5821 49.6688 12.2827L51.024 12.2797ZM50.2127 13.0946C50.6618 13.0936 51.025 12.7288 51.024 12.2797L49.6688 12.2827C49.6681 11.9833 49.9103 11.7401 50.2097 11.7394L50.2127 13.0946ZM42.9553 12.4224C42.9562 12.8024 43.2649 13.1098 43.645 13.109L43.642 11.7538C44.0104 11.753 44.3097 12.051 44.3105 12.4193L42.9553 12.4224ZM43.6224 13.0879C43.2546 13.0879 42.9561 12.7902 42.9553 12.4224L44.3105 12.4193C44.3097 12.0399 44.0018 11.7327 43.6224 11.7327V13.0879ZM44.283 1.15053C44.283 1.44991 44.0403 1.69261 43.7409 1.69261V0.337407C43.2918 0.337407 42.9278 0.701451 42.9278 1.15053H44.283ZM42.9278 12.3966C42.9278 12.7784 43.2373 13.0879 43.6191 13.0879V11.7327C43.9858 11.7327 44.283 12.03 44.283 12.3966H42.9278ZM39.9664 12.2598C39.9664 11.9604 40.2091 11.7177 40.5085 11.7177V13.0729C40.9575 13.0729 41.3216 12.7089 41.3216 12.2598H39.9664ZM40.5085 1.6776C40.2091 1.6776 39.9664 1.43491 39.9664 1.13552H41.3216C41.3216 0.686448 40.9575 0.322404 40.5085 0.322404V1.6776ZM39.6953 12.2598C39.6953 12.7089 40.0594 13.0729 40.5085 13.0729V11.7177C40.8078 11.7177 41.0505 11.9604 41.0505 12.2598H39.6953ZM41.0505 1.13552C41.0505 1.43491 40.8078 1.6776 40.5085 1.6776V0.322404C40.0594 0.322404 39.6953 0.68645 39.6953 1.13552H41.0505ZM33.7946 0.322404C33.3455 0.322404 32.9815 0.68645 32.9815 1.13552H34.3367C34.3367 1.43491 34.094 1.6776 33.7946 1.6776V0.322404ZM34.6077 1.13552C34.6077 0.68645 34.2437 0.322404 33.7946 0.322404V1.6776C33.4952 1.6776 33.2525 1.43491 33.2525 1.13552H34.6077ZM34.3632 6.00859C34.4982 6.0083 34.6077 6.1176 34.6077 6.25253H33.2525C33.2525 6.86721 33.7515 7.36513 34.3662 7.36379L34.3632 6.00859ZM41.0479 6.80702C41.0469 6.35797 40.6821 5.99477 40.233 5.99575L40.236 7.35095C39.9366 7.3516 39.6934 7.10946 39.6927 6.8101L41.0479 6.80702ZM40.2366 7.62199C40.6857 7.621 41.0489 7.25612 41.0479 6.80702L39.6927 6.8101C39.692 6.5107 39.9342 6.26744 40.2336 6.26679L40.2366 7.62199ZM34.6077 7.3909C34.6077 7.52541 34.4988 7.63454 34.3643 7.63483L34.3613 6.27964C33.7486 6.28098 33.2525 6.77811 33.2525 7.3909H34.6077ZM33.7946 13.0729C34.2437 13.0729 34.6077 12.7089 34.6077 12.2598H33.2525C33.2525 11.9604 33.4952 11.7177 33.7946 11.7177V13.0729ZM32.9815 12.2598C32.9815 12.7089 33.3455 13.0729 33.7946 13.0729V11.7177C34.094 11.7177 34.3367 11.9604 34.3367 12.2598H32.9815ZM33.6594 7.63638C33.2852 7.63718 32.9815 7.33407 32.9815 6.95988H34.3367C34.3367 6.58447 34.0319 6.28037 33.6565 6.28118L33.6594 7.63638ZM32.9793 6.95922C32.9801 7.33402 33.2846 7.63718 33.6594 7.63638L33.6565 6.28118C34.0301 6.28037 34.3336 6.58255 34.3345 6.95613L32.9793 6.95922ZM33.6591 7.36534C34.0336 7.36452 34.3367 7.06069 34.3367 6.68632H32.9815C32.9815 6.31351 33.2833 6.01096 33.6562 6.01014L33.6591 7.36534ZM33.6562 6.01014C33.2811 6.01096 32.9778 6.31566 32.9787 6.6907L34.3338 6.68761C34.3347 7.06109 34.0326 7.36452 33.6591 7.36534L33.6562 6.01014Z" fill="#655050"/>
<mask id="path-3-inside-1_219_723" fill="white">
<path d="M54.1582 14.5199C54.4722 14.5199 54.7281 14.7747 54.7136 15.0884C54.5694 18.1915 53.2489 21.1385 50.999 23.3446C48.6122 25.6851 45.375 27 41.9995 27C38.624 27 35.3868 25.6851 33 23.3446C30.7501 21.1385 29.4296 18.1915 29.2854 15.0884C29.2708 14.7747 29.5268 14.5199 29.8408 14.5199L41.9995 14.5199H54.1582Z"/>
</mask>
<path d="M54.1582 14.5199C54.4722 14.5199 54.7281 14.7747 54.7136 15.0884C54.5694 18.1915 53.2489 21.1385 50.999 23.3446C48.6122 25.6851 45.375 27 41.9995 27C38.624 27 35.3868 25.6851 33 23.3446C30.7501 21.1385 29.4296 18.1915 29.2854 15.0884C29.2708 14.7747 29.5268 14.5199 29.8408 14.5199L41.9995 14.5199H54.1582Z" stroke="url(#paint0_linear_219_723)" stroke-width="2.71016" mask="url(#path-3-inside-1_219_723)"/>
<path d="M16.3546 19.6087V19.842H14.3888V19.6087H16.3546ZM14.4532 18.1583V21.3923H14.18V18.1583H14.4532ZM16.5745 18.1583V21.3923H16.3012V18.1583H16.5745ZM23.349 20.9614V19.722C23.349 19.608 23.3253 19.5095 23.2779 19.4266C23.2305 19.3437 23.1609 19.28 23.0691 19.2356C22.9773 19.1912 22.864 19.169 22.7293 19.169C22.6049 19.169 22.4938 19.1912 22.3961 19.2356C22.2998 19.2785 22.2236 19.337 22.1673 19.4111C22.1125 19.4836 22.0851 19.5643 22.0851 19.6532L21.8186 19.6509C21.8186 19.5606 21.8408 19.4733 21.8852 19.3889C21.9297 19.3044 21.9926 19.2289 22.074 19.1623C22.1555 19.0957 22.2525 19.0431 22.365 19.0046C22.479 18.9646 22.6041 18.9446 22.7404 18.9446C22.9121 18.9446 23.0632 18.9735 23.1935 19.0312C23.3253 19.089 23.4282 19.1756 23.5022 19.2911C23.5763 19.4066 23.6133 19.5517 23.6133 19.7265V20.8881C23.6133 20.9711 23.6192 21.0569 23.6311 21.1458C23.6444 21.2346 23.6629 21.3079 23.6866 21.3657V21.3923H23.4045C23.3867 21.339 23.3727 21.2724 23.3623 21.1924C23.3534 21.111 23.349 21.034 23.349 20.9614ZM23.4112 19.993L23.4156 20.1974H22.8936C22.7574 20.1974 22.6352 20.2099 22.5271 20.2351C22.4205 20.2588 22.3302 20.2943 22.2562 20.3417C22.1821 20.3876 22.1251 20.4432 22.0851 20.5083C22.0466 20.5735 22.0274 20.6475 22.0274 20.7304C22.0274 20.8163 22.0489 20.8948 22.0918 20.9659C22.1362 21.0369 22.1984 21.094 22.2784 21.1369C22.3598 21.1784 22.4561 21.1991 22.5671 21.1991C22.7152 21.1991 22.8455 21.1717 22.958 21.1169C23.0721 21.0621 23.1661 20.9903 23.2401 20.9015C23.3142 20.8126 23.3638 20.7156 23.389 20.6105L23.5045 20.7637C23.4852 20.8378 23.4497 20.914 23.3978 20.9925C23.3475 21.0695 23.2816 21.1421 23.2002 21.2102C23.1187 21.2768 23.0225 21.3316 22.9114 21.3746C22.8018 21.416 22.6774 21.4368 22.5382 21.4368C22.3813 21.4368 22.2443 21.4071 22.1273 21.3479C22.0118 21.2887 21.9215 21.208 21.8564 21.1058C21.7927 21.0022 21.7608 20.8852 21.7608 20.7549C21.7608 20.6364 21.786 20.5305 21.8364 20.4372C21.8867 20.3425 21.9593 20.2625 22.054 20.1974C22.1503 20.1307 22.2658 20.0804 22.4005 20.0463C22.5368 20.0108 22.6893 19.993 22.8581 19.993H23.4112ZM29.1373 19.451V22.3163H28.8708V18.989H29.1195L29.1373 19.451ZM30.8076 20.1685V20.2151C30.8076 20.3943 30.7869 20.5587 30.7454 20.7082C30.704 20.8578 30.644 20.9873 30.5655 21.0969C30.4885 21.205 30.393 21.2887 30.279 21.3479C30.165 21.4071 30.0354 21.4368 29.8903 21.4368C29.7466 21.4368 29.6185 21.4145 29.506 21.3701C29.3935 21.3257 29.2965 21.2628 29.215 21.1813C29.1351 21.0984 29.0707 21.0022 29.0218 20.8926C28.9744 20.7815 28.9411 20.6601 28.9218 20.5283V19.913C28.9441 19.7679 28.9803 19.6361 29.0307 19.5177C29.081 19.3992 29.1454 19.297 29.2239 19.2112C29.3039 19.1253 29.3987 19.0594 29.5082 19.0135C29.6178 18.9676 29.7429 18.9446 29.8836 18.9446C30.0302 18.9446 30.1605 18.9735 30.2745 19.0312C30.39 19.0875 30.487 19.1697 30.5655 19.2778C30.6455 19.3844 30.7054 19.5132 30.7454 19.6643C30.7869 19.8138 30.8076 19.9819 30.8076 20.1685ZM30.5411 20.2151V20.1685C30.5411 20.0278 30.5263 19.8975 30.4966 19.7776C30.4685 19.6576 30.4248 19.5532 30.3656 19.4644C30.3078 19.374 30.2338 19.3037 30.1435 19.2534C30.0546 19.203 29.9488 19.1778 29.8259 19.1778C29.6985 19.1778 29.5897 19.1993 29.4993 19.2423C29.4105 19.2837 29.3365 19.3392 29.2772 19.4088C29.218 19.477 29.1714 19.5517 29.1373 19.6332C29.1032 19.7146 29.0781 19.7946 29.0618 19.8731V20.5816C29.0899 20.6942 29.1351 20.7985 29.1973 20.8948C29.2595 20.9896 29.3424 21.0658 29.446 21.1236C29.5512 21.1798 29.6793 21.208 29.8303 21.208C29.9517 21.208 30.0569 21.1828 30.1457 21.1325C30.2345 21.0821 30.3078 21.0118 30.3656 20.9214C30.4248 20.8311 30.4685 20.726 30.4966 20.606C30.5263 20.4861 30.5411 20.3558 30.5411 20.2151ZM36.2095 19.451V22.3163H35.9429V18.989H36.1917L36.2095 19.451ZM37.8798 20.1685V20.2151C37.8798 20.3943 37.859 20.5587 37.8176 20.7082C37.7761 20.8578 37.7161 20.9873 37.6377 21.0969C37.5607 21.205 37.4651 21.2887 37.3511 21.3479C37.2371 21.4071 37.1075 21.4368 36.9624 21.4368C36.8188 21.4368 36.6907 21.4145 36.5782 21.3701C36.4656 21.3257 36.3686 21.2628 36.2872 21.1813C36.2072 21.0984 36.1428 21.0022 36.094 20.8926C36.0466 20.7815 36.0132 20.6601 35.994 20.5283V19.913C36.0162 19.7679 36.0525 19.6361 36.1028 19.5177C36.1532 19.3992 36.2176 19.297 36.2961 19.2112C36.376 19.1253 36.4708 19.0594 36.5804 19.0135C36.69 18.9676 36.8151 18.9446 36.9558 18.9446C37.1024 18.9446 37.2327 18.9735 37.3467 19.0312C37.4622 19.0875 37.5592 19.1697 37.6377 19.2778C37.7176 19.3844 37.7776 19.5132 37.8176 19.6643C37.859 19.8138 37.8798 19.9819 37.8798 20.1685ZM37.6132 20.2151V20.1685C37.6132 20.0278 37.5984 19.8975 37.5688 19.7776C37.5407 19.6576 37.497 19.5532 37.4377 19.4644C37.38 19.374 37.306 19.3037 37.2156 19.2534C37.1268 19.203 37.0209 19.1778 36.898 19.1778C36.7707 19.1778 36.6618 19.1993 36.5715 19.2423C36.4827 19.2837 36.4086 19.3392 36.3494 19.4088C36.2902 19.477 36.2435 19.5517 36.2095 19.6332C36.1754 19.7146 36.1502 19.7946 36.1339 19.8731V20.5816C36.1621 20.6942 36.2072 20.7985 36.2694 20.8948C36.3316 20.9896 36.4145 21.0658 36.5182 21.1236C36.6233 21.1798 36.7514 21.208 36.9025 21.208C37.0239 21.208 37.129 21.1828 37.2179 21.1325C37.3067 21.0821 37.38 21.0118 37.4377 20.9214C37.497 20.8311 37.5407 20.726 37.5688 20.606C37.5984 20.4861 37.6132 20.3558 37.6132 20.2151ZM43.7058 21.1524L44.4544 18.989H44.7409L43.7236 21.7788C43.7029 21.8336 43.6762 21.8943 43.6437 21.9609C43.6126 22.0276 43.5711 22.0913 43.5193 22.152C43.4689 22.2142 43.4052 22.2645 43.3282 22.303C43.2527 22.343 43.1602 22.363 43.0506 22.363C43.0225 22.363 42.9862 22.3593 42.9418 22.3519C42.8988 22.3459 42.8677 22.34 42.8485 22.3341L42.8463 22.1098C42.8625 22.1142 42.8862 22.1179 42.9173 22.1209C42.9484 22.1238 42.9699 22.1253 42.9817 22.1253C43.078 22.1253 43.1587 22.109 43.2239 22.0764C43.2905 22.0439 43.346 21.995 43.3904 21.9299C43.4349 21.8662 43.4741 21.7862 43.5082 21.69L43.7058 21.1524ZM43.0062 18.989L43.7725 21.0525L43.8436 21.3301L43.6503 21.439L42.7174 18.989H43.0062ZM51.6376 21.1591V21.3923H49.9606V21.1591H51.6376ZM50.0406 18.1583V21.3923H49.7674V18.1583H50.0406ZM56.9484 18.989V21.3923H56.684V18.989H56.9484ZM56.6374 18.2938C56.6374 18.2435 56.653 18.2013 56.684 18.1672C56.7166 18.1317 56.761 18.1139 56.8173 18.1139C56.8736 18.1139 56.918 18.1317 56.9506 18.1672C56.9846 18.2013 57.0017 18.2435 57.0017 18.2938C57.0017 18.3427 56.9846 18.3849 56.9506 18.4204C56.918 18.4545 56.8736 18.4715 56.8173 18.4715C56.761 18.4715 56.7166 18.4545 56.684 18.4204C56.653 18.3849 56.6374 18.3427 56.6374 18.2938ZM62.6789 21.3923H62.4146V18.6914C62.4146 18.527 62.4428 18.3886 62.499 18.2761C62.5568 18.1635 62.6382 18.0784 62.7434 18.0206C62.85 17.9629 62.9766 17.934 63.1232 17.934C63.1691 17.934 63.2165 17.937 63.2653 17.9429C63.3142 17.9473 63.3616 17.9569 63.4075 17.9718L63.3875 18.1961C63.3505 18.1857 63.3127 18.1791 63.2742 18.1761C63.2372 18.1717 63.1935 18.1694 63.1432 18.1694C63.0469 18.1694 62.964 18.1902 62.8944 18.2316C62.8248 18.2716 62.7715 18.3301 62.7345 18.4071C62.6975 18.4841 62.6789 18.5789 62.6789 18.6914V21.3923ZM63.252 18.989V19.2067H62.017V18.989H63.252ZM69.1536 21.4368C68.9966 21.4368 68.8523 21.4079 68.7205 21.3501C68.5902 21.2924 68.4762 21.2109 68.3784 21.1058C68.2822 21.0007 68.2074 20.8763 68.1541 20.7327C68.1023 20.5875 68.0763 20.4291 68.0763 20.2573V20.1618C68.0763 19.9767 68.1037 19.8094 68.1585 19.6598C68.2133 19.5103 68.2888 19.3822 68.3851 19.2756C68.4813 19.169 68.5909 19.0875 68.7138 19.0312C68.8382 18.9735 68.9685 18.9446 69.1047 18.9446C69.2573 18.9446 69.3927 18.972 69.5112 19.0268C69.6297 19.0801 69.7289 19.1564 69.8088 19.2556C69.8903 19.3533 69.9517 19.4696 69.9932 19.6043C70.0347 19.7376 70.0554 19.8849 70.0554 20.0463V20.2085H68.2363V19.9819H69.7911V19.9508C69.7881 19.8161 69.7607 19.6902 69.7089 19.5732C69.6585 19.4547 69.583 19.3585 69.4823 19.2845C69.3816 19.2104 69.2558 19.1734 69.1047 19.1734C68.9922 19.1734 68.8885 19.1971 68.7938 19.2445C68.7005 19.2919 68.6198 19.36 68.5517 19.4488C68.485 19.5362 68.4332 19.6406 68.3962 19.762C68.3607 19.8819 68.3429 20.0152 68.3429 20.1618V20.2573C68.3429 20.3906 68.3621 20.515 68.4006 20.6305C68.4406 20.7445 68.4969 20.8452 68.5694 20.9326C68.6435 21.0199 68.7308 21.088 68.8315 21.1369C68.9322 21.1858 69.0433 21.2102 69.1647 21.2102C69.3069 21.2102 69.4327 21.1843 69.5423 21.1325C69.6519 21.0792 69.7504 20.9955 69.8377 20.8815L70.0043 21.0103C69.9525 21.0873 69.8873 21.1584 69.8088 21.2235C69.7318 21.2887 69.6393 21.3405 69.5312 21.379C69.4231 21.4175 69.2972 21.4368 69.1536 21.4368Z" fill="black"/>
<path d="M16.3546 19.6087H16.4256V19.5377H16.3546V19.6087ZM16.3546 19.842V19.913H16.4256V19.842H16.3546ZM14.3888 19.842H14.3178V19.913H14.3888V19.842ZM14.3888 19.6087V19.5377H14.3178V19.6087H14.3888ZM14.4532 18.1583H14.5243V18.0873H14.4532V18.1583ZM14.4532 21.3923V21.4634H14.5243V21.3923H14.4532ZM14.18 21.3923H14.109V21.4634H14.18V21.3923ZM14.18 18.1583V18.0873H14.109V18.1583H14.18ZM16.5745 18.1583H16.6455V18.0873H16.5745V18.1583ZM16.5745 21.3923V21.4634H16.6455V21.3923H16.5745ZM16.3013 21.3923H16.2302V21.4634H16.3013V21.3923ZM16.3013 18.1583V18.0873H16.2302V18.1583H16.3013ZM16.2835 19.6087V19.842H16.4256V19.6087H16.2835ZM16.3546 19.7709H14.3888V19.913H16.3546V19.7709ZM14.4599 19.842V19.6087H14.3178V19.842H14.4599ZM14.3888 19.6798H16.3546V19.5377H14.3888V19.6798ZM14.3822 18.1583V21.3923H14.5243V18.1583H14.3822ZM14.4532 21.3213H14.18V21.4634H14.4532V21.3213ZM14.2511 21.3923V18.1583H14.109V21.3923H14.2511ZM14.18 18.2294H14.4532V18.0873H14.18V18.2294ZM16.5034 18.1583V21.3923H16.6455V18.1583H16.5034ZM16.5745 21.3213H16.3013V21.4634H16.5745V21.3213ZM16.3723 21.3923V18.1583H16.2302V21.3923H16.3723ZM16.3013 18.2294H16.5745V18.0873H16.3013V18.2294ZM23.2779 19.4266L23.2162 19.4619L23.2779 19.4266ZM22.3961 19.2356L22.4251 19.3005L22.4255 19.3003L22.3961 19.2356ZM22.1673 19.4111L22.1107 19.3681L22.1106 19.3682L22.1673 19.4111ZM22.0851 19.6532L22.0845 19.7242L22.1562 19.7248V19.6532H22.0851ZM21.8186 19.6509H21.7475V19.7214L21.818 19.722L21.8186 19.6509ZM22.074 19.1623L22.029 19.1073L22.074 19.1623ZM22.365 19.0046L22.388 19.0718L22.3885 19.0717L22.365 19.0046ZM23.1935 19.0312L23.1647 19.0962L23.165 19.0963L23.1935 19.0312ZM23.5022 19.2911L23.4424 19.3295L23.5022 19.2911ZM23.6311 21.1458L23.5606 21.1552L23.5608 21.1563L23.6311 21.1458ZM23.6866 21.3657H23.7577V21.3517L23.7523 21.3387L23.6866 21.3657ZM23.6866 21.3923V21.4634H23.7577V21.3923H23.6866ZM23.4045 21.3923L23.3371 21.4148L23.3533 21.4634H23.4045V21.3923ZM23.3623 21.1924L23.2916 21.2001L23.2918 21.2016L23.3623 21.1924ZM23.4112 19.993L23.4822 19.9915L23.4807 19.9219H23.4112V19.993ZM23.4156 20.1974V20.2684H23.4882L23.4867 20.1958L23.4156 20.1974ZM22.5271 20.2351L22.5426 20.3045L22.5433 20.3043L22.5271 20.2351ZM22.2562 20.3417L22.2936 20.4021L22.2945 20.4016L22.2562 20.3417ZM22.0851 20.5083L22.0245 20.4711L22.0239 20.4722L22.0851 20.5083ZM22.0918 20.9659L22.031 21.0026L22.0315 21.0035L22.0918 20.9659ZM22.2784 21.1369L22.2447 21.1995L22.2461 21.2002L22.2784 21.1369ZM22.958 21.1169L22.9273 21.0528L22.9269 21.053L22.958 21.1169ZM23.389 20.6105L23.4457 20.5677L23.3549 20.4473L23.3198 20.5939L23.389 20.6105ZM23.5045 20.7637L23.5732 20.7816L23.5819 20.7484L23.5612 20.721L23.5045 20.7637ZM23.3978 20.9925L23.3385 20.9534L23.3383 20.9536L23.3978 20.9925ZM23.2002 21.2102L23.2452 21.2652L23.2458 21.2647L23.2002 21.2102ZM22.9114 21.3746L22.9366 21.441L22.937 21.4409L22.9114 21.3746ZM22.1273 21.3479L22.0949 21.4112L22.0952 21.4113L22.1273 21.3479ZM21.8564 21.1058L21.7958 21.143L21.7964 21.144L21.8564 21.1058ZM21.8364 20.4372L21.8989 20.471L21.8991 20.4706L21.8364 20.4372ZM22.054 20.1974L22.0943 20.2559L22.0945 20.2558L22.054 20.1974ZM22.4005 20.0463L22.418 20.1152L22.4185 20.1151L22.4005 20.0463ZM23.42 20.9614V19.722H23.2779V20.9614H23.42ZM23.42 19.722C23.42 19.598 23.3942 19.4869 23.3396 19.3913L23.2162 19.4619C23.2563 19.5322 23.2779 19.618 23.2779 19.722H23.42ZM23.3396 19.3913C23.2846 19.2951 23.2039 19.2218 23.1001 19.1716L23.0381 19.2996C23.118 19.3382 23.1764 19.3923 23.2162 19.4619L23.3396 19.3913ZM23.1001 19.1716C22.996 19.1213 22.8714 19.0979 22.7293 19.0979V19.24C22.8566 19.24 22.9586 19.2611 23.0381 19.2996L23.1001 19.1716ZM22.7293 19.0979C22.5963 19.0979 22.475 19.1217 22.3667 19.1709L22.4255 19.3003C22.5126 19.2607 22.6134 19.24 22.7293 19.24V19.0979ZM22.3671 19.1707C22.2615 19.2178 22.1751 19.2833 22.1107 19.3681L22.2239 19.4541C22.272 19.3907 22.3382 19.3392 22.4251 19.3005L22.3671 19.1707ZM22.1106 19.3682C22.0467 19.4528 22.0141 19.5485 22.0141 19.6532H22.1562C22.1562 19.5802 22.1783 19.5144 22.224 19.4539L22.1106 19.3682ZM22.0857 19.5821L21.8192 19.5799L21.818 19.722L22.0845 19.7242L22.0857 19.5821ZM21.8897 19.6509C21.8897 19.5728 21.9088 19.4967 21.9481 19.422L21.8223 19.3557C21.7728 19.4498 21.7475 19.5484 21.7475 19.6509H21.8897ZM21.9481 19.422C21.9877 19.3468 22.0442 19.2785 22.119 19.2173L22.029 19.1073C21.941 19.1793 21.8716 19.2621 21.8223 19.3557L21.9481 19.422ZM22.119 19.2173C22.1931 19.1567 22.2824 19.108 22.388 19.0718L22.342 18.9373C22.2225 18.9782 22.1178 19.0346 22.029 19.1073L22.119 19.2173ZM22.3885 19.0717C22.4941 19.0347 22.6111 19.0157 22.7404 19.0157V18.8735C22.5971 18.8735 22.464 18.8946 22.3415 18.9375L22.3885 19.0717ZM22.7404 19.0157C22.9042 19.0157 23.0451 19.0432 23.1647 19.0962L23.2223 18.9663C23.0812 18.9038 22.9201 18.8735 22.7404 18.8735V19.0157ZM23.165 19.0963C23.2846 19.1488 23.3763 19.2264 23.4424 19.3295L23.5621 19.2528C23.4801 19.1249 23.366 19.0292 23.222 18.9661L23.165 19.0963ZM23.4424 19.3295C23.5073 19.4308 23.5422 19.5616 23.5422 19.7265H23.6844C23.6844 19.5418 23.6452 19.3825 23.5621 19.2528L23.4424 19.3295ZM23.5422 19.7265V20.8881H23.6844V19.7265H23.5422ZM23.5422 20.8881C23.5422 20.9744 23.5484 21.0635 23.5606 21.1552L23.7015 21.1364C23.69 21.0504 23.6844 20.9677 23.6844 20.8881H23.5422ZM23.5608 21.1563C23.5746 21.2486 23.5943 21.3279 23.6208 21.3927L23.7523 21.3387C23.7315 21.288 23.7142 21.2207 23.7013 21.1352L23.5608 21.1563ZM23.6155 21.3657V21.3923H23.7577V21.3657H23.6155ZM23.6866 21.3213H23.4045V21.4634H23.6866V21.3213ZM23.4719 21.3699C23.4561 21.3223 23.4428 21.2605 23.4328 21.1833L23.2918 21.2016C23.3025 21.2843 23.3174 21.3557 23.3371 21.4148L23.4719 21.3699ZM23.433 21.1847C23.4243 21.1055 23.42 21.0311 23.42 20.9614H23.2779C23.2779 21.0369 23.2825 21.1165 23.2916 21.2001L23.433 21.1847ZM23.3401 19.9946L23.3445 20.1989L23.4867 20.1958L23.4822 19.9915L23.3401 19.9946ZM23.4156 20.1263H22.8936V20.2684H23.4156V20.1263ZM22.8936 20.1263C22.7532 20.1263 22.6254 20.1392 22.511 20.1659L22.5433 20.3043C22.645 20.2806 22.7617 20.2684 22.8936 20.2684V20.1263ZM22.5117 20.1657C22.3989 20.1908 22.3004 20.229 22.2178 20.2819L22.2945 20.4016C22.36 20.3596 22.4422 20.3268 22.5426 20.3045L22.5117 20.1657ZM22.2187 20.2813C22.1366 20.3322 22.0711 20.3953 22.0246 20.4711L22.1457 20.5455C22.1791 20.491 22.2277 20.443 22.2936 20.4021L22.2187 20.2813ZM22.0239 20.4722C21.9784 20.5493 21.9563 20.636 21.9563 20.7304H22.0985C22.0985 20.659 22.1149 20.5976 22.1463 20.5445L22.0239 20.4722ZM21.9563 20.7304C21.9563 20.8288 21.9811 20.9201 22.031 21.0026L22.1526 20.9291C22.1166 20.8695 22.0985 20.8038 22.0985 20.7304H21.9563ZM22.0315 21.0035C22.083 21.086 22.1548 21.1512 22.2447 21.1995L22.312 21.0743C22.242 21.0367 22.1894 20.9879 22.1521 20.9282L22.0315 21.0035ZM22.2461 21.2002C22.3395 21.2478 22.4472 21.2702 22.5671 21.2702V21.128C22.4649 21.128 22.3801 21.109 22.3106 21.0736L22.2461 21.2002ZM22.5671 21.2702C22.724 21.2702 22.8653 21.2411 22.9892 21.1808L22.9269 21.053C22.8257 21.1023 22.7064 21.128 22.5671 21.128V21.2702ZM22.9888 21.181C23.1112 21.1222 23.2136 21.0443 23.2947 20.947L23.1855 20.856C23.1186 20.9363 23.033 21.002 22.9273 21.0528L22.9888 21.181ZM23.2947 20.947C23.3753 20.8503 23.4302 20.7435 23.4581 20.627L23.3198 20.5939C23.2974 20.6877 23.2531 20.7749 23.1855 20.856L23.2947 20.947ZM23.3322 20.6533L23.4477 20.8065L23.5612 20.721L23.4457 20.5677L23.3322 20.6533ZM23.4357 20.7459C23.4188 20.8108 23.387 20.88 23.3385 20.9534L23.4571 21.0317C23.5123 20.9481 23.5516 20.8647 23.5732 20.7816L23.4357 20.7459ZM23.3383 20.9536C23.2924 21.0239 23.2314 21.0914 23.1546 21.1557L23.2458 21.2647C23.3318 21.1928 23.4026 21.1151 23.4573 21.0314L23.3383 20.9536ZM23.1551 21.1552C23.0802 21.2165 22.9907 21.2677 22.8858 21.3083L22.937 21.4409C23.0542 21.3956 23.1572 21.3372 23.2452 21.2652L23.1551 21.1552ZM22.8862 21.3081C22.7861 21.346 22.6704 21.3657 22.5382 21.3657V21.5078C22.6845 21.5078 22.8176 21.4861 22.9366 21.441L22.8862 21.3081ZM22.5382 21.3657C22.3903 21.3657 22.2647 21.3378 22.1594 21.2845L22.0952 21.4113C22.2239 21.4765 22.3723 21.5078 22.5382 21.5078V21.3657ZM22.1598 21.2847C22.0547 21.2308 21.9742 21.1584 21.9163 21.0676L21.7964 21.144C21.8688 21.2576 21.969 21.3466 22.0949 21.4112L22.1598 21.2847ZM21.9169 21.0686C21.8606 20.9769 21.8319 20.873 21.8319 20.7549H21.6898C21.6898 20.8973 21.7248 21.0274 21.7958 21.143L21.9169 21.0686ZM21.8319 20.7549C21.8319 20.6468 21.8548 20.5527 21.8989 20.471L21.7738 20.4035C21.7172 20.5083 21.6898 20.626 21.6898 20.7549H21.8319ZM21.8991 20.4706C21.9437 20.3866 22.0083 20.3151 22.0943 20.2559L22.0138 20.1388C21.9103 20.2099 21.8297 20.2983 21.7736 20.4039L21.8991 20.4706ZM22.0945 20.2558C22.1826 20.1948 22.2899 20.1476 22.418 20.1152L22.3831 19.9774C22.2416 20.0132 22.118 20.0666 22.0136 20.1389L22.0945 20.2558ZM22.4185 20.1151C22.5478 20.0813 22.6942 20.0641 22.8581 20.0641V19.9219C22.6844 19.9219 22.5257 19.9402 22.3826 19.9775L22.4185 20.1151ZM22.8581 20.0641H23.4112V19.9219H22.8581V20.0641ZM29.1373 19.451H29.2084L29.2083 19.4483L29.1373 19.451ZM29.1373 22.3163V22.3874H29.2084V22.3163H29.1373ZM28.8708 22.3163H28.7997V22.3874H28.8708V22.3163ZM28.8708 18.989V18.918H28.7997V18.989H28.8708ZM29.1195 18.989L29.1906 18.9863L29.1879 18.918H29.1195V18.989ZM30.7454 20.7082L30.6769 20.6892L30.7454 20.7082ZM30.5655 21.0969L30.5077 21.0555L30.5076 21.0557L30.5655 21.0969ZM29.506 21.3701L29.4799 21.4362L29.506 21.3701ZM29.215 21.1813L29.1639 21.2307L29.1648 21.2316L29.215 21.1813ZM29.0218 20.8926L28.9564 20.9205L28.9569 20.9215L29.0218 20.8926ZM28.9218 20.5283H28.85L28.8515 20.5386L28.9218 20.5283ZM28.9218 19.913L28.8508 19.9022V19.913H28.9218ZM29.2239 19.2112L29.1719 19.1627L29.1715 19.1632L29.2239 19.2112ZM30.2745 19.0312L30.2424 19.0947L30.2434 19.0951L30.2745 19.0312ZM30.5655 19.2778L30.508 19.3196L30.5086 19.3204L30.5655 19.2778ZM30.7454 19.6643L30.6767 19.6825L30.6769 19.6833L30.7454 19.6643ZM30.4966 19.7776L30.4274 19.7938L30.4276 19.7946L30.4966 19.7776ZM30.3656 19.4644L30.3057 19.5027L30.3065 19.5038L30.3656 19.4644ZM30.1435 19.2534L30.1084 19.3152L30.1089 19.3154L30.1435 19.2534ZM29.4993 19.2423L29.5294 19.3067L29.5299 19.3064L29.4993 19.2423ZM29.2772 19.4088L29.3309 19.4555L29.3314 19.4549L29.2772 19.4088ZM29.0618 19.8731L28.9922 19.8586L28.9907 19.8658V19.8731H29.0618ZM29.0618 20.5816H28.9907V20.5904L28.9928 20.5989L29.0618 20.5816ZM29.1973 20.8948L29.1376 20.9334L29.1378 20.9338L29.1973 20.8948ZM29.446 21.1236L29.4114 21.1857L29.4125 21.1862L29.446 21.1236ZM30.1457 21.1325L30.1107 21.0706L30.1457 21.1325ZM30.3656 20.9214L30.3062 20.8825L30.3057 20.8832L30.3656 20.9214ZM30.4966 20.606L30.4276 20.589L30.4274 20.5898L30.4966 20.606ZM29.0662 19.451V22.3163H29.2084V19.451H29.0662ZM29.1373 22.2453H28.8708V22.3874H29.1373V22.2453ZM28.9418 22.3163V18.989H28.7997V22.3163H28.9418ZM28.8708 19.0601H29.1195V18.918H28.8708V19.0601ZM29.0485 18.9918L29.0663 19.4538L29.2083 19.4483L29.1906 18.9863L29.0485 18.9918ZM30.7365 20.1685V20.2151H30.8787V20.1685H30.7365ZM30.7365 20.2151C30.7365 20.3888 30.7164 20.5467 30.6769 20.6892L30.8139 20.7272C30.8573 20.5706 30.8787 20.3997 30.8787 20.2151H30.7365ZM30.6769 20.6892C30.6374 20.832 30.5807 20.9537 30.5077 21.0555L30.6233 21.1383C30.7073 21.021 30.7706 20.8836 30.8139 20.7272L30.6769 20.6892ZM30.5076 21.0557C30.4369 21.1549 30.3499 21.231 30.2462 21.2848L30.3117 21.411C30.4361 21.3464 30.5401 21.2551 30.6234 21.1382L30.5076 21.0557ZM30.2462 21.2848C30.1436 21.3382 30.0255 21.3657 29.8903 21.3657V21.5078C30.0453 21.5078 30.1864 21.4761 30.3117 21.411L30.2462 21.2848ZM29.8903 21.3657C29.7539 21.3657 29.6349 21.3446 29.5321 21.304L29.4799 21.4362C29.6022 21.4845 29.7393 21.5078 29.8903 21.5078V21.3657ZM29.5321 21.304C29.4282 21.263 29.3395 21.2053 29.2653 21.1311L29.1648 21.2316C29.2535 21.3203 29.3588 21.3884 29.4799 21.4362L29.5321 21.304ZM29.2662 21.132C29.1922 21.0553 29.1324 20.966 29.0867 20.8636L28.9569 20.9215C29.009 21.0383 29.0779 21.1415 29.1639 21.2307L29.2662 21.132ZM29.0872 20.8647C29.0424 20.7598 29.0106 20.6444 28.9922 20.518L28.8515 20.5386C28.8716 20.6758 28.9064 20.8032 28.9564 20.9205L29.0872 20.8647ZM28.9929 20.5283V19.913H28.8508V20.5283H28.9929ZM28.9921 19.9238C29.0135 19.7837 29.0484 19.6578 29.0961 19.5455L28.9653 19.4899C28.9123 19.6145 28.8746 19.7521 28.8516 19.9023L28.9921 19.9238ZM29.0961 19.5455C29.1436 19.4336 29.2039 19.3385 29.2764 19.2591L29.1715 19.1632C29.087 19.2556 29.0184 19.3648 28.9653 19.4899L29.0961 19.5455ZM29.2759 19.2596C29.3489 19.1812 29.4353 19.1211 29.5357 19.079L29.4808 18.9479C29.362 18.9977 29.2588 19.0694 29.1719 19.1627L29.2759 19.2596ZM29.5357 19.079C29.6351 19.0374 29.7507 19.0157 29.8836 19.0157V18.8735C29.7352 18.8735 29.6005 18.8978 29.4808 18.9479L29.5357 19.079ZM29.8836 19.0157C30.0207 19.0157 30.1397 19.0426 30.2424 19.0947L30.3066 18.9678C30.1813 18.9044 30.0397 18.8735 29.8836 18.8735V19.0157ZM30.2434 19.0951C30.348 19.1461 30.4361 19.2205 30.508 19.3196L30.623 19.236C30.538 19.1189 30.4321 19.0289 30.3057 18.9674L30.2434 19.0951ZM30.5086 19.3204C30.5823 19.4186 30.6387 19.5388 30.6767 19.6825L30.8141 19.6461C30.7722 19.4877 30.7087 19.3502 30.6224 19.2351L30.5086 19.3204ZM30.6769 19.6833C30.7164 19.8255 30.7365 19.9871 30.7365 20.1685H30.8787C30.8787 19.9767 30.8574 19.8021 30.8139 19.6453L30.6769 19.6833ZM30.6121 20.2151V20.1685H30.47V20.2151H30.6121ZM30.6121 20.1685C30.6121 20.0228 30.5968 19.8867 30.5656 19.7605L30.4276 19.7946C30.4557 19.9083 30.47 20.0328 30.47 20.1685H30.6121ZM30.5658 19.7613C30.5361 19.6344 30.4893 19.5219 30.4247 19.4249L30.3065 19.5038C30.3603 19.5846 30.401 19.6809 30.4274 19.7938L30.5658 19.7613ZM30.4255 19.4261C30.3616 19.3262 30.2791 19.2476 30.1781 19.1913L30.1089 19.3154C30.1886 19.3599 30.2541 19.4219 30.3057 19.5027L30.4255 19.4261ZM30.1785 19.1915C30.077 19.134 29.9585 19.1068 29.8259 19.1068V19.2489C29.939 19.2489 30.0323 19.272 30.1084 19.3152L30.1785 19.1915ZM29.8259 19.1068C29.6907 19.1068 29.5709 19.1295 29.4688 19.1781L29.5299 19.3064C29.6084 19.2691 29.7063 19.2489 29.8259 19.2489V19.1068ZM29.4693 19.1778C29.3719 19.2233 29.2894 19.2849 29.2231 19.3628L29.3314 19.4549C29.3835 19.3936 29.4491 19.3441 29.5294 19.3067L29.4693 19.1778ZM29.2236 19.3622C29.1595 19.4359 29.1088 19.5172 29.0717 19.6058L29.2029 19.6606C29.2339 19.5863 29.2765 19.518 29.3309 19.4555L29.2236 19.3622ZM29.0717 19.6058C29.0361 19.691 29.0095 19.7753 28.9922 19.8586L29.1314 19.8875C29.1467 19.8139 29.1704 19.7383 29.2029 19.6606L29.0717 19.6058ZM28.9907 19.8731V20.5816H29.1329V19.8731H28.9907ZM28.9928 20.5989C29.0228 20.7189 29.0711 20.8305 29.1376 20.9334L29.257 20.8562C29.1991 20.7666 29.157 20.6694 29.1307 20.5644L28.9928 20.5989ZM29.1378 20.9338C29.2066 21.0386 29.2983 21.1226 29.4114 21.1857L29.4806 21.0615C29.3865 21.009 29.3123 20.9405 29.2567 20.8558L29.1378 20.9338ZM29.4125 21.1862C29.5303 21.2493 29.6706 21.2791 29.8303 21.2791V21.1369C29.6879 21.1369 29.572 21.1104 29.4796 21.0609L29.4125 21.1862ZM29.8303 21.2791C29.9617 21.2791 30.0794 21.2518 30.1807 21.1943L30.1107 21.0706C30.0344 21.1139 29.9418 21.1369 29.8303 21.1369V21.2791ZM30.1807 21.1943C30.2802 21.138 30.3618 21.0593 30.4255 20.9597L30.3057 20.8832C30.2539 20.9642 30.1889 21.0263 30.1107 21.0706L30.1807 21.1943ZM30.425 20.9604C30.4894 20.8622 30.5361 20.7492 30.5658 20.6223L30.4274 20.5898C30.4009 20.7028 30.3602 20.8 30.3062 20.8825L30.425 20.9604ZM30.5656 20.6231C30.5968 20.4969 30.6121 20.3608 30.6121 20.2151H30.47C30.47 20.3508 30.4557 20.4753 30.4276 20.589L30.5656 20.6231ZM36.2094 19.451H36.2806L36.2805 19.4483L36.2094 19.451ZM36.2094 22.3163V22.3874H36.2805V22.3163H36.2094ZM35.9429 22.3163H35.8718V22.3874H35.9429V22.3163ZM35.9429 18.989V18.918H35.8718V18.989H35.9429ZM36.1917 18.989L36.2627 18.9863L36.2601 18.918H36.1917V18.989ZM37.8176 20.7082L37.7491 20.6892L37.8176 20.7082ZM37.6377 21.0969L37.5799 21.0555L37.5798 21.0557L37.6377 21.0969ZM36.5782 21.3701L36.5521 21.4362L36.5782 21.3701ZM36.2872 21.1813L36.236 21.2307L36.2369 21.2316L36.2872 21.1813ZM36.0939 20.8926L36.0286 20.9205L36.029 20.9215L36.0939 20.8926ZM35.994 20.5283H35.9222L35.9237 20.5386L35.994 20.5283ZM35.994 19.913L35.9229 19.9022V19.913H35.994ZM36.2961 19.2112L36.2441 19.1627L36.2436 19.1632L36.2961 19.2112ZM37.3467 19.0312L37.3146 19.0947L37.3156 19.0951L37.3467 19.0312ZM37.6377 19.2778L37.5801 19.3196L37.5808 19.3204L37.6377 19.2778ZM37.8176 19.6643L37.7489 19.6825L37.7491 19.6833L37.8176 19.6643ZM37.5688 19.7776L37.4996 19.7938L37.4998 19.7946L37.5688 19.7776ZM37.4377 19.4644L37.3779 19.5027L37.3786 19.5038L37.4377 19.4644ZM37.2156 19.2534L37.1806 19.3152L37.181 19.3154L37.2156 19.2534ZM36.5715 19.2423L36.6016 19.3067L36.602 19.3064L36.5715 19.2423ZM36.3494 19.4088L36.403 19.4555L36.4035 19.4549L36.3494 19.4088ZM36.1339 19.8731L36.0643 19.8586L36.0629 19.8658V19.8731H36.1339ZM36.1339 20.5816H36.0629V20.5904L36.065 20.5989L36.1339 20.5816ZM36.2694 20.8948L36.2097 20.9334L36.21 20.9338L36.2694 20.8948ZM36.5182 21.1236L36.4836 21.1857L36.4846 21.1862L36.5182 21.1236ZM37.2179 21.1325L37.1828 21.0706L37.2179 21.1325ZM37.4377 20.9214L37.3783 20.8825L37.3779 20.8832L37.4377 20.9214ZM37.5688 20.606L37.4998 20.589L37.4996 20.5898L37.5688 20.606ZM36.1384 19.451V22.3163H36.2805V19.451H36.1384ZM36.2094 22.2453H35.9429V22.3874H36.2094V22.2453ZM36.014 22.3163V18.989H35.8718V22.3163H36.014ZM35.9429 19.0601H36.1917V18.918H35.9429V19.0601ZM36.1207 18.9918L36.1384 19.4538L36.2805 19.4483L36.2627 18.9863L36.1207 18.9918ZM37.8087 20.1685V20.2151H37.9508V20.1685H37.8087ZM37.8087 20.2151C37.8087 20.3888 37.7886 20.5467 37.7491 20.6892L37.8861 20.7272C37.9295 20.5706 37.9508 20.3997 37.9508 20.2151H37.8087ZM37.7491 20.6892C37.7095 20.832 37.6528 20.9537 37.5799 21.0555L37.6954 21.1383C37.7794 21.021 37.8427 20.8836 37.8861 20.7272L37.7491 20.6892ZM37.5798 21.0557C37.5091 21.1549 37.4221 21.231 37.3184 21.2848L37.3839 21.411C37.5082 21.3464 37.6122 21.2551 37.6955 21.1382L37.5798 21.0557ZM37.3184 21.2848C37.2157 21.3382 37.0976 21.3657 36.9624 21.3657V21.5078C37.1175 21.5078 37.2585 21.4761 37.3839 21.411L37.3184 21.2848ZM36.9624 21.3657C36.8261 21.3657 36.7071 21.3446 36.6043 21.304L36.5521 21.4362C36.6743 21.4845 36.8115 21.5078 36.9624 21.5078V21.3657ZM36.6043 21.304C36.5003 21.263 36.4117 21.2053 36.3374 21.1311L36.2369 21.2316C36.3256 21.3203 36.4309 21.3884 36.5521 21.4362L36.6043 21.304ZM36.3384 21.132C36.2644 21.0553 36.2045 20.966 36.1589 20.8636L36.029 20.9215C36.0811 21.0383 36.1501 21.1415 36.236 21.2307L36.3384 21.132ZM36.1593 20.8647C36.1146 20.7598 36.0828 20.6444 36.0643 20.518L35.9237 20.5386C35.9437 20.6758 35.9786 20.8032 36.0286 20.9205L36.1593 20.8647ZM36.0651 20.5283V19.913H35.9229V20.5283H36.0651ZM36.0643 19.9238C36.0857 19.7837 36.1205 19.6578 36.1682 19.5455L36.0374 19.4899C35.9845 19.6145 35.9467 19.7521 35.9237 19.9023L36.0643 19.9238ZM36.1682 19.5455C36.2158 19.4336 36.276 19.3385 36.3485 19.2591L36.2436 19.1632C36.1592 19.2556 36.0906 19.3648 36.0374 19.4899L36.1682 19.5455ZM36.3481 19.2596C36.4211 19.1812 36.5075 19.1211 36.6078 19.079L36.5529 18.9479C36.4342 18.9977 36.331 19.0694 36.2441 19.1627L36.3481 19.2596ZM36.6078 19.079C36.7073 19.0374 36.8228 19.0157 36.9558 19.0157V18.8735C36.8074 18.8735 36.6726 18.8978 36.5529 18.9479L36.6078 19.079ZM36.9558 19.0157C37.0928 19.0157 37.2119 19.0426 37.3146 19.0947L37.3788 18.9678C37.2534 18.9044 37.1119 18.8735 36.9558 18.8735V19.0157ZM37.3156 19.0951C37.4202 19.1461 37.5082 19.2205 37.5801 19.3196L37.6952 19.236C37.6101 19.1189 37.5042 19.0289 37.3778 18.9674L37.3156 19.0951ZM37.5808 19.3204C37.6544 19.4186 37.7108 19.5388 37.7489 19.6825L37.8863 19.6461C37.8444 19.4877 37.7808 19.3502 37.6945 19.2351L37.5808 19.3204ZM37.7491 19.6833C37.7885 19.8255 37.8087 19.9871 37.8087 20.1685H37.9508C37.9508 19.9767 37.9295 19.8021 37.8861 19.6453L37.7491 19.6833ZM37.6843 20.2151V20.1685H37.5421V20.2151H37.6843ZM37.6843 20.1685C37.6843 20.0228 37.669 19.8867 37.6378 19.7605L37.4998 19.7946C37.5279 19.9083 37.5421 20.0328 37.5421 20.1685H37.6843ZM37.638 19.7613C37.6082 19.6344 37.5615 19.5219 37.4969 19.4249L37.3786 19.5038C37.4325 19.5846 37.4731 19.6809 37.4996 19.7938L37.638 19.7613ZM37.4976 19.4261C37.4338 19.3262 37.3512 19.2476 37.2502 19.1913L37.181 19.3154C37.2607 19.3599 37.3262 19.4219 37.3779 19.5027L37.4976 19.4261ZM37.2507 19.1915C37.1492 19.134 37.0307 19.1068 36.898 19.1068V19.2489C37.0111 19.2489 37.1044 19.272 37.1806 19.3152L37.2507 19.1915ZM36.898 19.1068C36.7629 19.1068 36.6431 19.1295 36.541 19.1781L36.602 19.3064C36.6806 19.2691 36.7784 19.2489 36.898 19.2489V19.1068ZM36.5414 19.1778C36.444 19.2233 36.3616 19.2849 36.2953 19.3628L36.4035 19.4549C36.4557 19.3936 36.5213 19.3441 36.6016 19.3067L36.5414 19.1778ZM36.2957 19.3622C36.2317 19.4359 36.1809 19.5172 36.1439 19.6058L36.275 19.6606C36.3061 19.5863 36.3487 19.518 36.403 19.4555L36.2957 19.3622ZM36.1439 19.6058C36.1082 19.691 36.0816 19.7753 36.0643 19.8586L36.2035 19.8875C36.2188 19.8139 36.2425 19.7383 36.275 19.6606L36.1439 19.6058ZM36.0629 19.8731V20.5816H36.205V19.8731H36.0629ZM36.065 20.5989C36.095 20.7189 36.1432 20.8305 36.2097 20.9334L36.3291 20.8562C36.2712 20.7666 36.2292 20.6694 36.2029 20.5644L36.065 20.5989ZM36.21 20.9338C36.2788 21.0386 36.3704 21.1226 36.4836 21.1857L36.5528 21.0615C36.4587 21.009 36.3844 20.9405 36.3288 20.8558L36.21 20.9338ZM36.4846 21.1862C36.6025 21.2493 36.7428 21.2791 36.9025 21.2791V21.1369C36.7601 21.1369 36.6442 21.1104 36.5517 21.0609L36.4846 21.1862ZM36.9025 21.2791C37.0338 21.2791 37.1515 21.2518 37.2529 21.1943L37.1828 21.0706C37.1065 21.1139 37.0139 21.1369 36.9025 21.1369V21.2791ZM37.2529 21.1943C37.3523 21.138 37.434 21.0593 37.4976 20.9597L37.3779 20.8832C37.326 20.9642 37.2611 21.0263 37.1828 21.0706L37.2529 21.1943ZM37.4972 20.9604C37.5616 20.8622 37.6082 20.7492 37.638 20.6223L37.4996 20.5898C37.4731 20.7028 37.4324 20.8 37.3783 20.8825L37.4972 20.9604ZM37.6378 20.6231C37.669 20.4969 37.6843 20.3608 37.6843 20.2151H37.5421C37.5421 20.3508 37.5279 20.4753 37.4998 20.589L37.6378 20.6231ZM43.7058 21.1524L43.7726 21.177L43.773 21.1757L43.7058 21.1524ZM44.4544 18.989V18.918H44.4038L44.3872 18.9658L44.4544 18.989ZM44.7409 18.989L44.8077 19.0134L44.8425 18.918H44.7409V18.989ZM43.7236 21.7788L43.7901 21.804L43.7904 21.8032L43.7236 21.7788ZM43.6437 21.9609L43.5798 21.9297L43.5792 21.9309L43.6437 21.9609ZM43.5193 22.152L43.4652 22.1058L43.464 22.1072L43.5193 22.152ZM43.3283 22.303L43.2965 22.2394L43.295 22.2402L43.3283 22.303ZM42.9418 22.3519L42.9535 22.2817L42.9515 22.2815L42.9418 22.3519ZM42.8485 22.3341L42.7774 22.3348L42.7779 22.3868L42.8276 22.402L42.8485 22.3341ZM42.8463 22.1098L42.865 22.0412L42.7743 22.0165L42.7752 22.1105L42.8463 22.1098ZM43.2239 22.0764L43.1926 22.0126L43.1921 22.0129L43.2239 22.0764ZM43.3904 21.9299L43.3321 21.8892L43.3317 21.8898L43.3904 21.9299ZM43.5082 21.69L43.4414 21.6654L43.4412 21.6663L43.5082 21.69ZM43.0062 18.989L43.0728 18.9643L43.0556 18.918H43.0062V18.989ZM43.7725 21.0525L43.8417 21.0348L43.8391 21.0278L43.7725 21.0525ZM43.8436 21.3301L43.8784 21.3921L43.9259 21.3653L43.9124 21.3125L43.8436 21.3301ZM43.6503 21.439L43.5839 21.4643L43.6133 21.5414L43.6852 21.5009L43.6503 21.439ZM42.7174 18.989V18.918H42.6143L42.651 19.0143L42.7174 18.989ZM43.773 21.1757L44.5215 19.0123L44.3872 18.9658L43.6387 21.1292L43.773 21.1757ZM44.4544 19.0601H44.7409V18.918H44.4544V19.0601ZM44.6741 18.9647L43.6568 21.7545L43.7904 21.8032L44.8077 19.0134L44.6741 18.9647ZM43.6571 21.7537C43.6374 21.8059 43.6116 21.8646 43.5798 21.9297L43.7075 21.9922C43.7408 21.924 43.7684 21.8613 43.7901 21.804L43.6571 21.7537ZM43.5792 21.9309C43.5511 21.9912 43.5132 22.0496 43.4652 22.1058L43.5733 22.1981C43.629 22.1329 43.674 22.0639 43.7081 21.991L43.5792 21.9309ZM43.464 22.1072C43.4205 22.161 43.3651 22.2051 43.2965 22.2394L43.36 22.3666C43.4454 22.3239 43.5173 22.2674 43.5745 22.1967L43.464 22.1072ZM43.295 22.2402C43.2322 22.2734 43.1518 22.2919 43.0506 22.2919V22.4341C43.1686 22.4341 43.2733 22.4125 43.3615 22.3658L43.295 22.2402ZM43.0506 22.2919C43.028 22.2919 42.996 22.2889 42.9535 22.2818L42.9301 22.422C42.9764 22.4297 43.0169 22.4341 43.0506 22.4341V22.2919ZM42.9515 22.2815C42.909 22.2756 42.8828 22.2703 42.8694 22.2662L42.8276 22.402C42.8527 22.4098 42.8886 22.4163 42.9321 22.4223L42.9515 22.2815ZM42.9196 22.3334L42.9173 22.1091L42.7752 22.1105L42.7774 22.3348L42.9196 22.3334ZM42.8276 22.1783C42.8498 22.1844 42.8782 22.1885 42.9106 22.1916L42.9241 22.0501C42.8942 22.0473 42.8753 22.044 42.865 22.0412L42.8276 22.1783ZM42.9106 22.1916C42.9415 22.1946 42.9661 22.1964 42.9818 22.1964V22.0542C42.9737 22.0542 42.9554 22.0531 42.9241 22.0501L42.9106 22.1916ZM42.9818 22.1964C43.0856 22.1964 43.178 22.1789 43.2556 22.14L43.1921 22.0129C43.1394 22.0392 43.0704 22.0542 42.9818 22.0542V22.1964ZM43.2551 22.1403C43.3335 22.102 43.3983 22.0446 43.4492 21.9699L43.3317 21.8898C43.2938 21.9454 43.2475 21.9858 43.1926 22.0126L43.2551 22.1403ZM43.4487 21.9705C43.4977 21.9003 43.5396 21.8142 43.5752 21.7137L43.4412 21.6663C43.4086 21.7583 43.372 21.8321 43.3321 21.8892L43.4487 21.9705ZM43.5749 21.7145L43.7726 21.177L43.6391 21.1279L43.4415 21.6654L43.5749 21.7145ZM42.9396 19.0138L43.7058 21.0772L43.8391 21.0278L43.0728 18.9643L42.9396 19.0138ZM43.7036 21.0701L43.7747 21.3478L43.9124 21.3125L43.8413 21.0349L43.7036 21.0701ZM43.8087 21.2682L43.6154 21.377L43.6852 21.5009L43.8784 21.3921L43.8087 21.2682ZM43.7167 21.4137L42.7839 18.9638L42.651 19.0143L43.5839 21.4643L43.7167 21.4137ZM42.7174 19.0601H43.0062V18.918H42.7174V19.0601ZM51.6376 21.1591H51.7087V21.088H51.6376V21.1591ZM51.6376 21.3923V21.4634H51.7087V21.3923H51.6376ZM49.9606 21.3923H49.8895V21.4634H49.9606V21.3923ZM49.9606 21.1591V21.088H49.8895V21.1591H49.9606ZM50.0406 18.1583H50.1117V18.0873H50.0406V18.1583ZM50.0406 21.3923V21.4634H50.1117V21.3923H50.0406ZM49.7674 21.3923H49.6963V21.4634H49.7674V21.3923ZM49.7674 18.1583V18.0873H49.6963V18.1583H49.7674ZM51.5665 21.1591V21.3923H51.7087V21.1591H51.5665ZM51.6376 21.3213H49.9606V21.4634H51.6376V21.3213ZM50.0317 21.3923V21.1591H49.8895V21.3923H50.0317ZM49.9606 21.2302H51.6376V21.088H49.9606V21.2302ZM49.9695 18.1583V21.3923H50.1117V18.1583H49.9695ZM50.0406 21.3213H49.7674V21.4634H50.0406V21.3213ZM49.8385 21.3923V18.1583H49.6963V21.3923H49.8385ZM49.7674 18.2294H50.0406V18.0873H49.7674V18.2294ZM56.9484 18.989H57.0194V18.918H56.9484V18.989ZM56.9484 21.3923V21.4634H57.0194V21.3923H56.9484ZM56.684 21.3923H56.613V21.4634H56.684V21.3923ZM56.684 18.989V18.918H56.613V18.989H56.684ZM56.684 18.1672L56.6317 18.1192L56.6316 18.1193L56.684 18.1672ZM56.9506 18.1672L56.8981 18.2153L56.9003 18.2175L56.9506 18.1672ZM56.9506 18.4204L56.8993 18.3713L56.8992 18.3713L56.9506 18.4204ZM56.684 18.4204L56.6305 18.4673L56.6327 18.4696L56.684 18.4204ZM56.8773 18.989V21.3923H57.0194V18.989H56.8773ZM56.9484 21.3213H56.684V21.4634H56.9484V21.3213ZM56.7551 21.3923V18.989H56.613V21.3923H56.7551ZM56.684 19.0601H56.9484V18.918H56.684V19.0601ZM56.7085 18.2938C56.7085 18.2594 56.7185 18.2349 56.7365 18.2151L56.6316 18.1193C56.5874 18.1677 56.5663 18.2275 56.5663 18.2938H56.7085ZM56.7364 18.2152C56.7533 18.1969 56.7773 18.185 56.8173 18.185V18.0428C56.7448 18.0428 56.68 18.0665 56.6317 18.1192L56.7364 18.2152ZM56.8173 18.185C56.8573 18.185 56.8814 18.1969 56.8982 18.2152L57.003 18.1192C56.9547 18.0665 56.8899 18.0428 56.8173 18.0428V18.185ZM56.9003 18.2175C56.9204 18.2375 56.9306 18.2614 56.9306 18.2938H57.0728C57.0728 18.2256 57.0489 18.165 57.0008 18.117L56.9003 18.2175ZM56.9306 18.2938C56.9306 18.3242 56.9207 18.3488 56.8993 18.3713L57.0019 18.4696C57.0485 18.4209 57.0728 18.3612 57.0728 18.2938H56.9306ZM56.8992 18.3713C56.8826 18.3887 56.8582 18.4004 56.8173 18.4004V18.5426C56.8889 18.5426 56.9534 18.5203 57.0019 18.4696L56.8992 18.3713ZM56.8173 18.4004C56.7764 18.4004 56.752 18.3887 56.7354 18.3713L56.6327 18.4696C56.6812 18.5203 56.7457 18.5426 56.8173 18.5426V18.4004ZM56.7375 18.3736C56.7182 18.3515 56.7085 18.3261 56.7085 18.2938H56.5663C56.5663 18.3593 56.5877 18.4183 56.6306 18.4672L56.7375 18.3736ZM62.6789 21.3923V21.4634H62.75V21.3923H62.6789ZM62.4146 21.3923H62.3435V21.4634H62.4146V21.3923ZM62.499 18.2761L62.4358 18.2436L62.4355 18.2443L62.499 18.2761ZM62.7434 18.0206L62.7095 17.9581L62.7091 17.9583L62.7434 18.0206ZM63.2653 17.9429L63.2568 18.0135L63.2589 18.0137L63.2653 17.9429ZM63.4075 17.9718L63.4783 17.9781L63.4833 17.9215L63.4293 17.9041L63.4075 17.9718ZM63.3875 18.1961L63.3683 18.2645L63.4507 18.2876L63.4583 18.2024L63.3875 18.1961ZM63.2742 18.1761L63.2657 18.2467L63.2688 18.247L63.2742 18.1761ZM62.8944 18.2316L62.9298 18.2933L62.9308 18.2927L62.8944 18.2316ZM63.252 18.989H63.3231V18.918H63.252V18.989ZM63.252 19.2067V19.2778H63.3231V19.2067H63.252ZM62.017 19.2067H61.946V19.2778H62.017V19.2067ZM62.017 18.989V18.918H61.946V18.989H62.017ZM62.6789 21.3213H62.4146V21.4634H62.6789V21.3213ZM62.4857 21.3923V18.6914H62.3435V21.3923H62.4857ZM62.4857 18.6914C62.4857 18.5348 62.5125 18.408 62.5626 18.3078L62.4355 18.2443C62.373 18.3692 62.3435 18.5193 62.3435 18.6914H62.4857ZM62.5623 18.3085C62.6139 18.2079 62.6856 18.1335 62.7776 18.0829L62.7091 17.9583C62.5909 18.0233 62.4996 18.1192 62.4358 18.2436L62.5623 18.3085ZM62.7772 18.0831C62.8715 18.0321 62.9859 18.0051 63.1232 18.0051V17.8629C62.9672 17.8629 62.8285 17.8937 62.7095 17.9581L62.7772 18.0831ZM63.1232 18.0051C63.166 18.0051 63.2105 18.0078 63.2568 18.0134L63.2739 17.8723C63.2224 17.8661 63.1721 17.8629 63.1232 17.8629V18.0051ZM63.2589 18.0137C63.3026 18.0176 63.3448 18.0262 63.3857 18.0394L63.4293 17.9041C63.3783 17.8877 63.3258 17.877 63.2718 17.8721L63.2589 18.0137ZM63.3367 17.9654L63.3167 18.1898L63.4583 18.2024L63.4783 17.9781L63.3367 17.9654ZM63.4067 18.1276C63.3651 18.116 63.3228 18.1086 63.2797 18.1052L63.2688 18.247C63.3026 18.2496 63.3358 18.2554 63.3683 18.2645L63.4067 18.1276ZM63.2827 18.1055C63.2421 18.1007 63.1954 18.0984 63.1432 18.0984V18.2405C63.1916 18.2405 63.2323 18.2427 63.2657 18.2467L63.2827 18.1055ZM63.1432 18.0984C63.0365 18.0984 62.9405 18.1214 62.858 18.1706L62.9308 18.2927C62.9875 18.2589 63.0573 18.2405 63.1432 18.2405V18.0984ZM62.859 18.17C62.7761 18.2176 62.7132 18.2872 62.6704 18.3763L62.7985 18.4379C62.8298 18.373 62.8735 18.3256 62.9298 18.2933L62.859 18.17ZM62.6704 18.3763C62.6276 18.4655 62.6079 18.5714 62.6079 18.6914H62.75C62.75 18.5863 62.7674 18.5027 62.7985 18.4379L62.6704 18.3763ZM62.6079 18.6914V21.3923H62.75V18.6914H62.6079ZM63.1809 18.989V19.2067H63.3231V18.989H63.1809ZM63.252 19.1356H62.017V19.2778H63.252V19.1356ZM62.0881 19.2067V18.989H61.946V19.2067H62.0881ZM62.017 19.0601H63.252V18.918H62.017V19.0601ZM68.7205 21.3501L68.6917 21.4151L68.692 21.4152L68.7205 21.3501ZM68.3784 21.1058L68.326 21.1538L68.3264 21.1542L68.3784 21.1058ZM68.1541 20.7327L68.0871 20.7566L68.0874 20.7574L68.1541 20.7327ZM68.7138 19.0312L68.7434 19.0959L68.7438 19.0957L68.7138 19.0312ZM69.5112 19.0268L69.4814 19.0913L69.482 19.0916L69.5112 19.0268ZM69.8088 19.2556L69.7535 19.3002L69.7542 19.3011L69.8088 19.2556ZM69.9932 19.6043L69.9253 19.6252L69.9253 19.6254L69.9932 19.6043ZM70.0554 20.2085V20.2795H70.1265V20.2085H70.0554ZM68.2363 20.2085H68.1652V20.2795H68.2363V20.2085ZM68.2363 19.9819V19.9108H68.1652V19.9819H68.2363ZM69.7911 19.9819V20.053H69.8622V19.9819H69.7911ZM69.7911 19.9508H69.8622L69.8621 19.9492L69.7911 19.9508ZM69.7089 19.5732L69.6435 19.601L69.6439 19.602L69.7089 19.5732ZM68.7938 19.2445L68.762 19.1809L68.7616 19.1811L68.7938 19.2445ZM68.5517 19.4488L68.4953 19.4056L68.4952 19.4057L68.5517 19.4488ZM68.3962 19.762L68.3282 19.7413L68.328 19.7418L68.3962 19.762ZM68.4006 20.6305L68.3332 20.653L68.3336 20.654L68.4006 20.6305ZM68.5694 20.9326L68.5148 20.978L68.5152 20.9785L68.5694 20.9326ZM69.5423 21.1325L69.5727 21.1967L69.5734 21.1964L69.5423 21.1325ZM69.8377 20.8815L69.8812 20.8252L69.8247 20.7816L69.7813 20.8382L69.8377 20.8815ZM70.0043 21.0103L70.0633 21.05L70.1004 20.9948L70.0478 20.9541L70.0043 21.0103ZM69.8088 21.2235L69.7634 21.1688L69.7629 21.1693L69.8088 21.2235ZM69.1536 21.3657C69.0056 21.3657 68.871 21.3385 68.749 21.285L68.692 21.4152C68.8335 21.4773 68.9877 21.5078 69.1536 21.5078V21.3657ZM68.7493 21.2852C68.6278 21.2313 68.5217 21.1556 68.4305 21.0574L68.3264 21.1542C68.4306 21.2663 68.5525 21.3534 68.6917 21.4151L68.7493 21.2852ZM68.4308 21.0578C68.3412 20.9599 68.2711 20.8436 68.2207 20.7079L68.0874 20.7574C68.1437 20.909 68.2231 21.0414 68.326 21.1538L68.4308 21.0578ZM68.221 20.7087C68.1722 20.5721 68.1474 20.4219 68.1474 20.2573H68.0053C68.0053 20.4363 68.0323 20.6029 68.0872 20.7566L68.221 20.7087ZM68.1474 20.2573V20.1618H68.0053V20.2573H68.1474ZM68.1474 20.1618C68.1474 19.9837 68.1738 19.8249 68.2253 19.6843L68.0918 19.6354C68.0337 19.7939 68.0053 19.9697 68.0053 20.1618H68.1474ZM68.2253 19.6843C68.2773 19.5423 68.3483 19.4224 68.4378 19.3232L68.3323 19.2279C68.2293 19.342 68.1494 19.4782 68.0918 19.6354L68.2253 19.6843ZM68.4378 19.3232C68.528 19.2233 68.6298 19.1479 68.7434 19.0959L68.6842 18.9666C68.552 19.0272 68.4347 19.1146 68.3323 19.2279L68.4378 19.3232ZM68.7438 19.0957C68.8588 19.0423 68.9789 19.0157 69.1047 19.0157V18.8735C68.9581 18.8735 68.8176 18.9047 68.6839 18.9668L68.7438 19.0957ZM69.1047 19.0157C69.2487 19.0157 69.3737 19.0415 69.4814 19.0913L69.541 18.9623C69.4118 18.9025 69.2658 18.8735 69.1047 18.8735V19.0157ZM69.482 19.0916C69.5905 19.1404 69.6807 19.2099 69.7535 19.3002L69.8642 19.211C69.7771 19.1029 69.6688 19.0198 69.5404 18.962L69.482 19.0916ZM69.7542 19.3011C69.829 19.3908 69.8863 19.4985 69.9253 19.6252L70.0611 19.5834C70.0172 19.4406 69.9515 19.3158 69.8634 19.2101L69.7542 19.3011ZM69.9253 19.6254C69.9644 19.7509 69.9843 19.891 69.9843 20.0463H70.1265C70.1265 19.8788 70.105 19.7243 70.0611 19.5832L69.9253 19.6254ZM69.9843 20.0463V20.2085H70.1265V20.0463H69.9843ZM70.0554 20.1374H68.2363V20.2795H70.0554V20.1374ZM68.3073 20.2085V19.9819H68.1652V20.2085H68.3073ZM68.2363 20.053H69.7911V19.9108H68.2363V20.053ZM69.8622 19.9819V19.9508H69.72V19.9819H69.8622ZM69.8621 19.9492C69.859 19.8056 69.8297 19.6704 69.7739 19.5444L69.6439 19.602C69.6917 19.7099 69.7172 19.8265 69.72 19.9524L69.8621 19.9492ZM69.7743 19.5454C69.7191 19.4156 69.6357 19.309 69.5244 19.2272L69.4402 19.3417C69.5303 19.408 69.598 19.4939 69.6435 19.601L69.7743 19.5454ZM69.5244 19.2272C69.4092 19.1424 69.2677 19.1023 69.1047 19.1023V19.2445C69.2439 19.2445 69.3541 19.2784 69.4402 19.3417L69.5244 19.2272ZM69.1047 19.1023C68.9819 19.1023 68.8672 19.1283 68.762 19.1809L68.8256 19.3081C68.9099 19.2659 69.0025 19.2445 69.1047 19.2445V19.1023ZM68.7616 19.1811C68.6582 19.2336 68.5694 19.3089 68.4953 19.4056L68.6081 19.4921C68.6702 19.4111 68.7428 19.3501 68.826 19.3078L68.7616 19.1811ZM68.4952 19.4057C68.4227 19.5008 68.3673 19.613 68.3282 19.7413L68.4642 19.7827C68.4991 19.6682 68.5474 19.5716 68.6082 19.4919L68.4952 19.4057ZM68.328 19.7418C68.2903 19.8693 68.2718 20.0095 68.2718 20.1618H68.414C68.414 20.0209 68.431 19.8946 68.4643 19.7822L68.328 19.7418ZM68.2718 20.1618V20.2573H68.414V20.1618H68.2718ZM68.2718 20.2573C68.2718 20.3975 68.2921 20.5296 68.3332 20.653L68.4681 20.608C68.4322 20.5004 68.414 20.3837 68.414 20.2573H68.2718ZM68.3336 20.654C68.3762 20.7755 68.4365 20.8837 68.5148 20.978L68.6241 20.8871C68.5573 20.8067 68.5051 20.7135 68.4677 20.607L68.3336 20.654ZM68.5152 20.9785C68.5955 21.0732 68.6907 21.1476 68.8005 21.2008L68.8626 21.073C68.771 21.0285 68.6915 20.9666 68.6237 20.8866L68.5152 20.9785ZM68.8005 21.2008C68.9117 21.2548 69.0335 21.2813 69.1647 21.2813V21.1391C69.0531 21.1391 68.9528 21.1167 68.8626 21.073L68.8005 21.2008ZM69.1647 21.2813C69.3156 21.2813 69.4521 21.2537 69.5727 21.1967L69.5119 21.0682C69.4133 21.1148 69.2982 21.1391 69.1647 21.1391V21.2813ZM69.5734 21.1964C69.6945 21.1374 69.8013 21.0459 69.8941 20.9247L69.7813 20.8382C69.6995 20.945 69.6092 21.0209 69.5112 21.0685L69.5734 21.1964ZM69.7942 20.9377L69.9608 21.0665L70.0478 20.9541L69.8812 20.8252L69.7942 20.9377ZM69.9453 20.9706C69.8977 21.0415 69.8372 21.1076 69.7634 21.1688L69.8542 21.2782C69.9374 21.2092 70.0073 21.1331 70.0633 21.05L69.9453 20.9706ZM69.7629 21.1693C69.6933 21.2282 69.6085 21.276 69.5074 21.3121L69.555 21.446C69.6701 21.405 69.7704 21.3492 69.8548 21.2778L69.7629 21.1693ZM69.5074 21.3121C69.4086 21.3472 69.2911 21.3657 69.1536 21.3657V21.5078C69.3034 21.5078 69.4376 21.4878 69.555 21.446L69.5074 21.3121Z" fill="white"/>
<defs>
<linearGradient id="paint0_linear_219_723" x1="29.2722" y1="15.4212" x2="58.367" y2="14.4839" gradientUnits="userSpaceOnUse">
<stop stop-color="#655050"/>
<stop offset="1" stop-color="#FDFDFD"/>
</linearGradient>
</defs>
</svg>
