<svg width="16" height="17" viewBox="0 0 16 17" fill="none" xmlns="http://www.w3.org/2000/svg">
<path d="M14.6654 15.207H1.33203C1.0587 15.207 0.832031 14.9804 0.832031 14.707C0.832031 14.4337 1.0587 14.207 1.33203 14.207H14.6654C14.9387 14.207 15.1654 14.4337 15.1654 14.707C15.1654 14.9804 14.9387 15.207 14.6654 15.207Z" fill="#92E3A9"/>
<path d="M2.4668 14.7071H1.4668L1.50013 6.68708C1.50013 6.12042 1.76013 5.59377 2.2068 5.2471L6.87346 1.61376C7.53346 1.10043 8.46013 1.10043 9.1268 1.61376L13.7935 5.24043C14.2335 5.58709 14.5001 6.12708 14.5001 6.68708V14.7071H13.5001V6.69376C13.5001 6.44042 13.3801 6.19376 13.1801 6.03376L8.51346 2.40709C8.21346 2.17376 7.79347 2.17376 7.4868 2.40709L2.82013 6.04044C2.62013 6.19377 2.50013 6.44042 2.50013 6.69376L2.4668 14.7071Z" fill="#92E3A9"/>
<path d="M11.3327 15.207H4.66602C4.39268 15.207 4.16602 14.9803 4.16602 14.707V8.37366C4.16602 7.54699 4.83935 6.87366 5.66602 6.87366H10.3327C11.1593 6.87366 11.8327 7.54699 11.8327 8.37366V14.707C11.8327 14.9803 11.606 15.207 11.3327 15.207ZM5.16602 14.207H10.8327V8.37366C10.8327 8.10032 10.606 7.87366 10.3327 7.87366H5.66602C5.39268 7.87366 5.16602 8.10032 5.16602 8.37366V14.207Z" fill="#92E3A9"/>
<path d="M6.66602 12.3737C6.39268 12.3737 6.16602 12.147 6.16602 11.8737V10.8737C6.16602 10.6003 6.39268 10.3737 6.66602 10.3737C6.93935 10.3737 7.16602 10.6003 7.16602 10.8737V11.8737C7.16602 12.147 6.93935 12.3737 6.66602 12.3737Z" fill="white"/>
<path d="M9 5.54041H7C6.72667 5.54041 6.5 5.31374 6.5 5.04041C6.5 4.76707 6.72667 4.54041 7 4.54041H9C9.27333 4.54041 9.5 4.76707 9.5 5.04041C9.5 5.31374 9.27333 5.54041 9 5.54041Z" fill="white"/>
</svg>
