<svg width="20" height="20" viewBox="0 0 20 20" fill="none" xmlns="http://www.w3.org/2000/svg">
<path d="M13.2997 17.7666C13.1414 17.7666 12.9831 17.7083 12.8581 17.5833L11.5914 16.3166C11.3497 16.0749 11.3497 15.6749 11.5914 15.4333C11.8331 15.1916 12.2331 15.1916 12.4747 15.4333L13.2997 16.2583L15.3914 14.1666C15.6331 13.9249 16.0331 13.9249 16.2747 14.1666C16.5164 14.4083 16.5164 14.8083 16.2747 15.0499L13.7414 17.5833C13.6164 17.7083 13.4581 17.7666 13.2997 17.7666Z" fill="#757575"/>
<path d="M10.1342 9.68317C10.1092 9.68317 10.0926 9.68317 10.0676 9.68317C10.0259 9.67484 9.96756 9.67484 9.91756 9.68317C7.50089 9.60817 5.67589 7.70817 5.67589 5.3665C5.66756 4.2165 6.11756 3.13317 6.93423 2.3165C7.75089 1.49984 8.83423 1.0415 9.99256 1.0415C12.3759 1.0415 14.3176 2.98317 14.3176 5.3665C14.3176 7.70817 12.4926 9.59984 10.1592 9.68317C10.1509 9.68317 10.1426 9.68317 10.1342 9.68317ZM9.99256 2.2915C9.16756 2.2915 8.40089 2.6165 7.81756 3.1915C7.24256 3.77484 6.9259 4.5415 6.9259 5.35817C6.9259 7.02484 8.22589 8.37484 9.88423 8.42484C9.93423 8.4165 10.0426 8.4165 10.1509 8.42484C11.7926 8.34984 13.0676 7.00817 13.0676 5.35817C13.0676 3.67484 11.6842 2.2915 9.99256 2.2915Z" fill="#757575"/>
<path d="M9.99245 18.8001C8.29245 18.8001 6.68411 18.3584 5.46745 17.5417C4.30911 16.7667 3.67578 15.7084 3.67578 14.5667C3.67578 13.4251 4.31745 12.3751 5.46745 11.6084C7.95912 9.94173 12.0091 9.94173 14.5008 11.6084C14.7841 11.8001 14.8674 12.1917 14.6758 12.4751C14.4841 12.7667 14.0924 12.8417 13.8091 12.6501C11.7341 11.2667 8.23411 11.2667 6.15911 12.6501C5.35911 13.1834 4.92578 13.8584 4.92578 14.5667C4.92578 15.2751 5.35911 15.9667 6.15911 16.5001C7.16745 17.1751 8.52578 17.5417 9.98411 17.5417C10.3258 17.5417 10.6091 17.8251 10.6091 18.1667C10.6091 18.5084 10.3341 18.8001 9.99245 18.8001Z" fill="#757575"/>
</svg>
