<svg width="32" height="32" viewBox="0 0 32 32" fill="none" xmlns="http://www.w3.org/2000/svg">
<path d="M15.9996 30.3334C15.6796 30.3334 15.3596 30.2934 15.053 30.2001C8.13298 28.2934 3.11963 21.8267 3.11963 14.8133V8.96C3.11963 7.46666 4.19964 5.8534 5.5863 5.28006L13.013 2.24002C14.9463 1.45336 17.0663 1.45336 18.9863 2.24002L26.413 5.28006C27.7996 5.8534 28.8796 7.46666 28.8796 8.96V14.8133C28.8796 21.8133 23.853 28.2801 16.9463 30.2001C16.6396 30.2934 16.3196 30.3334 15.9996 30.3334ZM15.9996 3.6667C15.2396 3.6667 14.4929 3.81339 13.7729 4.10672L6.34631 7.14668C5.70631 7.41335 5.11963 8.28001 5.11963 8.97334V14.8267C5.11963 20.9467 9.51964 26.6001 15.5863 28.2801C15.853 28.3601 16.1463 28.3601 16.413 28.2801C22.4796 26.6001 26.8796 20.9467 26.8796 14.8267V8.97334C26.8796 8.28001 26.293 7.41335 25.653 7.14668L18.2263 4.10672C17.5063 3.81339 16.7596 3.6667 15.9996 3.6667Z" fill="#227872"/>
<path d="M16.0002 17.6667C13.9735 17.6667 12.3335 16.0267 12.3335 14C12.3335 11.9734 13.9735 10.3334 16.0002 10.3334C18.0268 10.3334 19.6668 11.9734 19.6668 14C19.6668 16.0267 18.0268 17.6667 16.0002 17.6667ZM16.0002 12.3334C15.0802 12.3334 14.3335 13.08 14.3335 14C14.3335 14.92 15.0802 15.6667 16.0002 15.6667C16.9202 15.6667 17.6668 14.92 17.6668 14C17.6668 13.08 16.9202 12.3334 16.0002 12.3334Z" fill="#227872"/>
<path d="M16 21.6666C15.4533 21.6666 15 21.2133 15 20.6666V16.6666C15 16.12 15.4533 15.6666 16 15.6666C16.5467 15.6666 17 16.12 17 16.6666V20.6666C17 21.2133 16.5467 21.6666 16 21.6666Z" fill="#227872"/>
</svg>
