<svg width="32" height="32" viewBox="0 0 32 32" fill="none" xmlns="http://www.w3.org/2000/svg">
<path d="M18.96 28.8401C17.3867 28.8401 15.16 27.7334 13.4 22.4401L12.44 19.5601L9.56001 18.6001C4.28001 16.8401 3.17334 14.6134 3.17334 13.0401C3.17334 11.4801 4.28001 9.2401 9.56001 7.46676L20.88 3.69343C23.7067 2.74676 26.0667 3.02676 27.52 4.46676C28.9733 5.90676 29.2533 8.2801 28.3067 11.1068L24.5333 22.4268C22.76 27.7334 20.5333 28.8401 18.96 28.8401ZM10.1867 9.37343C6.48001 10.6134 5.16001 12.0801 5.16001 13.0401C5.16001 14.0001 6.48001 15.4668 10.1867 16.6934L13.5467 17.8134C13.84 17.9068 14.08 18.1468 14.1733 18.4401L15.2933 21.8001C16.52 25.5068 18 26.8268 18.96 26.8268C19.92 26.8268 21.3867 25.5068 22.6267 21.8001L26.4 10.4801C27.08 8.42676 26.96 6.74676 26.0933 5.8801C25.2267 5.01343 23.5467 4.90676 21.5067 5.58676L10.1867 9.37343Z" fill="white"/>
<path d="M13.4801 19.2001C13.2267 19.2001 12.9734 19.1067 12.7734 18.9067C12.3867 18.5201 12.3867 17.8801 12.7734 17.4934L17.5467 12.7067C17.9334 12.3201 18.5734 12.3201 18.9601 12.7067C19.3467 13.0934 19.3467 13.7334 18.9601 14.1201L14.1867 18.9067C14.0001 19.1067 13.7334 19.2001 13.4801 19.2001Z" fill="white"/>
</svg>
