<svg width="16" height="16" viewBox="0 0 16 16" fill="none" xmlns="http://www.w3.org/2000/svg">
<path d="M9.47976 14.42C8.69309 14.42 7.57976 13.8667 6.69976 11.22L6.21976 9.78005L4.77976 9.30005C2.13976 8.42005 1.58643 7.30671 1.58643 6.52005C1.58643 5.74005 2.13976 4.62005 4.77976 3.73338L10.4398 1.84671C11.8531 1.37338 13.0331 1.51338 13.7598 2.23338C14.4864 2.95338 14.6264 4.14005 14.1531 5.55338L12.2664 11.2134C11.3798 13.8667 10.2664 14.42 9.47976 14.42ZM5.09309 4.68671C3.23976 5.30671 2.57976 6.04005 2.57976 6.52005C2.57976 7.00005 3.23976 7.73338 5.09309 8.34671L6.77309 8.90671C6.91976 8.95338 7.03976 9.07338 7.08643 9.22005L7.64643 10.9C8.25976 12.7534 8.99976 13.4134 9.47976 13.4134C9.95976 13.4134 10.6931 12.7534 11.3131 10.9L13.1998 5.24005C13.5398 4.21338 13.4798 3.37338 13.0464 2.94005C12.6131 2.50671 11.7731 2.45338 10.7531 2.79338L5.09309 4.68671Z" fill="#292D32"/>
<path d="M6.74003 9.60004C6.61337 9.60004 6.4867 9.55337 6.3867 9.45337C6.19337 9.26004 6.19337 8.94004 6.3867 8.74671L8.77337 6.35337C8.9667 6.16004 9.2867 6.16004 9.48003 6.35337C9.67337 6.54671 9.67337 6.86671 9.48003 7.06004L7.09337 9.45337C7.00003 9.55337 6.8667 9.60004 6.74003 9.60004Z" fill="#292D32"/>
</svg>
