<svg width="21" height="24" viewBox="0 0 16 16" fill="none" xmlns="http://www.w3.org/2000/svg">
<path d="M8 15.1666C7.53333 15.1666 7.06 14.9866 6.70667 14.6333L5.56667 13.5066C5.28 13.2266 4.90666 13.0733 4.50666 13.0733H4C2.62 13.0733 1.5 11.96 1.5 10.5933V3.31995C1.5 1.95328 2.62 0.839966 4 0.839966H12C13.38 0.839966 14.5 1.95328 14.5 3.31995V10.5933C14.5 11.96 13.38 13.0733 12 13.0733H11.4933C11.0933 13.0733 10.7133 13.2266 10.4333 13.5066L9.29334 14.6333C8.94 14.9866 8.46667 15.1666 8 15.1666ZM4 1.83329C3.17333 1.83329 2.5 2.49994 2.5 3.31327V10.5866C2.5 11.4066 3.17333 12.0666 4 12.0666H4.50666C5.17333 12.0666 5.8 12.3266 6.27334 12.7933L7.41333 13.92C7.74 14.24 8.26667 14.24 8.59333 13.92L9.73334 12.7933C10.2067 12.3266 10.8333 12.0666 11.5 12.0666H12C12.8267 12.0666 13.5 11.4 13.5 10.5866V3.31327C13.5 2.49327 12.8267 1.83329 12 1.83329H4Z" fill="#782228"/>
<path d="M6.92016 9.6733H5.13348C4.84015 9.6733 4.56682 9.53325 4.39348 9.29325C4.22682 9.06659 4.18682 8.78665 4.26682 8.51998C4.50015 7.80665 5.07348 7.41995 5.58015 7.07328C6.11348 6.71328 6.41348 6.48664 6.41348 6.09998C6.41348 5.75331 6.13348 5.47327 5.78681 5.47327C5.44015 5.47327 5.16016 5.75331 5.16016 6.09998C5.16016 6.37331 4.93349 6.59998 4.66016 6.59998C4.38682 6.59998 4.16016 6.37331 4.16016 6.09998C4.16016 5.20664 4.88681 4.47327 5.78681 4.47327C6.68681 4.47327 7.41348 5.19998 7.41348 6.09998C7.41348 7.03998 6.70682 7.51995 6.14016 7.90662C5.78682 8.14662 5.45348 8.3733 5.28681 8.6733H6.91348C7.18682 8.6733 7.41348 8.89997 7.41348 9.1733C7.41348 9.44663 7.19349 9.6733 6.92016 9.6733Z" fill="#782228"/>
<path d="M10.6931 9.67334C10.4198 9.67334 10.1931 9.44667 10.1931 9.17334V8.7133H8.88642C8.88642 8.7133 8.88643 8.7133 8.87976 8.7133C8.55309 8.7133 8.25309 8.54001 8.08643 8.26001C7.91976 7.97334 7.91976 7.62 8.08643 7.34C8.53976 6.56 9.06643 5.67332 9.54643 4.89998C9.75976 4.55998 10.1664 4.40668 10.5464 4.51334C10.9264 4.62668 11.1931 4.97337 11.1864 5.37337V7.71997H11.3331C11.6064 7.71997 11.8331 7.94664 11.8331 8.21997C11.8331 8.4933 11.6064 8.71997 11.3331 8.71997H11.1931V9.18001C11.1931 9.45334 10.9731 9.67334 10.6931 9.67334ZM10.1931 5.76001C9.79975 6.40001 9.39308 7.08663 9.02642 7.7133H10.1931V5.76001Z" fill="#292D32"/>
</svg>
