<svg width="19" height="20" viewBox="0 0 19 20" fill="none" xmlns="http://www.w3.org/2000/svg">
<path d="M14.091 18.2103H5.14244C3.20152 18.2103 1.62695 16.6357 1.62695 14.6948V9.44884C1.62695 7.50792 3.20152 5.93335 5.14244 5.93335H14.091C16.0319 5.93335 17.6064 7.50792 17.6064 9.44884V10.5713C17.6064 10.8909 17.3414 11.1559 17.0218 11.1559H15.4473C15.1744 11.1559 14.925 11.2573 14.7457 11.4443L14.7379 11.4521C14.5197 11.6626 14.4183 11.951 14.4417 12.2472C14.4885 12.7616 14.9796 13.1748 15.5408 13.1748H17.0218C17.3414 13.1748 17.6064 13.4398 17.6064 13.7594V14.687C17.6064 16.6357 16.0319 18.2103 14.091 18.2103ZM5.14244 7.10258C3.84849 7.10258 2.79618 8.1549 2.79618 9.44884V14.6948C2.79618 15.9887 3.84849 17.041 5.14244 17.041H14.091C15.3849 17.041 16.4372 15.9887 16.4372 14.6948V14.3518H15.5408C14.3638 14.3518 13.366 13.4788 13.2725 12.3563C13.2101 11.7171 13.444 11.0858 13.9117 10.6259C14.317 10.2127 14.8626 9.98669 15.4473 9.98669H16.4372V9.44884C16.4372 8.1549 15.3849 7.10258 14.091 7.10258H5.14244Z" fill="white"/>
<path d="M2.21157 10.735C1.89198 10.735 1.62695 10.4699 1.62695 10.1503V6.58812C1.62695 5.42669 2.35967 4.37434 3.44316 3.96121L9.63229 1.62275C10.2715 1.3811 10.9808 1.46689 11.5342 1.85663C12.0955 2.24637 12.4229 2.87775 12.4229 3.55591V6.51795C12.4229 6.83754 12.1578 7.10256 11.8382 7.10256C11.5186 7.10256 11.2536 6.83754 11.2536 6.51795V3.55591C11.2536 3.2597 11.1133 2.98687 10.8639 2.81538C10.6144 2.6439 10.3182 2.60492 10.0376 2.71405L3.84849 5.05251C3.21711 5.29415 2.78839 5.90997 2.78839 6.58812V10.1503C2.79618 10.4777 2.53116 10.735 2.21157 10.735Z" fill="white"/>
<path d="M15.5419 14.3518C14.3649 14.3518 13.3671 13.4788 13.2736 12.3563C13.2112 11.7093 13.4451 11.078 13.9128 10.6181C14.3103 10.2127 14.856 9.98669 15.4406 9.98669H17.0619C17.8336 10.0101 18.426 10.618 18.426 11.3664V12.9721C18.426 13.7205 17.8336 14.3284 17.0853 14.3518H15.5419ZM17.0463 11.1559H15.4484C15.1755 11.1559 14.9261 11.2573 14.7468 11.4443C14.5208 11.6626 14.4116 11.9588 14.4428 12.255C14.4896 12.7694 14.9807 13.1826 15.5419 13.1826H17.0697C17.171 13.1826 17.2646 13.0891 17.2646 12.9721V11.3664C17.2646 11.2494 17.171 11.1637 17.0463 11.1559Z" fill="white"/>
<path d="M11.1758 10.4154H5.71938C5.39979 10.4154 5.13477 10.1504 5.13477 9.83083C5.13477 9.51124 5.39979 9.24622 5.71938 9.24622H11.1758C11.4954 9.24622 11.7604 9.51124 11.7604 9.83083C11.7604 10.1504 11.4954 10.4154 11.1758 10.4154Z" fill="white"/>
</svg>
